<svg width="56" height="56" viewBox="0 0 56 56" fill="none" xmlns="http://www.w3.org/2000/svg">
<path d="M27.9931 6.10156C40.726 6.10156 51.0486 15.9077 51.0486 28.0043C51.0486 39.9721 40.9445 49.6981 28.3986 49.9037L27.9931 49.907C24 49.9171 20.0685 48.9272 16.5607 47.0283L10.8429 49.5044C9.78125 49.9636 8.54657 49.4794 8.08511 48.4229C7.90432 48.0089 7.86331 47.5478 7.96826 47.1086L9.43019 40.9967C6.60588 37.3619 4.9375 32.8677 4.9375 28.0043C4.9375 15.9077 15.2601 6.10156 27.9931 6.10156ZM19.059 25.6988C17.9449 25.6988 17.0417 26.602 17.0417 27.7161C17.0417 28.8303 17.9449 29.7335 19.059 29.7335C20.1732 29.7335 21.0764 28.8303 21.0764 27.7161C21.0764 26.602 20.1732 25.6988 19.059 25.6988ZM37.5035 25.6988C36.3893 25.6988 35.4861 26.602 35.4861 27.7161C35.4861 28.8303 36.3893 29.7335 37.5035 29.7335C38.6176 29.7335 39.5208 28.8303 39.5208 27.7161C39.5208 26.602 38.6176 25.6988 37.5035 25.6988ZM28.2813 25.6988C27.1671 25.6988 26.2639 26.602 26.2639 27.7161C26.2639 28.8303 27.1671 29.7335 28.2813 29.7335C29.3954 29.7335 30.2986 28.8303 30.2986 27.7161C30.2986 26.602 29.3954 25.6988 28.2813 25.6988Z" fill="white"/>
</svg>
