<svg width="126" height="49" viewBox="0 0 126 49" fill="none" xmlns="http://www.w3.org/2000/svg">
<g id="Frame" clip-path="url(#clip0_8422_6385)">
<path id="Vector" fill-rule="evenodd" clip-rule="evenodd" d="M94.4808 31.588L109.9 0.5H109.978L125.397 31.588H118.367L115.765 26.1912L113.42 21.2505H113.394L111.92 18.2309C111.505 17.399 111.117 16.6007 110.755 15.8361C110.418 15.0491 110.094 14.1384 109.783 13.104C109.499 14.1159 109.188 15.0154 108.851 15.8024C108.515 16.5894 108.139 17.399 107.725 18.2309L106.251 21.2505H106.243L103.893 26.1912H103.88L101.277 31.588H94.4808ZM57.3354 1.23125V1.24718L73.9485 18.1586L90.261 1.20962V31.5831H83.5029V22.8808C83.5029 21.8913 83.5161 20.7783 83.5416 19.5415C83.5935 18.3048 83.7232 16.8881 83.9302 15.2915C83.1275 16.4608 82.3507 17.4727 81.5999 18.3272C80.875 19.1817 80.2015 19.9688 79.5803 20.6883L73.832 27.3669L67.8894 20.6883C67.2938 20.0137 66.5816 19.2042 65.7529 18.2598C64.9502 17.2928 64.1734 16.2697 63.4226 15.1903C63.6296 16.8319 63.7461 18.271 63.7721 19.5078C63.8239 20.7446 63.8499 21.8689 63.8499 22.8808V31.5831H57.3248V6.69551H47.7249V31.5882H40.5005V6.69551H31.9557V1.23125H57.3354ZM1.06445 1.23131V31.5883H12.9495C15.746 31.5883 18.2836 31.1947 20.5622 30.4077C22.8667 29.6207 24.8476 28.5413 26.5048 27.1696C28.1878 25.7755 29.4825 24.1564 30.3888 22.3125C31.295 20.4686 31.7482 18.501 31.7482 16.4098C31.7482 14.3185 31.295 12.3509 30.3888 10.507C29.4825 8.66314 28.1878 7.05536 26.5048 5.68367C24.8476 4.28949 22.8667 3.19889 20.5622 2.41186C18.2836 1.62483 15.746 1.23131 12.9495 1.23131H1.06445ZM12.3281 26.124H7.82264V6.69554H12.3281C14.296 6.69554 16.0309 6.94293 17.5327 7.43762C19.0345 7.93232 20.2903 8.62943 21.3002 9.52887C22.3359 10.4059 23.1127 11.4402 23.6306 12.632C24.1743 13.8014 24.4462 15.0606 24.4462 16.4098C24.4462 17.759 24.1743 19.0182 23.6306 20.1875C23.1127 21.3568 22.3359 22.3912 21.3002 23.2907C20.2903 24.1677 19.0345 24.8648 17.5327 25.3819C16.0309 25.8766 14.296 26.124 12.3281 26.124Z" fill="#008080"/>
<path id="Vector_2" d="M1.07227 39.5047V38.8253H5.62751V39.5047H3.78701V44.819H2.91277V39.5047H1.07227ZM6.73542 44.819V38.4258H7.56365V41.3892C7.73746 41.1806 7.95217 41.0207 8.20782 40.91C8.46344 40.7988 8.73695 40.7434 9.02836 40.7434C9.35557 40.7434 9.65718 40.8143 9.93329 40.9565C10.2145 41.0942 10.442 41.2962 10.6158 41.5624C10.7896 41.8245 10.8765 42.1439 10.8765 42.5217V44.819H10.0483V42.6214C10.0483 42.306 9.93839 42.0287 9.71854 41.7887C9.50383 41.5447 9.19962 41.4225 8.80595 41.4225C8.48389 41.4225 8.19503 41.5247 7.93941 41.7289C7.6889 41.9287 7.56365 42.2196 7.56365 42.6014V44.819H6.73542ZM14.4502 44.8991C13.9696 44.8991 13.5376 44.8057 13.1542 44.6193C12.7759 44.4328 12.4768 44.1799 12.2569 43.8601C12.0422 43.5359 11.9348 43.1763 11.9348 42.7812C11.9348 42.4039 12.0396 42.062 12.2493 41.7555C12.4589 41.445 12.7401 41.1983 13.0928 41.0163C13.4507 40.8343 13.8444 40.7434 14.2738 40.7434C14.6981 40.7434 15.0867 40.8321 15.4395 41.0097C15.7922 41.1828 16.0734 41.418 16.283 41.7156C16.4927 42.0132 16.5975 42.3507 16.5975 42.7281V43.0209H13.5913C13.4584 43.0209 13.3229 43.0164 13.1848 43.0076C13.0468 42.9987 12.9113 42.9854 12.7784 42.9677C12.8346 43.3229 13.0187 43.6205 13.3305 43.8601C13.6476 44.0997 14.0233 44.2197 14.4579 44.2197C14.7493 44.2197 15.0203 44.1622 15.2708 44.0466C15.5213 43.931 15.7232 43.7778 15.8766 43.5869L16.1067 44.4062C15.8868 44.5617 15.6337 44.6835 15.3474 44.7725C15.0663 44.8567 14.7672 44.8991 14.4502 44.8991ZM12.7554 42.4814C13.0315 42.4415 13.3101 42.4216 13.5913 42.4216H15.1174C15.2299 42.4216 15.3398 42.426 15.4471 42.4349C15.5596 42.4393 15.6721 42.446 15.7845 42.4548C15.713 42.1439 15.534 41.8888 15.2478 41.689C14.9615 41.4849 14.6368 41.3826 14.2738 41.3826C13.9006 41.3826 13.5734 41.4915 13.2922 41.709C13.011 41.922 12.8321 42.1797 12.7554 42.4814ZM20.23 44.819V38.8253H22.4923C23.116 38.8253 23.658 38.9143 24.1181 39.0915C24.5834 39.2691 24.9668 39.5047 25.2684 39.7975C25.57 40.0906 25.795 40.4148 25.9433 40.77C26.0916 41.1208 26.1657 41.4716 26.1657 41.8223C26.1657 42.1731 26.0916 42.5261 25.9433 42.8813C25.795 43.2317 25.57 43.5537 25.2684 43.8468C24.9668 44.1396 24.5834 44.3752 24.1181 44.5528C23.658 44.7304 23.116 44.819 22.4923 44.819H20.23ZM21.1043 44.1396H22.4003C22.932 44.1396 23.3794 44.0687 23.7423 43.9266C24.1053 43.78 24.3993 43.5913 24.6243 43.3605C24.8492 43.1253 25.0102 42.8721 25.1074 42.6014C25.2096 42.3304 25.2608 42.0708 25.2608 41.8223C25.2608 41.5735 25.2096 41.3139 25.1074 41.0429C25.0102 40.7722 24.8492 40.5212 24.6243 40.2904C24.3993 40.0552 24.1053 39.8665 23.7423 39.7244C23.3794 39.5778 22.932 39.5047 22.4003 39.5047H21.1043V44.1396ZM27.3656 44.819V40.8232H28.1938V44.819H27.3656ZM27.7797 40.1039C27.6263 40.1039 27.496 40.0574 27.3886 39.964C27.2812 39.871 27.2276 39.7576 27.2276 39.6243C27.2276 39.4869 27.2812 39.3736 27.3886 39.285C27.496 39.1916 27.6263 39.145 27.7797 39.145C27.9382 39.145 28.0686 39.1916 28.1708 39.285C28.2782 39.3736 28.3319 39.4869 28.3319 39.6243C28.3319 39.7576 28.2782 39.871 28.1708 39.964C28.0686 40.0574 27.9382 40.1039 27.7797 40.1039ZM31.5261 46.897C31.1734 46.897 30.8513 46.8527 30.5599 46.7637C30.2736 46.6751 30.018 46.5529 29.793 46.3975L30.0231 45.5848C30.1764 45.7761 30.3809 45.9311 30.6365 46.0511C30.8922 46.1711 31.1862 46.231 31.5185 46.231C32.0348 46.231 32.4515 46.0954 32.7685 45.8248C33.0906 45.5538 33.2516 45.2052 33.2516 44.7791V44.2929C33.0471 44.4705 32.8043 44.6126 32.5231 44.7193C32.247 44.8212 31.9505 44.8726 31.6335 44.8726C31.2143 44.8726 30.8308 44.7813 30.4832 44.5993C30.1355 44.4129 29.8569 44.1644 29.6473 43.8535C29.4428 43.5426 29.3405 43.1985 29.3405 42.8211C29.3405 42.4438 29.4428 42.0996 29.6473 41.7887C29.8569 41.4782 30.1355 41.2316 30.4832 41.0495C30.8308 40.8631 31.2143 40.77 31.6335 40.77C31.9505 40.77 32.247 40.821 32.5231 40.9233C32.8043 41.0252 33.0471 41.1673 33.2516 41.3494V40.8232H34.0185V44.819C34.0185 45.2543 33.9009 45.6273 33.6657 45.9378C33.4356 46.2487 33.1314 46.4861 32.7531 46.6504C32.3748 46.8147 31.9658 46.897 31.5261 46.897ZM31.7409 44.2197C32.0323 44.2197 32.2956 44.1577 32.5308 44.0333C32.771 43.9044 32.9602 43.7357 33.0982 43.5271C33.2414 43.314 33.3129 43.0788 33.3129 42.8211C33.3129 42.5638 33.2414 42.3304 33.0982 42.1218C32.9602 41.9087 32.771 41.74 32.5308 41.6156C32.2956 41.4871 32.0323 41.4225 31.7409 41.4225C31.4494 41.4225 31.1836 41.4871 30.9433 41.6156C30.7081 41.74 30.519 41.9087 30.3758 42.1218C30.2378 42.3304 30.1688 42.5638 30.1688 42.8211C30.1688 43.0788 30.2378 43.314 30.3758 43.5271C30.519 43.7357 30.7081 43.9044 30.9433 44.0333C31.1836 44.1577 31.4494 44.2197 31.7409 44.2197ZM35.4861 44.819V40.8232H36.3143V44.819H35.4861ZM35.9002 40.1039C35.7468 40.1039 35.6165 40.0574 35.5091 39.964C35.4017 39.871 35.3481 39.7576 35.3481 39.6243C35.3481 39.4869 35.4017 39.3736 35.5091 39.285C35.6165 39.1916 35.7468 39.145 35.9002 39.145C36.0587 39.145 36.189 39.1916 36.2913 39.285C36.3987 39.3736 36.4524 39.4869 36.4524 39.6243C36.4524 39.7576 36.3987 39.871 36.2913 39.964C36.189 40.0574 36.0587 40.1039 35.9002 40.1039ZM38.3199 44.819V41.4225H37.277V40.8232H38.343V39.4914H39.1251V40.8232H40.2678V41.4225H39.1481V44.819H38.3199ZM42.9785 44.8726C42.5592 44.8726 42.1758 44.7813 41.8282 44.5993C41.4805 44.4129 41.2019 44.1644 40.9922 43.8535C40.7878 43.5426 40.6855 43.1985 40.6855 42.8211C40.6855 42.4438 40.7878 42.0996 40.9922 41.7887C41.2019 41.4782 41.4805 41.2316 41.8282 41.0495C42.1758 40.8631 42.5592 40.77 42.9785 40.77C43.2956 40.77 43.5919 40.821 43.8679 40.9233C44.1493 41.0252 44.3921 41.1673 44.5966 41.3494V40.8232H45.3636V44.819H44.5966V44.2929C44.3921 44.4705 44.1493 44.6126 43.8679 44.7193C43.5919 44.8212 43.2956 44.8726 42.9785 44.8726ZM43.0858 44.2197C43.3772 44.2197 43.6404 44.1577 43.8755 44.0333C44.1162 43.9044 44.3049 43.7357 44.4431 43.5271C44.5864 43.314 44.6578 43.0788 44.6578 42.8211C44.6578 42.5638 44.5864 42.3304 44.4431 42.1218C44.3049 41.9087 44.1162 41.74 43.8755 41.6156C43.6404 41.4871 43.3772 41.4225 43.0858 41.4225C42.7944 41.4225 42.5285 41.4871 42.2883 41.6156C42.0531 41.74 41.8639 41.9087 41.7208 42.1218C41.5828 42.3304 41.5138 42.5638 41.5138 42.8211C41.5138 43.0788 41.5828 43.314 41.7208 43.5271C41.8639 43.7357 42.0531 43.9044 42.2883 44.0333C42.5285 44.1577 42.7944 44.2197 43.0858 44.2197ZM46.8309 44.819V38.4258H47.6591V44.819H46.8309ZM53.4419 45.0188L50.7811 38.8253H51.6706L53.2348 42.4216C53.2913 42.546 53.3373 42.6657 53.373 42.7812C53.4087 42.8924 53.447 43.0253 53.4882 43.1807C53.529 43.0253 53.5673 42.8924 53.603 42.7812C53.6438 42.6657 53.6902 42.546 53.7412 42.4216L55.3207 38.6255L56.893 42.4216C56.9389 42.5327 56.9822 42.6457 57.0235 42.7613C57.0694 42.8721 57.1102 43.012 57.1459 43.1807C57.1868 43.012 57.228 42.8721 57.2688 42.7613C57.3096 42.6457 57.3555 42.5327 57.4066 42.4216L58.9712 38.8253H59.7994L57.1459 45.0188L55.5511 41.1297C55.5048 41.0141 55.4614 40.9033 55.4206 40.7966C55.3798 40.6855 55.3385 40.5459 55.2977 40.3772C55.2569 40.5459 55.2161 40.6855 55.1753 40.7966C55.1345 40.9033 55.0907 41.0141 55.0447 41.1297L53.4419 45.0188ZM62.035 44.8991C61.5902 44.8991 61.1838 44.8057 60.8156 44.6193C60.4478 44.4328 60.1536 44.1821 59.9338 43.8668C59.7191 43.5514 59.6119 43.2029 59.6119 42.8211C59.6119 42.4349 59.7191 42.0863 59.9338 41.7754C60.1536 41.4605 60.4478 41.2094 60.8156 41.0229C61.1838 40.8365 61.5902 40.7434 62.035 40.7434C62.4848 40.7434 62.8913 40.8365 63.2544 41.0229C63.6225 41.2094 63.9138 41.4605 64.1285 41.7754C64.3483 42.0863 64.4584 42.4349 64.4584 42.8211C64.4584 43.2029 64.3483 43.5514 64.1285 43.8668C63.9138 44.1821 63.6225 44.4328 63.2544 44.6193C62.8913 44.8057 62.4848 44.8991 62.035 44.8991ZM62.035 44.2197C62.3317 44.2197 62.6 44.1577 62.8402 44.0333C63.0805 43.9044 63.2722 43.7357 63.4155 43.5271C63.5588 43.314 63.6302 43.0788 63.6302 42.8211C63.6302 42.5638 63.5588 42.3304 63.4155 42.1218C63.2722 41.9087 63.0805 41.74 62.8402 41.6156C62.6 41.4871 62.3317 41.4225 62.035 41.4225C61.7386 41.4225 61.4703 41.4871 61.2297 41.6156C60.9895 41.74 60.7977 41.9087 60.6549 42.1218C60.5116 42.3304 60.4402 42.5638 60.4402 42.8211C60.4402 43.0788 60.5116 43.314 60.6549 43.5271C60.7977 43.7357 60.9895 43.9044 61.2297 44.0333C61.4703 44.1577 61.7386 44.2197 62.035 44.2197ZM65.6064 44.819V40.8232H66.3734V41.5557C66.5367 41.3205 66.7539 41.1341 67.0252 40.9964C67.296 40.8542 67.6183 40.7833 67.9912 40.7833L68.1982 41.5026C68.1013 41.476 67.9886 41.4627 67.8611 41.4627C67.4316 41.4627 67.0864 41.5823 66.8258 41.8223C66.5647 42.0575 66.4346 42.395 66.4346 42.8344V44.819H65.6064ZM72.0558 44.819L69.9776 42.6214L71.6876 40.8232H72.6464L70.9669 42.5682L73.1064 44.819H72.0558ZM69.0571 44.819V38.4258H69.8853V44.819H69.0571ZM75.7799 44.8991C75.2994 44.8991 74.8674 44.8057 74.4839 44.6193C74.1055 44.4328 73.8066 44.1799 73.5868 43.8601C73.3721 43.5359 73.2646 43.1763 73.2646 42.7812C73.2646 42.4039 73.3696 42.062 73.5792 41.7555C73.7888 41.445 74.0698 41.1983 74.4227 41.0163C74.7803 40.8343 75.174 40.7434 75.6034 40.7434C76.0277 40.7434 76.4163 40.8321 76.7692 41.0097C77.1221 41.1828 77.4032 41.418 77.6128 41.7156C77.8224 42.0132 77.927 42.3507 77.927 42.7281V43.0209H74.921C74.7879 43.0209 74.6527 43.0164 74.5146 43.0076C74.3764 42.9987 74.2412 42.9854 74.1081 42.9677C74.1642 43.3229 74.3483 43.6205 74.6604 43.8601C74.9771 44.0997 75.353 44.2197 75.7875 44.2197C76.0792 44.2197 76.35 44.1622 76.6004 44.0466C76.8509 43.931 77.0528 43.7778 77.2063 43.5869L77.4363 44.4062C77.2165 44.5617 76.9635 44.6835 76.677 44.7725C76.3959 44.8567 76.097 44.8991 75.7799 44.8991ZM74.0851 42.4814C74.3611 42.4415 74.64 42.4216 74.921 42.4216H76.447C76.5596 42.4216 76.6693 42.426 76.7769 42.4349C76.8891 42.4393 77.0018 42.446 77.1145 42.4548C77.0426 42.1439 76.8636 41.8888 76.5775 41.689C76.2913 41.4849 75.9665 41.3826 75.6034 41.3826C75.2301 41.3826 74.9032 41.4915 74.6221 41.709C74.3407 41.922 74.1617 42.1797 74.0851 42.4814ZM79.0328 44.819V40.8232H79.7994V41.5557C79.9631 41.3205 80.1804 41.1341 80.4512 40.9964C80.7225 40.8542 81.0443 40.7833 81.4176 40.7833L81.6247 41.5026C81.5277 41.476 81.4151 41.4627 81.2871 41.4627C80.8577 41.4627 80.5129 41.5823 80.2518 41.8223C79.9912 42.0575 79.8611 42.395 79.8611 42.8344V44.819H79.0328ZM84.1825 44.819L87.1043 38.6255H87.1196L90.0413 44.819H89.1136L88.3007 43.0408H85.8849L85.0643 44.819H84.1825ZM86.1766 42.4083H88.009L87.4648 41.2227C87.3981 41.0717 87.3343 40.9233 87.2731 40.7767C87.2118 40.6301 87.1502 40.4547 87.089 40.2505C87.0277 40.4547 86.9686 40.6301 86.9125 40.7767C86.8564 40.9188 86.7926 41.0673 86.7208 41.2227L86.1766 42.4083ZM92.8071 44.8991C92.3572 44.8991 91.9482 44.8057 91.58 44.6193C91.2118 44.4328 90.918 44.1821 90.6982 43.8668C90.4784 43.5514 90.3683 43.2029 90.3683 42.8211C90.3683 42.4393 90.4784 42.0908 90.6982 41.7754C90.918 41.4605 91.2118 41.2094 91.58 41.0229C91.9482 40.8365 92.3572 40.7434 92.8071 40.7434C93.1391 40.7434 93.4512 40.7944 93.7424 40.8967C94.0341 40.9986 94.2896 41.1341 94.5095 41.3028L94.2565 42.2085C94.1285 41.9866 93.9342 41.8002 93.6736 41.6492C93.418 41.4981 93.1264 41.4225 92.7994 41.4225C92.5027 41.4225 92.2318 41.4871 91.9865 41.6156C91.7463 41.74 91.5545 41.9087 91.4112 42.1218C91.268 42.3304 91.1965 42.5638 91.1965 42.8211C91.1965 43.0744 91.268 43.3074 91.4112 43.5204C91.5545 43.7335 91.7463 43.9044 91.9865 44.0333C92.2318 44.1577 92.5027 44.2197 92.7994 44.2197C93.1264 44.2197 93.418 44.1466 93.6736 44.0001C93.9342 43.8535 94.1285 43.6648 94.2565 43.434L94.5095 44.3397C94.2896 44.5085 94.0341 44.6436 93.7424 44.7459C93.4512 44.8478 93.1391 44.8991 92.8071 44.8991ZM97.4924 44.8726C97.0732 44.8726 96.6897 44.7813 96.3424 44.5993C95.9946 44.4129 95.7161 44.1644 95.5065 43.8535C95.302 43.5426 95.1995 43.1985 95.1995 42.8211C95.1995 42.4438 95.302 42.0996 95.5065 41.7887C95.7161 41.4782 95.9946 41.2316 96.3424 41.0495C96.6897 40.8631 97.0732 40.77 97.4924 40.77C97.8096 40.77 98.106 40.821 98.3823 40.9233C98.6634 41.0252 98.9061 41.1673 99.1106 41.3494V40.8232H99.8776V44.819H99.1106V44.2929C98.9061 44.4705 98.6634 44.6126 98.3823 44.7193C98.106 44.8212 97.8096 44.8726 97.4924 44.8726ZM97.6 44.2197C97.8913 44.2197 98.1544 44.1577 98.39 44.0333C98.6302 43.9044 98.8194 43.7357 98.9572 43.5271C99.1004 43.314 99.1719 43.0788 99.1719 42.8211C99.1719 42.5638 99.1004 42.3304 98.9572 42.1218C98.8194 41.9087 98.6302 41.74 98.39 41.6156C98.1544 41.4871 97.8913 41.4225 97.6 41.4225C97.3083 41.4225 97.0426 41.4871 96.8024 41.6156C96.5673 41.74 96.3781 41.9087 96.2348 42.1218C96.097 42.3304 96.0277 42.5638 96.0277 42.8211C96.0277 43.0788 96.097 43.314 96.2348 43.5271C96.3781 43.7357 96.5673 43.9044 96.8024 44.0333C97.0426 44.1577 97.3083 44.2197 97.6 44.2197ZM103.316 44.8726C102.897 44.8726 102.513 44.7813 102.166 44.5993C101.818 44.4129 101.54 44.1644 101.33 43.8535C101.125 43.5426 101.023 43.1985 101.023 42.8211C101.023 42.4438 101.125 42.0996 101.33 41.7887C101.54 41.4782 101.818 41.2316 102.166 41.0495C102.513 40.8631 102.897 40.77 103.316 40.77C103.618 40.77 103.901 40.8165 104.167 40.91C104.433 41.003 104.668 41.1319 104.873 41.2962V38.4258H105.701V44.819H104.934V44.2929C104.73 44.4705 104.487 44.6126 104.205 44.7193C103.929 44.8212 103.633 44.8726 103.316 44.8726ZM103.423 44.2197C103.715 44.2197 103.978 44.1577 104.213 44.0333C104.454 43.9044 104.642 43.7357 104.781 43.5271C104.924 43.314 104.995 43.0788 104.995 42.8211C104.995 42.5638 104.924 42.3304 104.781 42.1218C104.642 41.9087 104.454 41.74 104.213 41.6156C103.978 41.4871 103.715 41.4225 103.423 41.4225C103.132 41.4225 102.866 41.4871 102.626 41.6156C102.391 41.74 102.202 41.9087 102.058 42.1218C101.92 42.3304 101.851 42.5638 101.851 42.8211C101.851 43.0788 101.92 43.314 102.058 43.5271C102.202 43.7357 102.391 43.9044 102.626 44.0333C102.866 44.1577 103.132 44.2197 103.423 44.2197ZM109.362 44.8991C108.881 44.8991 108.449 44.8057 108.066 44.6193C107.687 44.4328 107.388 44.1799 107.168 43.8601C106.954 43.5359 106.847 43.1763 106.847 42.7812C106.847 42.4039 106.951 42.062 107.161 41.7555C107.37 41.445 107.652 41.1983 108.004 41.0163C108.362 40.8343 108.756 40.7434 109.185 40.7434C109.61 40.7434 109.998 40.8321 110.351 41.0097C110.704 41.1828 110.985 41.418 111.195 41.7156C111.404 42.0132 111.509 42.3507 111.509 42.7281V43.0209H108.503C108.37 43.0209 108.234 43.0164 108.097 43.0076C107.958 42.9987 107.823 42.9854 107.69 42.9677C107.746 43.3229 107.93 43.6205 108.242 43.8601C108.559 44.0997 108.935 44.2197 109.369 44.2197C109.661 44.2197 109.932 44.1622 110.182 44.0466C110.433 43.931 110.635 43.7778 110.788 43.5869L111.018 44.4062C110.798 44.5617 110.545 44.6835 110.259 44.7725C109.978 44.8567 109.679 44.8991 109.362 44.8991ZM107.667 42.4814C107.943 42.4415 108.222 42.4216 108.503 42.4216H110.029C110.142 42.4216 110.251 42.426 110.359 42.4349C110.471 42.4393 110.584 42.446 110.696 42.4548C110.625 42.1439 110.446 41.8888 110.159 41.689C109.873 41.4849 109.548 41.3826 109.185 41.3826C108.812 41.3826 108.485 41.4915 108.204 41.709C107.923 41.922 107.744 42.1797 107.667 42.4814ZM112.614 44.819V40.8232H113.381V41.3959C113.55 41.1784 113.762 41.0163 114.018 40.91C114.278 40.7988 114.552 40.7434 114.838 40.7434C115.151 40.7434 115.437 40.8077 115.697 40.9365C115.958 41.0606 116.168 41.236 116.326 41.4627C116.505 41.2227 116.735 41.0429 117.017 40.9233C117.303 40.8033 117.604 40.7434 117.921 40.7434C118.269 40.7434 118.586 40.8143 118.872 40.9565C119.164 41.0986 119.394 41.2984 119.562 41.5557C119.736 41.809 119.823 42.1085 119.823 42.4548V44.819H118.995V42.5416C118.995 42.1775 118.875 41.9021 118.634 41.7156C118.399 41.5247 118.126 41.4291 117.814 41.4291C117.62 41.4291 117.431 41.4671 117.247 41.5425C117.068 41.6181 116.919 41.7356 116.802 41.8954C116.689 42.0553 116.633 42.2639 116.633 42.5217V44.819H115.805V42.5416C115.805 42.2883 115.746 42.0797 115.628 41.9154C115.516 41.7511 115.368 41.6292 115.184 41.5491C115.005 41.4649 114.818 41.4225 114.624 41.4225C114.435 41.4225 114.248 41.4605 114.064 41.5358C113.885 41.6111 113.737 41.7289 113.619 41.8888C113.502 42.0487 113.443 42.2595 113.443 42.5217V44.819H112.614ZM120.781 46.8169L122.276 44.233L120.328 40.8232H121.264L122.245 42.5549C122.332 42.7103 122.417 42.8632 122.498 43.0142C122.58 43.1652 122.662 43.3473 122.744 43.5603C122.831 43.3473 122.912 43.1652 122.989 43.0142C123.071 42.8588 123.158 42.7059 123.25 42.5549L124.247 40.8232H125.129L121.678 46.8169H120.781Z" fill="#008080"/>
</g>
<defs>
<clipPath id="clip0_8422_6385">
<rect width="125" height="48" fill="white" transform="translate(0.705078 0.5)"/>
</clipPath>
</defs>
</svg>
