<svg width="125" height="48" viewBox="0 0 125 48" fill="none" xmlns="http://www.w3.org/2000/svg">
<g id="Frame">
<path id="Vector" fill-rule="evenodd" clip-rule="evenodd" d="M93.7757 31.088L109.195 0H109.273L124.692 31.088H117.662L115.06 25.6912L112.715 20.7505H112.689L111.215 17.7309C110.8 16.899 110.412 16.1007 110.05 15.3361C109.713 14.5491 109.389 13.6384 109.078 12.604C108.794 13.6159 108.483 14.5154 108.146 15.3024C107.81 16.0894 107.434 16.899 107.02 17.7309L105.546 20.7505H105.538L103.188 25.6912H103.175L100.572 31.088H93.7757ZM56.6303 0.73125V0.747179L73.2434 17.6586L89.5559 0.709617V31.0831H82.7978V22.3808C82.7978 21.3913 82.811 20.2783 82.8365 19.0415C82.8884 17.8048 83.0181 16.3881 83.2251 14.7915C82.4224 15.9608 81.6456 16.9727 80.8948 17.8272C80.1699 18.6817 79.4964 19.4688 78.8752 20.1883L73.1269 26.8669L67.1843 20.1883C66.5887 19.5137 65.8765 18.7042 65.0478 17.7598C64.2451 16.7928 63.4683 15.7697 62.7175 14.6903C62.9245 16.3319 63.041 17.771 63.067 19.0078C63.1188 20.2446 63.1448 21.3689 63.1448 22.3808V31.0831H56.6197V6.19551H47.0198V31.0882H39.7954V6.19551H31.2506V0.73125H56.6303ZM0.359375 0.731313V31.0883H12.2444C15.0409 31.0883 17.5785 30.6947 19.8571 29.9077C22.1616 29.1207 24.1425 28.0413 25.7997 26.6696C27.4827 25.2755 28.7774 23.6564 29.6837 21.8125C30.5899 19.9686 31.0431 18.001 31.0431 15.9098C31.0431 13.8185 30.5899 11.8509 29.6837 10.007C28.7774 8.16314 27.4827 6.55536 25.7997 5.18367C24.1425 3.78949 22.1616 2.69889 19.8571 1.91186C17.5785 1.12483 15.0409 0.731313 12.2444 0.731313H0.359375ZM11.623 25.624H7.11756V6.19554H11.623C13.5909 6.19554 15.3258 6.44293 16.8276 6.93762C18.3294 7.43232 19.5852 8.12943 20.5951 9.02887C21.6308 9.90587 22.4076 10.9402 22.9255 12.132C23.4692 13.3014 23.7411 14.5606 23.7411 15.9098C23.7411 17.259 23.4692 18.5182 22.9255 19.6875C22.4076 20.8568 21.6308 21.8912 20.5951 22.7907C19.5852 23.6677 18.3294 24.3648 16.8276 24.8819C15.3258 25.3766 13.5909 25.624 11.623 25.624Z" fill="#008080"/>
<path id="Vector_2" d="M0.367188 39.0047V38.3253H4.92243V39.0047H3.08193V44.319H2.20769V39.0047H0.367188ZM6.03034 44.319V37.9258H6.85857V40.8892C7.03238 40.6806 7.24709 40.5207 7.50274 40.41C7.75836 40.2988 8.03187 40.2434 8.32328 40.2434C8.65049 40.2434 8.9521 40.3143 9.22821 40.4565C9.50938 40.5942 9.73688 40.7962 9.91074 41.0624C10.0845 41.3245 10.1714 41.6439 10.1714 42.0217V44.319H9.34322V42.1214C9.34322 41.806 9.23331 41.5287 9.01346 41.2887C8.79875 41.0447 8.49454 40.9225 8.10087 40.9225C7.77881 40.9225 7.48995 41.0247 7.23433 41.2289C6.98382 41.4287 6.85857 41.7196 6.85857 42.1014V44.319H6.03034ZM13.7451 44.3991C13.2645 44.3991 12.8325 44.3057 12.4491 44.1193C12.0708 43.9328 11.7717 43.6799 11.5518 43.3601C11.3371 43.0359 11.2297 42.6763 11.2297 42.2812C11.2297 41.9039 11.3345 41.562 11.5442 41.2555C11.7538 40.945 12.035 40.6983 12.3877 40.5163C12.7456 40.3343 13.1393 40.2434 13.5687 40.2434C13.993 40.2434 14.3816 40.3321 14.7344 40.5097C15.0871 40.6828 15.3683 40.918 15.5779 41.2156C15.7876 41.5132 15.8924 41.8507 15.8924 42.2281V42.5209H12.8862C12.7533 42.5209 12.6178 42.5164 12.4797 42.5076C12.3417 42.4987 12.2062 42.4854 12.0733 42.4677C12.1295 42.8229 12.3136 43.1205 12.6254 43.3601C12.9425 43.5997 13.3182 43.7197 13.7528 43.7197C14.0442 43.7197 14.3152 43.6622 14.5657 43.5466C14.8162 43.431 15.0181 43.2778 15.1715 43.0869L15.4016 43.9062C15.1817 44.0617 14.9286 44.1835 14.6423 44.2725C14.3612 44.3567 14.0621 44.3991 13.7451 44.3991ZM12.0503 41.9814C12.3264 41.9415 12.605 41.9216 12.8862 41.9216H14.4123C14.5248 41.9216 14.6347 41.926 14.742 41.9349C14.8545 41.9393 14.967 41.946 15.0794 41.9548C15.0079 41.6439 14.8289 41.3888 14.5427 41.189C14.2564 40.9849 13.9317 40.8826 13.5687 40.8826C13.1955 40.8826 12.8683 40.9915 12.5871 41.209C12.3059 41.422 12.127 41.6797 12.0503 41.9814ZM19.5249 44.319V38.3253H21.7872C22.4109 38.3253 22.9529 38.4143 23.413 38.5915C23.8783 38.7691 24.2617 39.0047 24.5633 39.2975C24.8649 39.5906 25.0899 39.9148 25.2382 40.27C25.3865 40.6208 25.4606 40.9716 25.4606 41.3223C25.4606 41.6731 25.3865 42.0261 25.2382 42.3813C25.0899 42.7317 24.8649 43.0537 24.5633 43.3468C24.2617 43.6396 23.8783 43.8752 23.413 44.0528C22.9529 44.2304 22.4109 44.319 21.7872 44.319H19.5249ZM20.3992 43.6396H21.6952C22.2269 43.6396 22.6743 43.5687 23.0372 43.4266C23.4002 43.28 23.6942 43.0913 23.9192 42.8605C24.1441 42.6253 24.3051 42.3721 24.4023 42.1014C24.5045 41.8304 24.5557 41.5708 24.5557 41.3223C24.5557 41.0735 24.5045 40.8139 24.4023 40.5429C24.3051 40.2722 24.1441 40.0212 23.9192 39.7904C23.6942 39.5552 23.4002 39.3665 23.0372 39.2244C22.6743 39.0778 22.2269 39.0047 21.6952 39.0047H20.3992V43.6396ZM26.6605 44.319V40.3232H27.4887V44.319H26.6605ZM27.0746 39.6039C26.9212 39.6039 26.7909 39.5574 26.6835 39.464C26.5761 39.371 26.5225 39.2576 26.5225 39.1243C26.5225 38.9869 26.5761 38.8736 26.6835 38.785C26.7909 38.6916 26.9212 38.645 27.0746 38.645C27.2331 38.645 27.3635 38.6916 27.4657 38.785C27.5731 38.8736 27.6268 38.9869 27.6268 39.1243C27.6268 39.2576 27.5731 39.371 27.4657 39.464C27.3635 39.5574 27.2331 39.6039 27.0746 39.6039ZM30.821 46.397C30.4683 46.397 30.1462 46.3527 29.8548 46.2637C29.5685 46.1751 29.3129 46.0529 29.0879 45.8975L29.318 45.0848C29.4713 45.2761 29.6758 45.4311 29.9314 45.5511C30.1871 45.6711 30.4811 45.731 30.8134 45.731C31.3297 45.731 31.7464 45.5954 32.0634 45.3248C32.3855 45.0538 32.5465 44.7052 32.5465 44.2791V43.7929C32.342 43.9705 32.0992 44.1126 31.818 44.2193C31.5419 44.3212 31.2454 44.3726 30.9284 44.3726C30.5092 44.3726 30.1257 44.2813 29.7781 44.0993C29.4304 43.9129 29.1518 43.6644 28.9422 43.3535C28.7377 43.0426 28.6354 42.6985 28.6354 42.3211C28.6354 41.9438 28.7377 41.5996 28.9422 41.2887C29.1518 40.9782 29.4304 40.7316 29.7781 40.5495C30.1257 40.3631 30.5092 40.27 30.9284 40.27C31.2454 40.27 31.5419 40.321 31.818 40.4233C32.0992 40.5252 32.342 40.6673 32.5465 40.8494V40.3232H33.3134V44.319C33.3134 44.7543 33.1958 45.1273 32.9606 45.4378C32.7305 45.7487 32.4263 45.9861 32.048 46.1504C31.6697 46.3147 31.2607 46.397 30.821 46.397ZM31.0358 43.7197C31.3272 43.7197 31.5905 43.6577 31.8257 43.5333C32.0659 43.4044 32.2551 43.2357 32.3931 43.0271C32.5363 42.814 32.6078 42.5788 32.6078 42.3211C32.6078 42.0638 32.5363 41.8304 32.3931 41.6218C32.2551 41.4087 32.0659 41.24 31.8257 41.1156C31.5905 40.9871 31.3272 40.9225 31.0358 40.9225C30.7443 40.9225 30.4785 40.9871 30.2382 41.1156C30.003 41.24 29.8139 41.4087 29.6707 41.6218C29.5327 41.8304 29.4637 42.0638 29.4637 42.3211C29.4637 42.5788 29.5327 42.814 29.6707 43.0271C29.8139 43.2357 30.003 43.4044 30.2382 43.5333C30.4785 43.6577 30.7443 43.7197 31.0358 43.7197ZM34.781 44.319V40.3232H35.6092V44.319H34.781ZM35.1951 39.6039C35.0417 39.6039 34.9114 39.5574 34.804 39.464C34.6966 39.371 34.643 39.2576 34.643 39.1243C34.643 38.9869 34.6966 38.8736 34.804 38.785C34.9114 38.6916 35.0417 38.645 35.1951 38.645C35.3536 38.645 35.4839 38.6916 35.5862 38.785C35.6936 38.8736 35.7473 38.9869 35.7473 39.1243C35.7473 39.2576 35.6936 39.371 35.5862 39.464C35.4839 39.5574 35.3536 39.6039 35.1951 39.6039ZM37.6148 44.319V40.9225H36.5719V40.3232H37.6379V38.9914H38.42V40.3232H39.5627V40.9225H38.443V44.319H37.6148ZM42.2734 44.3726C41.8541 44.3726 41.4707 44.2813 41.1231 44.0993C40.7754 43.9129 40.4968 43.6644 40.2871 43.3535C40.0827 43.0426 39.9804 42.6985 39.9804 42.3211C39.9804 41.9438 40.0827 41.5996 40.2871 41.2887C40.4968 40.9782 40.7754 40.7316 41.1231 40.5495C41.4707 40.3631 41.8541 40.27 42.2734 40.27C42.5905 40.27 42.8868 40.321 43.1628 40.4233C43.4442 40.5252 43.687 40.6673 43.8915 40.8494V40.3232H44.6585V44.319H43.8915V43.7929C43.687 43.9705 43.4442 44.1126 43.1628 44.2193C42.8868 44.3212 42.5905 44.3726 42.2734 44.3726ZM42.3807 43.7197C42.6721 43.7197 42.9353 43.6577 43.1704 43.5333C43.4111 43.4044 43.5998 43.2357 43.738 43.0271C43.8813 42.814 43.9527 42.5788 43.9527 42.3211C43.9527 42.0638 43.8813 41.8304 43.738 41.6218C43.5998 41.4087 43.4111 41.24 43.1704 41.1156C42.9353 40.9871 42.6721 40.9225 42.3807 40.9225C42.0893 40.9225 41.8234 40.9871 41.5832 41.1156C41.348 41.24 41.1588 41.4087 41.0157 41.6218C40.8777 41.8304 40.8087 42.0638 40.8087 42.3211C40.8087 42.5788 40.8777 42.814 41.0157 43.0271C41.1588 43.2357 41.348 43.4044 41.5832 43.5333C41.8234 43.6577 42.0893 43.7197 42.3807 43.7197ZM46.1258 44.319V37.9258H46.954V44.319H46.1258ZM52.7368 44.5188L50.076 38.3253H50.9655L52.5297 41.9216C52.5862 42.046 52.6322 42.1657 52.6679 42.2812C52.7036 42.3924 52.7419 42.5253 52.7831 42.6807C52.8239 42.5253 52.8622 42.3924 52.8979 42.2812C52.9387 42.1657 52.9851 42.046 53.0361 41.9216L54.6156 38.1255L56.1879 41.9216C56.2338 42.0327 56.2771 42.1457 56.3184 42.2613C56.3643 42.3721 56.4051 42.512 56.4408 42.6807C56.4817 42.512 56.5229 42.3721 56.5637 42.2613C56.6045 42.1457 56.6504 42.0327 56.7015 41.9216L58.2661 38.3253H59.0943L56.4408 44.5188L54.846 40.6297C54.7997 40.5141 54.7563 40.4033 54.7155 40.2966C54.6747 40.1855 54.6334 40.0459 54.5926 39.8772C54.5518 40.0459 54.511 40.1855 54.4702 40.2966C54.4294 40.4033 54.3856 40.5141 54.3396 40.6297L52.7368 44.5188ZM61.3299 44.3991C60.8851 44.3991 60.4787 44.3057 60.1105 44.1193C59.7427 43.9328 59.4485 43.6821 59.2287 43.3668C59.014 43.0514 58.9068 42.7029 58.9068 42.3211C58.9068 41.9349 59.014 41.5863 59.2287 41.2754C59.4485 40.9605 59.7427 40.7094 60.1105 40.5229C60.4787 40.3365 60.8851 40.2434 61.3299 40.2434C61.7797 40.2434 62.1862 40.3365 62.5493 40.5229C62.9174 40.7094 63.2087 40.9605 63.4234 41.2754C63.6432 41.5863 63.7533 41.9349 63.7533 42.3211C63.7533 42.7029 63.6432 43.0514 63.4234 43.3668C63.2087 43.6821 62.9174 43.9328 62.5493 44.1193C62.1862 44.3057 61.7797 44.3991 61.3299 44.3991ZM61.3299 43.7197C61.6266 43.7197 61.8949 43.6577 62.1351 43.5333C62.3754 43.4044 62.5671 43.2357 62.7104 43.0271C62.8537 42.814 62.9251 42.5788 62.9251 42.3211C62.9251 42.0638 62.8537 41.8304 62.7104 41.6218C62.5671 41.4087 62.3754 41.24 62.1351 41.1156C61.8949 40.9871 61.6266 40.9225 61.3299 40.9225C61.0335 40.9225 60.7652 40.9871 60.5246 41.1156C60.2844 41.24 60.0926 41.4087 59.9498 41.6218C59.8065 41.8304 59.7351 42.0638 59.7351 42.3211C59.7351 42.5788 59.8065 42.814 59.9498 43.0271C60.0926 43.2357 60.2844 43.4044 60.5246 43.5333C60.7652 43.6577 61.0335 43.7197 61.3299 43.7197ZM64.9013 44.319V40.3232H65.6683V41.0557C65.8316 40.8205 66.0488 40.6341 66.3201 40.4964C66.5909 40.3542 66.9132 40.2833 67.2861 40.2833L67.4931 41.0026C67.3962 40.976 67.2835 40.9627 67.156 40.9627C66.7265 40.9627 66.3813 41.0823 66.1207 41.3223C65.8596 41.5575 65.7295 41.895 65.7295 42.3344V44.319H64.9013ZM71.3507 44.319L69.2725 42.1214L70.9825 40.3232H71.9413L70.2618 42.0682L72.4013 44.319H71.3507ZM68.352 44.319V37.9258H69.1802V44.319H68.352ZM75.0748 44.3991C74.5943 44.3991 74.1623 44.3057 73.7788 44.1193C73.4004 43.9328 73.1015 43.6799 72.8817 43.3601C72.667 43.0359 72.5595 42.6763 72.5595 42.2812C72.5595 41.9039 72.6645 41.562 72.8741 41.2555C73.0837 40.945 73.3647 40.6983 73.7176 40.5163C74.0752 40.3343 74.4689 40.2434 74.8983 40.2434C75.3226 40.2434 75.7112 40.3321 76.0641 40.5097C76.417 40.6828 76.6981 40.918 76.9077 41.2156C77.1173 41.5132 77.2219 41.8507 77.2219 42.2281V42.5209H74.2159C74.0828 42.5209 73.9476 42.5164 73.8095 42.5076C73.6713 42.4987 73.5361 42.4854 73.403 42.4677C73.4591 42.8229 73.6432 43.1205 73.9553 43.3601C74.272 43.5997 74.6479 43.7197 75.0824 43.7197C75.3741 43.7197 75.6449 43.6622 75.8953 43.5466C76.1458 43.431 76.3477 43.2778 76.5012 43.0869L76.7312 43.9062C76.5114 44.0617 76.2584 44.1835 75.9719 44.2725C75.6908 44.3567 75.3919 44.3991 75.0748 44.3991ZM73.38 41.9814C73.656 41.9415 73.9349 41.9216 74.2159 41.9216H75.7419C75.8545 41.9216 75.9642 41.926 76.0718 41.9349C76.184 41.9393 76.2967 41.946 76.4094 41.9548C76.3375 41.6439 76.1585 41.3888 75.8724 41.189C75.5862 40.9849 75.2614 40.8826 74.8983 40.8826C74.525 40.8826 74.1981 40.9915 73.917 41.209C73.6356 41.422 73.4566 41.6797 73.38 41.9814ZM78.3277 44.319V40.3232H79.0943V41.0557C79.258 40.8205 79.4753 40.6341 79.7461 40.4964C80.0174 40.3542 80.3392 40.2833 80.7125 40.2833L80.9196 41.0026C80.8226 40.976 80.71 40.9627 80.582 40.9627C80.1526 40.9627 79.8078 41.0823 79.5467 41.3223C79.2861 41.5575 79.156 41.895 79.156 42.3344V44.319H78.3277ZM83.4774 44.319L86.3992 38.1255H86.4145L89.3362 44.319H88.4085L87.5956 42.5408H85.1798L84.3592 44.319H83.4774ZM85.4715 41.9083H87.3039L86.7597 40.7227C86.693 40.5717 86.6292 40.4233 86.568 40.2767C86.5067 40.1301 86.4451 39.9547 86.3839 39.7505C86.3226 39.9547 86.2635 40.1301 86.2074 40.2767C86.1513 40.4188 86.0875 40.5673 86.0157 40.7227L85.4715 41.9083ZM92.102 44.3991C91.6521 44.3991 91.2431 44.3057 90.8749 44.1193C90.5067 43.9328 90.2129 43.6821 89.9931 43.3668C89.7733 43.0514 89.6632 42.7029 89.6632 42.3211C89.6632 41.9393 89.7733 41.5908 89.9931 41.2754C90.2129 40.9605 90.5067 40.7094 90.8749 40.5229C91.2431 40.3365 91.6521 40.2434 92.102 40.2434C92.434 40.2434 92.7461 40.2944 93.0373 40.3967C93.329 40.4986 93.5845 40.6341 93.8044 40.8028L93.5514 41.7085C93.4234 41.4866 93.2291 41.3002 92.9685 41.1492C92.7129 40.9981 92.4213 40.9225 92.0943 40.9225C91.7976 40.9225 91.5267 40.9871 91.2814 41.1156C91.0412 41.24 90.8494 41.4087 90.7061 41.6218C90.5629 41.8304 90.4914 42.0638 90.4914 42.3211C90.4914 42.5744 90.5629 42.8074 90.7061 43.0204C90.8494 43.2335 91.0412 43.4044 91.2814 43.5333C91.5267 43.6577 91.7976 43.7197 92.0943 43.7197C92.4213 43.7197 92.7129 43.6466 92.9685 43.5001C93.2291 43.3535 93.4234 43.1648 93.5514 42.934L93.8044 43.8397C93.5845 44.0085 93.329 44.1436 93.0373 44.2459C92.7461 44.3478 92.434 44.3991 92.102 44.3991ZM96.7873 44.3726C96.3681 44.3726 95.9846 44.2813 95.6373 44.0993C95.2895 43.9129 95.011 43.6644 94.8014 43.3535C94.5969 43.0426 94.4944 42.6985 94.4944 42.3211C94.4944 41.9438 94.5969 41.5996 94.8014 41.2887C95.011 40.9782 95.2895 40.7316 95.6373 40.5495C95.9846 40.3631 96.3681 40.27 96.7873 40.27C97.1045 40.27 97.4009 40.321 97.6772 40.4233C97.9583 40.5252 98.201 40.6673 98.4055 40.8494V40.3232H99.1725V44.319H98.4055V43.7929C98.201 43.9705 97.9583 44.1126 97.6772 44.2193C97.4009 44.3212 97.1045 44.3726 96.7873 44.3726ZM96.8949 43.7197C97.1862 43.7197 97.4493 43.6577 97.6849 43.5333C97.9251 43.4044 98.1143 43.2357 98.2521 43.0271C98.3953 42.814 98.4668 42.5788 98.4668 42.3211C98.4668 42.0638 98.3953 41.8304 98.2521 41.6218C98.1143 41.4087 97.9251 41.24 97.6849 41.1156C97.4493 40.9871 97.1862 40.9225 96.8949 40.9225C96.6032 40.9225 96.3375 40.9871 96.0973 41.1156C95.8622 41.24 95.673 41.4087 95.5297 41.6218C95.3919 41.8304 95.3226 42.0638 95.3226 42.3211C95.3226 42.5788 95.3919 42.814 95.5297 43.0271C95.673 43.2357 95.8622 43.4044 96.0973 43.5333C96.3375 43.6577 96.6032 43.7197 96.8949 43.7197ZM102.611 44.3726C102.192 44.3726 101.808 44.2813 101.461 44.0993C101.113 43.9129 100.835 43.6644 100.625 43.3535C100.42 43.0426 100.318 42.6985 100.318 42.3211C100.318 41.9438 100.42 41.5996 100.625 41.2887C100.835 40.9782 101.113 40.7316 101.461 40.5495C101.808 40.3631 102.192 40.27 102.611 40.27C102.913 40.27 103.196 40.3165 103.462 40.41C103.728 40.503 103.963 40.6319 104.168 40.7962V37.9258H104.996V44.319H104.229V43.7929C104.025 43.9705 103.782 44.1126 103.5 44.2193C103.224 44.3212 102.928 44.3726 102.611 44.3726ZM102.718 43.7197C103.01 43.7197 103.273 43.6577 103.508 43.5333C103.749 43.4044 103.937 43.2357 104.076 43.0271C104.219 42.814 104.29 42.5788 104.29 42.3211C104.29 42.0638 104.219 41.8304 104.076 41.6218C103.937 41.4087 103.749 41.24 103.508 41.1156C103.273 40.9871 103.01 40.9225 102.718 40.9225C102.427 40.9225 102.161 40.9871 101.921 41.1156C101.686 41.24 101.497 41.4087 101.353 41.6218C101.215 41.8304 101.146 42.0638 101.146 42.3211C101.146 42.5788 101.215 42.814 101.353 43.0271C101.497 43.2357 101.686 43.4044 101.921 43.5333C102.161 43.6577 102.427 43.7197 102.718 43.7197ZM108.657 44.3991C108.176 44.3991 107.744 44.3057 107.361 44.1193C106.982 43.9328 106.683 43.6799 106.463 43.3601C106.249 43.0359 106.142 42.6763 106.142 42.2812C106.142 41.9039 106.246 41.562 106.456 41.2555C106.665 40.945 106.947 40.6983 107.299 40.5163C107.657 40.3343 108.051 40.2434 108.48 40.2434C108.905 40.2434 109.293 40.3321 109.646 40.5097C109.999 40.6828 110.28 40.918 110.49 41.2156C110.699 41.5132 110.804 41.8507 110.804 42.2281V42.5209H107.798C107.665 42.5209 107.529 42.5164 107.392 42.5076C107.253 42.4987 107.118 42.4854 106.985 42.4677C107.041 42.8229 107.225 43.1205 107.537 43.3601C107.854 43.5997 108.23 43.7197 108.664 43.7197C108.956 43.7197 109.227 43.6622 109.477 43.5466C109.728 43.431 109.93 43.2778 110.083 43.0869L110.313 43.9062C110.093 44.0617 109.84 44.1835 109.554 44.2725C109.273 44.3567 108.974 44.3991 108.657 44.3991ZM106.962 41.9814C107.238 41.9415 107.517 41.9216 107.798 41.9216H109.324C109.437 41.9216 109.546 41.926 109.654 41.9349C109.766 41.9393 109.879 41.946 109.991 41.9548C109.92 41.6439 109.741 41.3888 109.454 41.189C109.168 40.9849 108.843 40.8826 108.48 40.8826C108.107 40.8826 107.78 40.9915 107.499 41.209C107.218 41.422 107.039 41.6797 106.962 41.9814ZM111.909 44.319V40.3232H112.676V40.8959C112.845 40.6784 113.057 40.5163 113.313 40.41C113.573 40.2988 113.847 40.2434 114.133 40.2434C114.446 40.2434 114.732 40.3077 114.992 40.4365C115.253 40.5606 115.463 40.736 115.621 40.9627C115.8 40.7227 116.03 40.5429 116.312 40.4233C116.598 40.3033 116.899 40.2434 117.216 40.2434C117.564 40.2434 117.881 40.3143 118.167 40.4565C118.459 40.5986 118.689 40.7984 118.857 41.0557C119.031 41.309 119.118 41.6085 119.118 41.9548V44.319H118.29V42.0416C118.29 41.6775 118.17 41.4021 117.929 41.2156C117.694 41.0247 117.421 40.9291 117.109 40.9291C116.915 40.9291 116.726 40.9671 116.542 41.0425C116.363 41.1181 116.214 41.2356 116.097 41.3954C115.984 41.5553 115.928 41.7639 115.928 42.0217V44.319H115.1V42.0416C115.1 41.7883 115.041 41.5797 114.923 41.4154C114.811 41.2511 114.663 41.1292 114.479 41.0491C114.3 40.9649 114.113 40.9225 113.919 40.9225C113.73 40.9225 113.543 40.9605 113.359 41.0358C113.18 41.1111 113.032 41.2289 112.914 41.3888C112.797 41.5487 112.738 41.7595 112.738 42.0217V44.319H111.909ZM120.076 46.3169L121.571 43.733L119.623 40.3232H120.559L121.54 42.0549C121.627 42.2103 121.712 42.3632 121.793 42.5142C121.875 42.6652 121.957 42.8473 122.039 43.0603C122.126 42.8473 122.207 42.6652 122.284 42.5142C122.366 42.3588 122.453 42.2059 122.545 42.0549L123.542 40.3232H124.424L120.973 46.3169H120.076Z" fill="#008080"/>
</g>
</svg>
