<svg width="24" height="25" viewBox="0 0 24 25" fill="none" xmlns="http://www.w3.org/2000/svg">
<g id="Frame">
<g id="Vector">
<path fill-rule="evenodd" clip-rule="evenodd" d="M7.08816 11.5847L8.55504 7.18406H10.4524L11.9193 11.5847L16.32 13.0516V14.949L11.9193 16.4159L10.4524 20.8165H8.55504L7.08816 16.4159L2.6875 14.949V13.0516L7.08816 11.5847ZM9.50373 10.6626L8.82741 12.6915L8.19496 13.324L6.16601 14.0003L8.19496 14.6766L8.82741 15.3091L9.50373 17.338L10.18 15.3091L10.8125 14.6766L12.8415 14.0003L10.8125 13.324L10.18 12.6915L9.50373 10.6626Z" fill="white"/>
<path fill-rule="evenodd" clip-rule="evenodd" d="M16.1544 5.65094L16.9345 3.31055H18.0729L18.8531 5.65094L21.1935 6.43107V7.56949L18.8531 8.34963L18.0729 10.69H16.9345L16.1544 8.34963L13.814 7.56949V6.43107L16.1544 5.65094Z" fill="white"/>
</g>
</g>
</svg>
