<svg width="117" height="48" viewBox="0 0 117 48" fill="none" xmlns="http://www.w3.org/2000/svg">
<g clip-path="url(#clip0_10223_14407)">
<path d="M37.848 21.4076C37.848 19.346 35.7864 17.1469 32.3504 17.1469C28.502 17.1469 24.1039 20.0332 23.4167 25.8057C22.7295 31.5782 26.303 34.1896 30.0139 34.1896C33.7248 34.1896 35.5115 32.8152 37.4357 30.891C35.7864 28.8294 33.5873 29.7915 33.175 29.9289C32.7627 30.2038 32.0755 30.4787 30.976 30.4787C29.6016 30.4787 28.0897 29.7915 28.0897 27.1801C37.1608 26.218 37.848 23.4692 37.848 21.4076ZM33.4499 21.6825C33.4499 22.3697 33.175 23.4692 28.6395 24.019C29.6016 20.5829 31.3883 20.3081 32.2129 20.3081C33.0376 20.4455 33.4499 20.9953 33.4499 21.6825ZM18.194 22.2322C18.194 22.2322 16.2698 28.2796 16.1324 28.8294C16.1324 28.2796 14.6205 17.4218 14.6205 17.4218C11.3219 17.4218 9.53521 19.7583 8.71057 22.2322C8.71057 22.2322 6.37407 28.2796 6.23663 28.8294C6.09919 28.4171 5.82431 22.3697 5.82431 22.3697C5.54943 19.346 2.80061 17.4218 0.601562 17.4218L3.35038 33.9147C6.7864 33.9147 8.71057 31.5782 9.67265 29.1043C9.67265 29.1043 11.7343 23.7441 11.8717 23.4692C11.8717 23.7441 13.3836 33.9147 13.3836 33.9147C16.8196 33.9147 18.7437 31.7156 19.7058 29.3791L24.5163 17.4218C20.9428 17.4218 19.1561 19.7583 18.194 22.2322ZM50.63 17.0095C48.5684 17.0095 46.9191 18.109 45.5447 19.8957L46.6442 10C43.758 10 41.5589 12.4739 41.0091 16.0474L38.8101 33.7772C40.4594 33.7772 42.1087 33.3649 43.0708 32.128C43.8954 33.2275 45.1324 34.0521 46.9191 34.0521C51.7295 34.0521 55.0281 28.5545 55.0281 23.3318C55.1655 18.5213 52.8291 17.0095 50.63 17.0095ZM50.0802 25.5308C49.5305 28.4171 48.0186 30.3412 46.3693 30.3412C44.8575 30.3412 44.1703 29.654 44.1703 29.654C44.4452 27.1801 44.72 25.5308 45.2698 24.1564C45.8196 22.782 47.194 20.7204 48.5684 20.7204C49.9428 20.8578 50.63 22.6446 50.0802 25.5308ZM67.1229 17.4218H63.8243V17.2844C64.0992 15.0853 64.5115 13.9858 66.2982 13.8483C67.3978 13.7109 67.9475 13.1611 68.085 12.4739C68.2224 11.9242 68.4973 10.1374 68.4973 10.1374C61.7627 10.1374 59.7011 13.0237 59.1513 17.4218V17.5592H59.0139C57.9144 17.5592 56.6774 18.7962 56.54 20.3081L56.4025 20.8578H58.6016L56.6774 36.2512L56.1276 39C56.2651 39 56.2651 39 56.4025 39C59.5636 38.8626 61.4878 36.3886 62.0376 32.8152L63.5494 20.7204H64.6489C65.611 20.7204 66.848 19.7583 67.1229 17.9716V17.4218ZM84.4404 17.1469C80.5921 17.1469 77.0186 20.0332 75.9191 24.4313C74.8196 28.8294 76.4689 34.1896 82.1039 34.1896C87.739 34.1896 91.0376 28.6919 91.0376 24.1564C90.9001 19.6209 87.8764 17.1469 84.4404 17.1469ZM85.9523 25.3934C85.8148 27.455 84.8527 30.4787 82.3788 30.4787C79.9049 30.4787 80.3172 26.9052 80.4546 25.2559C80.7295 23.4692 81.6916 20.8578 83.8907 20.8578C85.9523 20.8578 86.2271 23.1943 85.9523 25.3934ZM110.004 22.2322C110.004 22.2322 108.08 28.2796 107.943 28.8294C107.943 28.2796 106.431 17.4218 106.431 17.4218C103.132 17.4218 101.346 19.7583 100.521 22.2322C100.521 22.2322 98.1845 28.2796 98.0471 28.8294C98.0471 28.4171 97.6347 22.3697 97.6347 22.3697C97.4973 19.346 94.611 17.5592 92.412 17.5592L95.1608 34.0521C98.5968 34.0521 100.521 31.7156 101.483 29.2417C101.483 29.2417 103.545 23.8815 103.682 23.6066C103.682 23.8815 105.194 34.0521 105.194 34.0521C108.63 34.0521 110.554 31.8531 111.516 29.5166L116.052 17.4218C112.616 17.4218 110.829 19.7583 110.004 22.2322ZM70.284 10.1374L67.5352 32.6777L66.9855 35.4265C67.1229 35.4265 67.1229 35.4265 67.2603 35.4265C70.284 35.4265 72.4831 32.6777 72.758 29.3791L74.4072 16.4597C74.8196 12.6114 72.3456 10.1374 70.284 10.1374Z" fill="#1B1B1B"/>
</g>
<defs>
<clipPath id="clip0_10223_14407">
<rect width="116" height="48" fill="white" transform="translate(0.601562)"/>
</clipPath>
</defs>
</svg>
