<svg width="122" height="48" viewBox="0 0 122 48" fill="none" xmlns="http://www.w3.org/2000/svg">
<g clip-path="url(#clip0_10223_14405)">
<path d="M38.7193 32.4284L40.1874 28.9969C41.7948 30.1874 43.8915 30.8174 45.9887 30.8174C47.5265 30.8174 48.5049 30.2225 48.5049 29.3122C48.4698 26.791 39.2435 28.7518 39.1734 22.4132C39.1383 19.1918 42.0043 16.7057 46.0588 16.7057C48.4698 16.7057 50.8817 17.3011 52.5939 18.667L51.2221 22.1716C49.6467 21.1586 47.7009 20.4524 45.8488 20.4524C44.5907 20.4524 43.7517 21.0474 43.7517 21.8183C43.7867 24.3044 53.0836 22.9385 53.1884 28.9969C53.1884 32.2886 50.392 34.5998 46.4077 34.5998C43.4725 34.5998 40.7813 33.8995 38.7188 32.4284H38.7193ZM97.1773 27.7544C96.8067 28.4128 96.2677 28.9609 95.6154 29.3422C94.9632 29.7236 94.2212 29.9247 93.4656 29.9247C91.1108 29.9247 89.2021 28.012 89.2021 25.6527C89.2021 23.2934 91.1108 21.3807 93.4656 21.3807C94.2212 21.3807 94.9632 21.5818 95.6154 21.9632C96.2677 22.3446 96.8067 22.8926 97.1773 23.551L101.259 21.2854C99.7301 18.5532 96.8139 16.7057 93.4656 16.7057C88.534 16.7057 84.5361 20.711 84.5361 25.6527C84.5361 30.5939 88.534 34.5998 93.4656 34.5998C96.8139 34.5998 99.7301 32.7522 101.259 30.02L97.1773 27.7544ZM55.8369 34.2494H60.9395V9.25781H55.8374L55.8369 34.2494ZM103.836 9.25781V34.2494H108.938V26.7619L114.985 34.2494H121.507L113.818 25.3545L120.947 17.0545H114.705L108.938 23.955V9.25781H103.836ZM76.6597 17.0555V19.087C75.8212 17.6861 73.7591 16.7057 71.5922 16.7057C67.1187 16.7057 63.589 20.6629 63.589 25.6352C63.589 30.6074 67.1187 34.5998 71.5922 34.5998C73.7591 34.5998 75.8212 33.6193 76.6597 32.2184V34.2494H81.7623V17.0555H76.6597ZM76.6597 27.789C75.9259 29.0145 74.3881 29.9242 72.6759 29.9242C70.3206 29.9242 68.4119 28.012 68.4119 25.6527C68.4119 23.2934 70.3206 21.3807 72.6759 21.3807C74.3881 21.3807 75.9259 22.326 76.6597 23.5861V27.789Z" fill="black"/>
<path d="M11.7749 8.70312C10.1214 8.70312 8.78105 10.0464 8.78105 11.703C8.78065 12.0966 8.85778 12.4864 9.00802 12.8501C9.15826 13.2139 9.37868 13.5444 9.65669 13.823C9.93469 14.1016 10.2648 14.3227 10.6283 14.4736C10.9917 14.6246 11.3814 14.7025 11.7749 14.7029H14.7693V11.703C14.77 10.9081 14.4549 10.1456 13.8933 9.58299C13.3318 9.02041 12.5698 8.70392 11.7749 8.70312ZM11.7749 16.7028H3.79075C2.13718 16.7028 0.796875 18.0461 0.796875 19.7032C0.796875 21.3598 2.13718 22.7031 3.79075 22.7031H11.7754C13.4285 22.7031 14.7693 21.3598 14.7693 19.7032C14.7693 18.0461 13.4285 16.7028 11.7749 16.7028Z" fill="#36C5F0"/>
<path d="M30.7381 19.7032C30.7381 18.0461 29.3972 16.7028 27.7437 16.7028C26.0901 16.7028 24.7498 18.0461 24.7498 19.7032V22.7031H27.7437C28.5385 22.7023 29.3005 22.3858 29.8621 21.8233C30.4236 21.2607 30.7387 20.4981 30.7381 19.7032ZM22.7539 19.7032V11.703C22.7545 10.9081 22.4395 10.1456 21.8779 9.58299C21.3164 9.02041 20.5544 8.70392 19.7595 8.70312C18.1059 8.70312 16.7656 10.0464 16.7656 11.703V19.7027C16.7656 21.3603 18.1059 22.7036 19.7595 22.7036C20.5544 22.7028 21.3164 22.3863 21.8779 21.8238C22.4395 21.2612 22.7545 20.4986 22.7539 19.7037" fill="#2EB67D"/>
<path d="M19.7595 38.7031C20.5544 38.7023 21.3164 38.3858 21.8779 37.8233C22.4395 37.2607 22.7545 36.4981 22.7539 35.7032C22.7545 34.9084 22.4395 34.1458 21.8779 33.5832C21.3164 33.0206 20.5544 32.7041 19.7595 32.7033H16.7656V35.7032C16.7656 37.3598 18.1059 38.7031 19.7595 38.7031ZM19.7595 30.7034H27.7442C29.3973 30.7034 30.7381 29.3601 30.7381 27.703C30.7387 26.9081 30.4236 26.1456 29.8621 25.583C29.3005 25.0204 28.5385 24.7039 27.7437 24.7031H19.7595C18.1059 24.7031 16.7656 26.0464 16.7656 27.703C16.7652 28.0966 16.8424 28.4864 16.9926 28.8501C17.1428 29.2139 17.3633 29.5444 17.6413 29.823C17.9193 30.1016 18.2494 30.3227 18.6129 30.4736C18.9763 30.6246 19.3659 30.7025 19.7595 30.7029" fill="#ECB22E"/>
<path d="M0.796877 27.703C0.796481 28.0966 0.873607 28.4864 1.02385 28.8501C1.17409 29.2139 1.39451 29.5444 1.67252 29.823C1.95052 30.1016 2.28068 30.3227 2.64412 30.4736C3.00757 30.6246 3.3972 30.7025 3.79075 30.7029C4.58562 30.7021 5.34763 30.3856 5.90917 29.823C6.47071 29.2605 6.7858 28.4979 6.78513 27.703V24.7031H3.79075C2.13718 24.7031 0.796877 26.0464 0.796877 27.703ZM8.78105 27.703V35.7027C8.78105 37.3598 10.1214 38.7031 11.7749 38.7031C12.5698 38.7023 13.3318 38.3858 13.8933 37.8233C14.4549 37.2607 14.77 36.4981 14.7693 35.7032V27.703C14.7697 27.3094 14.6926 26.9196 14.5423 26.5558C14.392 26.192 14.1715 25.8614 13.8935 25.5828C13.6154 25.3043 13.2852 25.0832 12.9217 24.9323C12.5582 24.7813 12.1685 24.7035 11.7749 24.7031C10.1214 24.7031 8.78105 26.0464 8.78105 27.703Z" fill="#E01E5A"/>
</g>
<defs>
<clipPath id="clip0_10223_14405">
<rect width="121" height="48" fill="white" transform="translate(0.796875)"/>
</clipPath>
</defs>
</svg>
