<svg width="141" height="48" viewBox="0 0 141 48" fill="none" xmlns="http://www.w3.org/2000/svg">
<g clip-path="url(#clip0_10223_14404)">
<path d="M21.4691 3.07812C9.87119 3.07812 0.46875 12.4803 0.46875 24.0783C0.46875 35.6767 9.87119 45.0781 21.4691 45.0781C33.0683 45.0781 42.4698 35.6767 42.4698 24.0783C42.4698 12.4811 33.0683 3.07913 21.4689 3.07913L21.4691 3.07812ZM31.0998 33.3663C30.7236 33.9832 29.9161 34.1788 29.2992 33.8002C24.3686 30.7884 18.1615 30.1063 10.8515 31.7764C10.147 31.9369 9.44488 31.4956 9.28438 30.7909C9.12314 30.0862 9.56274 29.3841 10.2689 29.2236C18.2685 27.396 25.1304 28.1829 30.6659 31.5658C31.2828 31.9445 31.4784 32.7494 31.0998 33.3663ZM33.6702 27.6482C33.1962 28.4186 32.1881 28.6619 31.4183 28.1879C25.7734 24.7182 17.1686 23.7134 10.4918 25.7401C9.62593 26.0017 8.71137 25.5137 8.44856 24.6493C8.18776 23.7833 8.67601 22.8705 9.54042 22.6072C17.1671 20.2931 26.6486 21.4141 33.131 25.3976C33.9009 25.8715 34.1441 26.8796 33.6702 27.6485V27.6482ZM33.8909 21.6939C27.1225 17.6738 15.9557 17.3042 9.49353 19.2654C8.45583 19.5802 7.35845 18.9944 7.04399 17.9567C6.72952 16.9185 7.31482 15.8218 8.35327 15.5064C15.7713 13.2544 28.1031 13.6895 35.8955 18.3155C36.8309 18.8695 37.1369 20.0749 36.5826 21.0071C36.031 21.9404 34.8222 22.2481 33.8919 21.6939H33.8909ZM57.6038 22.4643C53.9777 21.5996 53.3332 20.9928 53.3332 19.7176C53.3332 18.5129 54.4667 17.7021 56.1544 17.7021C57.7894 17.7021 59.4094 18.3178 61.1096 19.5852C61.1598 19.6235 61.225 19.6388 61.2877 19.6288C61.3529 19.6193 61.4081 19.5844 61.4457 19.532L63.2161 17.0363C63.2888 16.9335 63.2688 16.7918 63.171 16.7133C61.1473 15.0901 58.8702 14.3009 56.2071 14.3009C52.2925 14.3009 49.5566 16.6504 49.5566 20.012C49.5566 23.6168 51.9163 24.8933 55.9939 25.8785C59.4621 26.6777 60.0489 27.3473 60.0489 28.544C60.0489 29.8706 58.8652 30.6956 56.9594 30.6956C54.8428 30.6956 53.115 29.9809 51.1841 28.3108C51.1364 28.2681 51.0712 28.2506 51.0111 28.2531C50.9459 28.2581 50.8882 28.2882 50.8481 28.3359L48.8619 30.6981C48.7792 30.7984 48.7892 30.9439 48.8845 31.0291C51.1314 33.0353 53.8949 34.0936 56.8791 34.0936C61.0971 34.0936 63.823 31.789 63.823 28.2205C63.8305 25.2095 62.0275 23.5419 57.6114 22.4675L57.6038 22.4643ZM73.3674 18.8883C71.5392 18.8883 70.0396 19.6085 68.8008 21.0843V19.4232C68.8008 19.292 68.6955 19.1852 68.5651 19.1852H65.3176C65.1872 19.1852 65.0819 19.292 65.0819 19.4232V37.8802C65.0819 38.0106 65.1872 38.1185 65.3176 38.1185H68.5651C68.6955 38.1185 68.8008 38.0106 68.8008 37.8802V32.0548C70.0396 33.4416 71.5392 34.1212 73.3674 34.1212C76.7653 34.1212 80.2059 31.5056 80.2059 26.5055C80.2109 21.5043 76.7703 18.888 73.3699 18.888L73.3674 18.8883ZM76.4293 26.5055C76.4293 29.0506 74.862 30.8285 72.6151 30.8285C70.3957 30.8285 68.7206 28.9703 68.7206 26.5055C68.7206 24.0404 70.3957 22.1827 72.6151 22.1827C74.8244 22.1824 76.4293 24 76.4293 26.5052V26.5055ZM89.0205 18.8883C84.6446 18.8883 81.2165 22.2576 81.2165 26.5599C81.2165 30.816 84.622 34.1487 88.9679 34.1487C93.3589 34.1487 96.797 30.7909 96.797 26.5055C96.797 22.2346 93.3815 18.8888 89.0205 18.8888V18.8883ZM89.0205 30.8536C86.6934 30.8536 84.938 28.9828 84.938 26.5042C84.938 24.0143 86.6332 22.2075 88.9679 22.2075C91.3101 22.2075 93.0755 24.0775 93.0755 26.5586C93.0755 29.048 91.3703 30.8536 89.0205 30.8536ZM106.141 19.1852H102.567V15.5325C102.567 15.4015 102.462 15.2947 102.332 15.2947H99.084C98.9536 15.2947 98.8458 15.4015 98.8458 15.5325V19.1852H97.286C97.1556 19.1852 97.0503 19.292 97.0503 19.4232V22.2135C97.0503 22.3444 97.1556 22.4515 97.286 22.4515H98.8458V29.6725C98.8458 32.5889 100.298 34.0685 103.164 34.0685C104.328 34.0685 105.293 33.8278 106.203 33.3112C106.279 33.271 106.324 33.1908 106.324 33.1055V30.4474C106.324 30.3671 106.281 30.2894 106.211 30.2467C106.141 30.2016 106.053 30.1991 105.98 30.2367C105.356 30.5502 104.751 30.6956 104.074 30.6956C103.034 30.6956 102.567 30.2217 102.567 29.1634V22.4527H106.141C106.271 22.4527 106.376 22.3459 106.376 22.2148V19.4247C106.381 19.2935 106.276 19.1867 106.143 19.1867L106.141 19.1852ZM118.589 19.1995V18.7509C118.589 17.431 119.096 16.8425 120.229 16.8425C120.906 16.8425 121.45 16.9769 122.06 17.18C122.135 17.2036 122.213 17.1918 122.273 17.1469C122.336 17.102 122.371 17.0301 122.371 16.9538V14.2179C122.371 14.1133 122.305 14.0208 122.203 13.99C121.561 13.7986 120.738 13.6023 119.504 13.6023C116.508 13.6023 114.92 15.291 114.92 18.484V19.1711H113.36C113.23 19.1711 113.122 19.278 113.122 19.4089V22.2135C113.122 22.3444 113.23 22.4515 113.36 22.4515H114.92V33.587C114.92 33.7199 115.028 33.8252 115.158 33.8252H118.403C118.536 33.8252 118.642 33.7199 118.642 33.587V22.4522H121.674L126.318 33.587C125.791 34.7556 125.272 34.9888 124.565 34.9888C123.993 34.9888 123.389 34.8183 122.774 34.4798C122.717 34.4497 122.647 34.4447 122.586 34.4622C122.524 34.4848 122.471 34.5299 122.446 34.5901L121.345 37.005C121.292 37.1204 121.338 37.2533 121.448 37.3135C122.596 37.9354 123.632 38.2012 124.914 38.2012C127.311 38.2012 128.637 37.0828 129.804 34.0785L135.436 19.5245C135.466 19.4513 135.456 19.3685 135.411 19.3036C135.368 19.2391 135.295 19.2002 135.218 19.2002H131.837C131.735 19.2002 131.644 19.2647 131.612 19.3597L128.148 29.2487L124.357 19.3532C124.322 19.2612 124.234 19.2002 124.136 19.2002H118.589V19.1995ZM111.372 19.1852H108.124C107.994 19.1852 107.886 19.292 107.886 19.4232V33.587C107.886 33.7199 107.994 33.8252 108.124 33.8252H111.372C111.502 33.8252 111.61 33.7199 111.61 33.587V19.4242C111.61 19.293 111.505 19.1862 111.372 19.1862V19.1852ZM109.767 12.7356C108.48 12.7356 107.437 13.7768 107.437 15.063C107.437 16.35 108.48 17.3924 109.767 17.3924C111.053 17.3924 112.094 16.35 112.094 15.063C112.094 13.7771 111.051 12.7356 109.767 12.7356ZM138.209 23.7395C136.925 23.7395 135.925 22.7075 135.925 21.4544C135.925 20.2013 136.938 19.1576 138.222 19.1576C139.506 19.1576 140.507 20.1893 140.507 21.4414C140.507 22.6945 139.493 23.7395 138.209 23.7395ZM138.222 19.3848C137.051 19.3848 136.166 20.3152 136.166 21.4544C136.166 22.5932 137.046 23.511 138.209 23.511C139.381 23.511 140.266 22.5814 140.266 21.4414C140.266 20.3026 139.386 19.3848 138.222 19.3848ZM138.729 21.6764L139.376 22.5811H138.829L138.247 21.7511H137.748V22.5811H137.292V20.1828H138.36C138.919 20.1828 139.285 20.4679 139.285 20.9479C139.288 21.3411 139.06 21.5813 138.731 21.6764H138.729ZM138.342 20.5943H137.748V21.3529H138.342C138.638 21.3529 138.816 21.2077 138.816 20.9732C138.816 20.7264 138.638 20.5943 138.342 20.5943Z" fill="#1ED760"/>
</g>
<defs>
<clipPath id="clip0_10223_14404">
<rect width="140" height="48" fill="white" transform="translate(0.398438)"/>
</clipPath>
</defs>
</svg>
