<svg width="164" height="48" viewBox="0 0 164 48" fill="none" xmlns="http://www.w3.org/2000/svg">
<g clip-path="url(#clip0_10223_14406)">
<path d="M45.25 14.0146H52.8721C57.7315 14.0146 61.7457 16.8261 61.7457 23.2456V24.5945C61.7457 31.0628 57.9915 33.9719 53.0184 33.9719H45.25V14.0146ZM49.508 17.6387V30.3315H52.7746C55.5375 30.3315 57.3902 28.5275 57.3902 24.5133V23.4569C57.3902 19.4427 55.4399 17.6387 52.6284 17.6387H49.508ZM64.0047 17.8338H67.4176L67.9702 21.5879C68.6202 19.0364 70.2779 17.6712 73.2845 17.6712H74.3409V21.978H72.5857C69.124 21.978 68.2789 23.1806 68.2789 26.5935V34.0207H64.0697V17.8338H64.0047ZM75.186 26.2522V25.7972C75.186 20.3853 78.6477 17.4275 83.3607 17.4275C88.1713 17.4275 91.5354 20.3853 91.5354 25.7972V26.2522C91.5354 31.5666 88.2688 34.427 83.3607 34.427C78.1439 34.3782 75.186 31.5829 75.186 26.2522ZM87.2287 26.2035V25.7972C87.2287 22.7906 85.7172 20.9866 83.312 20.9866C80.9554 20.9866 79.3952 22.6443 79.3952 25.7972V26.2035C79.3952 29.1126 80.9067 30.7703 83.312 30.7703C85.7172 30.7215 87.2287 29.1126 87.2287 26.2035ZM93.7457 17.8338H97.2561L97.6624 20.8891C98.5075 18.8414 100.311 17.4275 102.977 17.4275C107.089 17.4275 109.803 20.3853 109.803 25.8622V26.3173C109.803 31.6316 106.796 34.4432 102.977 34.4432C100.425 34.4432 98.67 33.2893 97.8087 31.4366V39.6113H93.6969L93.7457 17.8338ZM105.528 26.2035V25.8459C105.528 22.6281 103.871 21.0354 101.66 21.0354C99.3038 21.0354 97.7437 22.8393 97.7437 25.8459V26.1547C97.7437 29.0151 99.2551 30.819 101.612 30.819C104.033 30.7703 105.528 29.2263 105.528 26.2035ZM116.027 31.0303L115.67 33.9881H112.062V12.4219H116.173V20.6941C117.083 18.5813 118.887 17.4275 121.439 17.4275C125.307 17.4762 128.167 20.1415 128.167 25.5047V26.0085C128.167 31.3716 125.453 34.4432 121.341 34.4432C118.627 34.3782 116.872 33.1268 116.027 31.0303ZM123.844 26.0085V25.6022C123.844 22.6443 122.235 20.9866 119.976 20.9866C117.668 20.9866 116.06 22.8393 116.06 25.6509V26.0085C116.06 29.0151 117.62 30.7703 119.928 30.7703C122.398 30.7703 123.844 29.2263 123.844 26.0085ZM129.971 26.2522V25.7972C129.971 20.3853 133.433 17.4275 138.146 17.4275C142.956 17.4275 146.321 20.3853 146.321 25.7972V26.2522C146.321 31.5666 143.005 34.427 138.146 34.427C132.929 34.3782 129.971 31.5829 129.971 26.2522ZM142.046 26.2035V25.7972C142.046 22.7906 140.535 20.9866 138.13 20.9866C135.773 20.9866 134.213 22.6443 134.213 25.7972V26.2035C134.213 29.1126 135.724 30.7703 138.13 30.7703C140.551 30.7215 142.046 29.1126 142.046 26.2035ZM151.83 25.6022L146.158 17.8338H151.017L154.284 22.6931L157.599 17.8338H162.41L156.657 25.5534L162.719 33.9881H157.957L154.252 28.625L150.644 33.9881H145.671L151.83 25.6022Z" fill="black"/>
<path d="M19.0553 14.0132L9.62923 20.0264L19.0553 26.0396L9.62923 32.0528L0.203125 26.0071L9.62923 19.9939L0.203125 14.0132L9.62923 8L19.0553 14.0132ZM9.58047 33.9868L19.0066 27.9736L28.4327 33.9868L19.0066 40L9.58047 33.9868ZM19.0553 26.0071L28.4814 19.9939L19.0553 14.0132L28.4327 8L37.8588 14.0132L28.4327 20.0264L37.8588 26.0396L28.4327 32.0528L19.0553 26.0071Z" fill="#0061FF"/>
</g>
<defs>
<clipPath id="clip0_10223_14406">
<rect width="163" height="48" fill="white" transform="translate(0.203125)"/>
</clipPath>
</defs>
</svg>
