<svg width="40" height="41" viewBox="0 0 40 41" fill="none" xmlns="http://www.w3.org/2000/svg">
<path d="M24.9292 26.021C25.6625 22.6419 26.0458 19.646 26.0458 18.3918C26.0458 14.8835 23.1916 12.0293 19.6875 12.0293C16.1833 12.0293 13.3291 14.8835 13.3291 18.3918C13.3291 19.646 13.7124 22.6419 14.4457 26.0252C13.3582 26.496 12.3707 27.1585 11.5124 28.0127C9.71239 29.8085 8.7207 32.2044 8.7207 34.7502C8.7207 36.4668 10.1207 37.8668 11.8373 37.8668H12.6665L12.9499 39.0043C13.1249 39.7002 13.7499 40.1876 14.4665 40.1876H24.9082C25.6249 40.1876 26.2498 39.7001 26.4249 39.0043L26.7082 37.8668H27.5374C29.2541 37.8668 30.6541 36.4668 30.6541 34.7502C30.6542 30.9169 28.4167 27.5335 24.9292 26.021ZM16.325 18.6084C17.2417 18.4043 18.3125 17.9293 18.7875 16.5585C19.8625 17.4793 21.2166 18.121 23.0541 18.5918V21.2001C23.0541 23.0585 21.5417 24.5668 19.6875 24.5668C17.8333 24.5668 16.325 23.0585 16.325 21.2001V18.6084ZM20.9083 25.2169V26.2127C20.9083 26.8877 20.3625 27.4336 19.6875 27.4336C19.3624 27.4336 19.0541 27.3085 18.825 27.0752C18.5916 26.846 18.4666 26.5377 18.4666 26.2127V25.2169C18.8541 25.3336 19.2624 25.4002 19.6875 25.4002C20.1125 25.4002 20.5208 25.3335 20.9083 25.2169ZM19.6875 36.6585C18.8333 36.6585 18.1416 35.9668 18.1416 35.1169C18.1416 34.2627 18.8333 33.5669 19.6875 33.5669C20.5417 33.5669 21.2374 34.2628 21.2374 35.1169C21.2375 35.9668 20.5417 36.6585 19.6875 36.6585ZM27.5375 37.0335H26.9167L28.1792 31.9793C28.2125 31.8543 28.225 31.7251 28.225 31.6002C28.225 30.7638 27.5531 30.0376 26.6625 30.0376H12.7166C11.6711 30.0376 10.9572 31.0166 11.1958 31.9793L12.4583 37.0335H11.8374C10.5791 37.0335 9.55412 36.0085 9.55412 34.7502C9.55412 32.4252 10.4583 30.2419 12.1041 28.6044C12.9624 27.7419 13.9624 27.0877 15.0791 26.6544C15.8999 26.3294 16.7582 26.1461 17.6333 26.0836V26.2128C17.6333 26.7628 17.8457 27.2794 18.2333 27.667C18.6208 28.0545 19.1374 28.267 19.6875 28.267C20.8208 28.267 21.7417 27.3461 21.7417 26.2128V26.0836C22.6167 26.1461 23.475 26.3294 24.3 26.6544C27.6542 27.967 29.8209 31.1461 29.8209 34.7503C29.8208 36.0086 28.7958 37.0335 27.5375 37.0335Z" fill="#1A1A1A"/>
<path d="M38.7126 16.975L34.4418 12.7042V3.32084C34.4418 2.32499 33.6334 1.51668 32.6376 1.51668H29.8709C28.8709 1.51668 28.0626 2.32499 28.0626 3.32084V6.325L23.5084 1.7708C22.4875 0.750011 21.1293 0.1875 19.6875 0.1875C18.2458 0.1875 16.8875 0.750011 15.8667 1.7708L0.662472 16.975C-0.220824 17.8625 -0.220824 19.3042 0.662472 20.1875C1.55 21.075 2.9875 21.0708 3.87503 20.1875L19.0792 4.98327C19.2334 4.82908 19.4542 4.74163 19.6875 4.74163C19.9209 4.74163 20.1459 4.82916 20.2958 4.98327L35.5042 20.1875C35.9458 20.6291 36.525 20.85 37.1083 20.85C37.6875 20.85 38.2709 20.6291 38.7125 20.1875C39.6001 19.3042 39.6001 17.8625 38.7126 16.975ZM38.1251 19.6C37.5626 20.1584 36.6543 20.1584 36.0918 19.6L20.8875 4.39167C20.5792 4.08335 20.1416 3.90829 19.6875 3.90829C19.2333 3.90829 18.7958 4.08327 18.4917 4.39167L3.28334 19.6C2.72499 20.1584 1.81251 20.1584 1.25 19.6C0.691648 19.0375 0.691648 18.125 1.25 17.5667L16.4583 2.36248C17.3209 1.49582 18.4667 1.02084 19.6875 1.02084C20.9084 1.02084 22.0542 1.49582 22.9167 2.36248L38.1251 17.5667C38.6834 18.125 38.6834 19.0375 38.1251 19.6Z" fill="#1A1A1A"/>
</svg>
