<svg width="40" height="34" viewBox="0 0 40 34" fill="none" xmlns="http://www.w3.org/2000/svg">
<path d="M31.4758 14.9648C31.3389 11.0212 29.0452 7.21929 25.6204 5.25947C22.1956 3.29964 17.7556 3.24817 14.2863 5.12806C10.817 7.00795 8.43566 10.7557 8.2074 14.6951L5.70117 13.4014C6.17638 8.75066 9.09671 4.41962 13.23 2.23538C17.3634 0.0511456 22.587 0.0787263 26.6971 2.30634C30.8071 4.53395 33.6816 8.89569 34.1078 13.5511L31.4758 14.9648Z" fill="#1A1A1A"/>
<path d="M18.4715 33.1906C19.1403 33.3107 19.8577 33.2432 20.4322 32.8913C20.8011 32.6656 21.0908 32.3291 21.2675 31.9432C25.3887 32.4734 29.4964 30.6356 31.8856 27.5806C32.606 28.133 33.5419 28.4333 34.4986 28.4333C35.1876 28.4333 35.8859 28.2794 36.5183 27.9562C40.1388 26.1052 40.0733 20.5382 39.9671 18.8758C39.8535 17.1004 39.222 15.5587 38.1888 14.5349C37.2042 13.5597 35.8248 13.0399 34.4733 13.1152C33.9111 8.44275 31.0403 4.18661 26.8955 1.94007C22.6341 -0.369883 17.322 -0.398585 13.0353 1.86703C8.82345 4.09272 5.8894 8.38399 5.32031 13.1083C4.03821 13.0952 2.74529 13.6094 1.81124 14.5349C0.77801 15.5587 0.146462 17.1004 0.0329329 18.8758C-0.0733005 20.5381 -0.138805 26.1052 3.48171 27.9562C4.11406 28.2794 4.81199 28.4333 5.50095 28.4333C6.81776 28.4333 8.1017 27.8706 8.82802 26.853C9.44698 25.9864 9.63579 24.938 9.76399 24.0233C9.99554 22.3744 10.0908 20.6952 10.0473 19.0323C10.0143 17.7667 9.88939 16.439 9.20733 15.3041C9.0469 15.0371 8.85215 14.7921 8.6376 14.5651C8.90996 10.8283 11.189 7.28036 14.4849 5.4946C17.8259 3.68374 22.1162 3.73377 25.4132 5.62136C28.695 7.49916 30.9038 11.1457 31.0555 14.9231C30.9619 15.046 30.872 15.1718 30.7924 15.3041C30.1109 16.4393 29.9859 17.7667 29.9529 19.0321C29.9094 20.6953 30.0046 22.3745 30.2362 24.0234C30.3644 24.9379 30.5532 25.9864 31.1721 26.853C31.2069 26.9018 31.2489 26.9444 31.2862 26.9911C29.0213 29.946 25.1524 31.5735 21.4558 31.1279C21.4635 30.5835 21.2515 30.0396 20.8706 29.6613C20.4661 29.2598 19.9224 29.0718 19.4434 28.9408C18.8131 28.7685 18.164 28.6476 17.5145 28.5815C17.1019 28.539 16.6648 28.5237 16.2522 28.6879C15.4461 29.0094 14.9818 29.9716 15.1958 30.8784C15.5901 32.5503 17.8025 33.0709 18.4715 33.1906ZM37.7567 25.7282L31.1392 16.5442C31.2341 16.2617 31.3531 15.9893 31.5069 15.7335C31.6067 15.5674 31.7254 15.4137 31.8516 15.2661L38.4382 24.4034C38.2523 24.8827 38.026 25.3282 37.7567 25.7282ZM38.6063 23.9244L32.1451 14.9607C32.4692 14.6603 32.8472 14.4168 33.2582 14.2423L39.0023 22.2104C38.9119 22.802 38.782 23.379 38.6063 23.9244ZM37.6019 15.127C38.4407 15.9578 38.9678 17.2107 39.1093 18.6707L35.8102 14.089C36.4758 14.2765 37.1003 14.6299 37.6019 15.127ZM34.3831 13.9508C34.4991 13.9402 34.6151 13.9349 34.7315 13.9349C34.8914 13.9349 35.0509 13.9482 35.2098 13.9679L39.1591 19.4524C39.1817 20.1582 39.1575 20.8867 39.0806 21.6067L33.6659 14.0957C33.8997 14.0261 34.139 13.9733 34.3831 13.9508ZM2.39805 15.127C2.89682 14.6325 3.51715 14.2821 4.1786 14.094L0.89202 18.6582C1.0353 17.2037 1.56165 15.9554 2.39805 15.127ZM0.841429 19.4409L4.78249 13.9678C5.05909 13.9331 5.33875 13.9254 5.61648 13.9508C5.85861 13.9731 6.09577 14.0254 6.32772 14.0939L0.918478 21.5974C0.84175 20.8765 0.818338 20.1473 0.841429 19.4409ZM0.996329 22.2016L6.73582 14.24C7.1472 14.414 7.52547 14.6568 7.85019 14.9567L1.3912 23.9171C1.21585 23.3711 1.08629 22.7936 0.996329 22.2016ZM8.93866 23.9074C8.82393 24.7244 8.65908 25.6556 8.15005 26.3688C7.61094 27.1229 6.67601 27.5556 5.69 27.6012L9.05523 22.9293C9.0206 23.2561 8.98428 23.5827 8.93866 23.9074ZM9.12779 22.1164L5.18569 27.5891C4.73174 27.5487 4.27914 27.4279 3.86094 27.214C3.85156 27.2092 3.8433 27.2027 3.834 27.1978L9.21751 19.7286C9.22008 20.5243 9.19001 21.3214 9.12779 22.1164ZM9.2127 19.023L3.47554 26.9828C3.10584 26.7362 2.78322 26.4277 2.50003 26.0737L9.00096 17.0516C9.14712 17.6891 9.19482 18.3628 9.2127 19.023ZM8.8584 16.5368L2.2397 25.7224C1.97071 25.322 1.74445 24.8763 1.55893 24.3967L8.14395 15.2615C8.27183 15.4105 8.39186 15.5657 8.49272 15.7336C8.64521 15.987 8.76379 16.2568 8.8584 16.5368ZM25.8273 4.89785C22.2841 2.87068 17.6768 2.81696 14.0877 4.76171C10.7229 6.58507 8.34054 10.1176 7.86165 13.9096C7.34676 13.5622 6.76404 13.3129 6.15013 13.1913C6.68803 8.80411 9.51753 4.66855 13.4244 2.60393C17.4074 0.499868 22.5381 0.526326 26.4984 2.67288C30.3543 4.76283 33.1267 8.8814 33.6485 13.2377C32.9854 13.4005 32.3604 13.7058 31.8313 14.128C31.4225 10.3481 29.1312 6.78872 25.8273 4.89785ZM30.9972 17.0597L37.496 26.0789C37.2125 26.4324 36.8893 26.7401 36.5192 26.9861L30.7869 19.0331C30.8045 18.3726 30.8518 17.6982 30.9972 17.0597ZM30.7824 19.7392L36.1606 27.2012C36.1531 27.2051 36.1465 27.2103 36.139 27.2141C35.7184 27.429 35.2632 27.5498 34.8068 27.5895L30.873 22.1283C30.8106 21.333 30.7802 20.5355 30.7824 19.7392ZM31.0613 23.9074C31.0163 23.587 30.9806 23.2647 30.9462 22.9422L34.3017 27.6006C33.3185 27.5532 32.3874 27.1214 31.8499 26.3688C31.3408 25.6556 31.1761 24.7244 31.0613 23.9074ZM16.5606 29.4623C16.793 29.3695 17.0766 29.3746 17.4298 29.4104C18.0337 29.4721 18.6372 29.5846 19.2236 29.7447C19.6163 29.8523 20.0167 29.9881 20.2829 30.2526C20.8301 30.7956 20.7049 31.7477 19.9976 32.1804C19.6415 32.3983 19.152 32.4657 18.6181 32.3703C17.5007 32.1702 16.2277 31.623 16.0072 30.6872C15.8895 30.1895 16.143 29.6285 16.5606 29.4623Z" fill="#1A1A1A"/>
<path d="M17.7458 16.9009C17.1098 17.7569 16.3273 18.4186 15.4987 19.1191C14.9131 19.6145 14.3072 20.1269 13.7628 20.7114C13.5695 20.9185 13.6357 21.2543 13.8918 21.3733C14.8157 21.8024 16.3334 21.6966 17.4199 21.6335C17.8916 21.6063 18.3367 21.5806 18.6916 21.5871C18.9118 21.5812 19.1116 21.4081 19.116 21.1781C19.1201 20.948 18.9374 20.758 18.7071 20.7537C18.3209 20.7468 17.8598 20.7734 17.3715 20.8015C16.5543 20.8489 15.5867 20.9051 14.8599 20.7897C15.2404 20.4291 15.6432 20.0883 16.0371 19.7555C16.8649 19.0552 17.721 18.331 18.4148 17.3982C18.9658 16.6572 19.2922 16.0083 19.4407 15.3564C19.6409 14.4809 19.4944 13.6151 19.0382 12.9815C18.3163 11.9774 16.8326 11.6533 15.6623 12.2448C14.6226 12.7695 13.9238 13.9289 13.8832 15.1983C13.8755 15.4282 14.0561 15.6207 14.2861 15.6282C14.5086 15.6429 14.7088 15.4556 14.7158 15.2251C14.7468 14.2709 15.2782 13.3722 16.0379 12.9886C16.8388 12.5843 17.8809 12.7992 18.3619 13.4682C18.6736 13.9014 18.7733 14.5376 18.6284 15.1705C18.506 15.7062 18.2256 16.256 17.7458 16.9009Z" fill="#1A1A1A"/>
<path d="M26.754 19.1345C26.7634 18.9045 26.5847 18.7107 26.3548 18.7013C25.9186 18.6834 25.4815 18.6715 25.0437 18.6657C25.0274 18.3789 24.8491 15.2176 24.7604 13.5676C24.7506 13.3871 24.6257 13.2335 24.4512 13.1873C24.2741 13.1397 24.0918 13.2123 23.9938 13.3641C22.7197 15.3405 21.6691 17.1596 20.2097 18.9674C20.1051 19.0968 20.0876 19.2762 20.1654 19.4234C20.243 19.5709 20.401 19.6569 20.567 19.6446C21.7891 19.5475 23.0233 19.4974 24.2551 19.4946C24.2905 20.1307 24.3255 20.7665 24.3596 21.4019C24.3718 21.6241 24.5557 21.7962 24.7755 21.7962C24.7832 21.7962 24.7906 21.796 24.7983 21.7956C25.0282 21.7832 25.2043 21.5868 25.1922 21.3571C25.1584 20.7384 25.1246 20.119 25.09 19.4997C25.501 19.5058 25.9116 19.5172 26.3206 19.5338C26.5685 19.5415 26.7451 19.3644 26.754 19.1345ZM21.4361 18.7487C22.357 17.523 23.1563 16.2495 23.9986 14.9091C24.0559 15.9511 24.0957 16.6506 24.2086 18.6613C23.2836 18.6645 22.3575 18.6936 21.4361 18.7487Z" fill="#1A1A1A"/>
<path d="M22.5156 2.03364C18.5464 1.19676 14.2573 2.41151 11.3172 5.20348C11.2338 5.28286 11.2305 5.41467 11.3099 5.49813C11.3885 5.58143 11.5211 5.58512 11.6045 5.50583C14.4465 2.80686 18.5949 1.63364 22.4294 2.44142C22.541 2.46459 22.6528 2.39363 22.6765 2.2805C22.7 2.16793 22.628 2.05745 22.5156 2.03364Z" fill="#1A1A1A"/>
<path d="M10.6874 5.90368L10.2951 6.23977C10.2076 6.31466 10.1974 6.44607 10.2723 6.53362C10.3465 6.62037 10.4775 6.63168 10.5661 6.55639L10.9584 6.21989C11.0459 6.14501 11.0561 6.01336 10.9812 5.92605C10.9059 5.83897 10.7744 5.82879 10.6874 5.90368Z" fill="#1A1A1A"/>
</svg>
