<svg width="47" height="39" viewBox="0 0 47 39" fill="none" xmlns="http://www.w3.org/2000/svg">
<path d="M42.6632 10.1419C41.6122 7.24274 39.6554 4.64893 37.1595 2.83569C36.0254 2.01606 34.9677 1.58146 33.9989 1.52943C33.9857 1.52747 33.9379 1.52307 33.9254 1.52526C32.1103 1.45983 31.0909 2.67622 30.0098 4.10066C29.8629 4.2636 27.2249 8.08315 22.3944 11.1797C22.391 11.1846 22.3868 11.1854 22.3834 11.1902C22.3834 11.1902 22.3793 11.191 22.3752 11.1917L16.44 15.4812C16.4365 15.486 16.4331 15.491 16.429 15.4917C16.4297 15.4959 16.4255 15.4966 16.4214 15.4973C11.9683 19.1057 7.49294 20.426 7.31412 20.5047C6.16294 20.9004 4.86176 21.3441 4.10466 22.42C3.34415 23.5008 3.26333 25.0101 3.86648 26.9003C4.80405 29.8365 6.65469 32.509 9.07737 34.4166C10.2813 35.3652 11.7694 36.1267 13.2517 35.7626C14.5748 35.4435 15.471 34.3302 16.258 33.3518C16.4819 33.1152 19.1803 29.4437 24.2388 25.9641C24.2429 25.9634 24.2422 25.9592 24.2422 25.9592C24.2801 25.9311 25.5348 25.0288 25.5348 25.0288C25.8635 27.8411 26.4553 30.4442 27.4255 33.3704C27.4804 33.5364 27.6334 33.6507 27.8062 33.6588C27.979 33.667 28.1418 33.5697 28.2125 33.4116L29.2962 31.0056L32.2579 33.3708C32.383 33.473 32.558 33.4935 32.712 33.4192C32.8569 33.3422 32.9498 33.1887 32.9421 33.0231C32.8266 30.2546 32.4147 27.6754 31.9452 25.1835C34.6981 26.7286 35.4515 27.2598 39.2695 28.6987C39.4253 28.7568 39.5985 28.7177 39.7152 28.6029C39.8314 28.484 39.8692 28.3101 39.8123 28.1574L38.4958 24.6025L41.1165 24.3289C41.289 24.3113 41.4342 24.1871 41.4819 24.0203C41.5255 23.8541 41.4634 23.6722 41.3251 23.5681C38.8552 21.733 36.5686 20.3541 34.0105 19.1601C35.6993 18.194 37.4548 17.3619 39.2622 16.679L39.3991 16.6292C41.1187 15.9832 42.6184 15.329 43.0412 13.5237L43.0446 13.5188C43.0527 13.4917 43.0559 13.4612 43.0599 13.4348C43.2528 12.514 43.1274 11.4138 42.6632 10.1419ZM15.6038 32.8245C14.8613 33.7394 14.0947 34.6884 13.0519 34.9452C12.0581 35.189 10.9029 34.7843 9.59899 33.7547C7.30969 31.9479 5.55758 29.4208 4.66925 26.6429C4.15112 25.0164 4.19486 23.7577 4.79443 22.9066C5.394 22.0554 6.50926 21.6745 7.58366 21.3052C7.81022 21.2053 12.0629 19.9585 16.4849 16.5141C17.9612 20.6106 20.2283 23.6766 23.2431 25.6383C18.5235 28.9982 16.1401 32.2458 15.6038 32.8245ZM22.8633 22.4153C22.7942 22.5089 22.6661 22.5358 22.5683 22.4673C20.7152 21.1662 19.3834 19.1519 18.9152 16.934C18.8913 16.8225 18.9617 16.7116 19.0773 16.6869C19.1915 16.654 19.3038 16.7326 19.3285 16.8483C19.7735 18.959 21.0422 20.8816 22.8114 22.1203C22.9049 22.1894 22.9283 22.3224 22.8633 22.4153ZM23.7998 23.0855C23.7404 23.186 23.6096 23.2219 23.5092 23.1625L23.1556 22.955C23.0551 22.8955 23.0193 22.7648 23.0787 22.6644C23.138 22.5639 23.2696 22.5322 23.37 22.5916L23.7235 22.7991C23.824 22.8585 23.855 22.9858 23.7998 23.0855ZM37.0675 5.59361C37.6398 5.97249 38.1483 6.49972 38.539 7.11196C38.8418 7.58976 39.2665 8.12757 39.4594 8.73615C39.636 9.30042 39.594 10.0576 39.0943 10.4798C38.404 11.0599 37.5485 10.6539 36.888 10.0421C36.2947 9.49553 35.7864 8.84835 35.3752 8.11963C35.17 7.75741 34.9296 7.26861 34.9064 6.72431C34.8767 6.06983 35.2021 5.48549 35.7012 5.30326C36.0951 5.1568 36.5579 5.25506 37.0675 5.59361ZM33.1584 5.24194C33.1301 4.59576 33.3502 4.02142 33.7533 3.65907C34.2499 3.22027 35.0014 3.18198 35.4601 3.5723C35.5503 3.64642 35.5612 3.78152 35.4872 3.87174C35.4125 3.95772 35.2773 3.96871 35.1871 3.89467C34.8948 3.64637 34.366 3.68387 34.0365 3.97757C33.7283 4.24612 33.5578 4.71314 33.5793 5.2234C33.6165 6.09076 34.1282 6.87883 34.58 7.57023C34.6447 7.67016 34.6162 7.79947 34.5203 7.86348C34.4203 7.92822 34.2911 7.89962 34.2271 7.80376C33.7689 7.10055 33.1988 6.22437 33.1584 5.24194ZM32.0471 32.1271L29.3985 30.0066C29.2944 29.9264 29.1643 29.8936 29.0377 29.9288C28.9103 29.9598 28.8058 30.0468 28.7493 30.1639L27.8931 32.0628C27.0856 29.4507 26.5948 27.0567 26.3173 24.4624C27.1605 23.851 29.7297 21.9971 30.371 21.5284C30.4745 22.0671 30.5781 22.6058 30.6872 23.152C31.2559 26.012 31.8398 28.9592 32.0471 32.1271ZM39.1009 15.838L38.9647 15.892C35.7792 17.092 32.7503 18.7441 29.9459 20.7937C26.8643 18.891 24.5738 15.8376 23.129 11.7013C27.9166 8.55658 30.5391 4.76984 30.6825 4.6118C30.9044 4.31557 31.1306 4.01866 31.3686 3.74116C31.2324 4.669 31.505 5.55918 31.8021 6.32077C33.0236 9.43408 35.1363 12.086 37.9016 13.9931C38.5982 14.47 39.4457 14.976 40.4492 15.1033C40.554 15.1147 40.6533 15.1187 40.7559 15.1178C40.2496 15.404 39.6717 15.6259 39.1009 15.838Z" fill="#1A1A1A"/>
<path d="M38.5517 9.83433C38.2523 10.0799 37.7458 9.68515 37.4597 9.42283C36.9321 8.93321 36.4751 8.35835 36.1077 7.70774C35.9503 7.4228 35.7651 7.05266 35.7478 6.68735C35.735 6.41974 35.8496 6.1468 35.994 6.09127C36.1633 6.03144 36.4493 6.19521 36.6 6.2971C37.0753 6.61172 37.4998 7.051 37.8264 7.56741C38.1228 8.03356 38.504 8.51892 38.6555 8.98922C38.7579 9.32676 38.7155 9.69411 38.5517 9.83433Z" fill="#1A1A1A"/>
<path d="M13.3089 20.461C12.2619 20.9957 11.045 21.1898 9.90008 21.5543C8.40957 22.0293 7.40289 22.7546 6.9083 23.7103C6.40662 24.6804 6.42076 25.9399 6.94778 27.1657C7.40846 28.2385 8.16188 29.1327 8.89041 29.9974C8.96588 30.0868 9.09918 30.0974 9.18773 30.0228C9.27662 29.9478 9.28821 29.8146 9.21313 29.7255C8.50424 28.8843 7.77142 28.0145 7.33511 26.9991C6.8584 25.89 6.83942 24.7619 7.28299 23.9041C7.72416 23.0512 8.64783 22.396 10.0279 21.9564C11.1816 21.5893 12.402 21.398 13.5007 20.8368C13.6043 20.7837 13.6455 20.6566 13.5925 20.553C13.5398 20.449 13.413 20.4084 13.3089 20.461Z" fill="#1A1A1A"/>
<path d="M9.76372 30.3037C9.65672 30.2569 9.53223 30.3052 9.48568 30.4115C9.43836 30.5182 9.48667 30.6427 9.5933 30.6898L9.87323 30.8136C9.98039 30.8604 10.1048 30.8121 10.1513 30.7058C10.1986 30.5991 10.1503 30.4746 10.0436 30.4275L9.76372 30.3037Z" fill="#1A1A1A"/>
<path d="M27.6316 24.4136C27.5167 24.4338 27.4402 24.5431 27.4605 24.6579L28.1822 28.7489C28.2025 28.8638 28.3117 28.9403 28.4266 28.9201C28.5414 28.8998 28.618 28.7905 28.5977 28.6757L27.8759 24.5847C27.8557 24.4699 27.7464 24.3933 27.6316 24.4136Z" fill="#1A1A1A"/>
<path d="M11.9485 22.238C11.1037 22.4412 10.23 22.6513 9.46349 23.128C8.583 23.6746 8.02956 24.51 7.98277 25.3622C7.92614 26.3936 8.57452 27.2923 9.24337 28.1245C9.31589 28.214 9.44724 28.2308 9.54024 28.1567C9.63074 28.0838 9.64536 27.9509 9.57246 27.8602C8.92892 27.06 8.35554 26.2685 8.40437 25.3853C8.44318 24.6704 8.92246 23.9604 9.68599 23.4861C10.3948 23.0455 11.2348 22.8434 12.0467 22.6481C12.1603 22.6208 12.2298 22.5071 12.2026 22.3937C12.1753 22.2809 12.0647 22.2092 11.9485 22.238Z" fill="#1A1A1A"/>
</svg>
