<svg width="41" height="35" viewBox="0 0 41 35" fill="none" xmlns="http://www.w3.org/2000/svg">
<path d="M31.7546 4.56335C30.2671 3.52446 28.449 2.91844 26.4972 2.91844C22.7351 2.91844 19.4925 5.16936 18.068 8.41196C17.5407 8.41196 16.9189 8.41983 16.8481 8.41983C13.6999 8.41983 11.1499 10.9698 11.1499 14.118C11.1499 14.1967 11.1972 14.4407 11.268 14.7555L11.205 14.787H11.1893C11.0161 14.7712 10.8273 14.7633 10.6462 14.7633C6.43559 14.7633 3.06707 18.3601 3.43697 22.6573C3.53142 23.7592 3.9092 24.8059 4.4916 25.7189C2.64207 24.5069 1.3041 22.5471 1.11521 20.3356C0.745307 16.0383 4.11383 12.4416 8.32447 12.4416C8.50549 12.4416 8.69438 12.4495 8.86753 12.4652H8.88327L8.94623 12.4337C8.8754 12.1189 8.82818 11.8749 8.82818 11.7962C8.82818 8.65594 11.3782 6.09807 14.5263 6.09807C14.5972 6.09807 15.2189 6.0902 15.7462 6.0902C17.1708 2.84761 20.4134 0.59668 24.1754 0.59668C27.3157 0.60455 30.086 2.17075 31.7546 4.56335Z" fill="#636366"/>
<path d="M20.0593 29.2683L16.7144 33.534C16.4625 33.8488 15.9824 33.8488 15.7385 33.534L12.3936 29.2683C12.0709 28.859 12.3621 28.2609 12.8815 28.2609H14.2037V19.3674C14.2037 19.0211 14.4792 18.7456 14.8255 18.7456H17.6274C17.9737 18.7456 18.2491 19.0211 18.2491 19.3674V28.253H19.5713C20.0908 28.2609 20.382 28.859 20.0593 29.2683Z" fill="#1A1A1A"/>
<path d="M21.5703 23.2558L24.9152 18.99C25.1671 18.6752 25.6472 18.6752 25.8912 18.99L29.2361 23.2558C29.5587 23.665 29.2675 24.2632 28.7481 24.2632H27.4259V33.1488C27.4259 33.4951 27.1504 33.7706 26.8041 33.7706H24.0023C23.656 33.7706 23.3805 33.4951 23.3805 33.1488V24.2632H22.0583C21.5388 24.2632 21.2476 23.665 21.5703 23.2558Z" fill="#1A1A1A"/>
<path d="M14.9669 10.238C15.1952 10.238 15.3841 10.0491 15.3841 9.82083C15.3841 4.97268 19.3271 1.02963 24.1753 1.02963C28.7401 1.02963 32.5021 4.45324 32.935 8.98657C32.9586 9.21481 33.1554 9.38796 33.3915 9.36435C33.6197 9.34074 33.7929 9.13611 33.7693 8.90787C33.3049 3.9338 29.1808 0.1875 24.1831 0.1875C18.8706 0.1875 14.5498 4.50833 14.5498 9.82083C14.5498 10.0491 14.7387 10.238 14.9669 10.238Z" fill="#1A1A1A"/>
<path d="M21.7041 26.5137H20.7912C20.5629 26.5137 20.374 26.7026 20.374 26.9308C20.374 27.159 20.5629 27.3479 20.7912 27.3479H21.7041C21.9324 27.3479 22.1212 27.159 22.1212 26.9308C22.1212 26.6947 21.9402 26.5137 21.7041 26.5137Z" fill="#1A1A1A"/>
<path d="M12.0785 26.9307C12.0785 26.7025 11.8897 26.5136 11.6614 26.5136H8.32438C4.56234 26.5136 1.50076 23.452 1.50076 19.69C1.50076 15.9279 4.56234 12.8585 8.32438 12.8585C8.56049 12.8585 8.69428 12.8742 8.85169 12.8821C9.05632 12.89 9.27669 12.7404 9.3003 12.5043C9.30817 12.3784 9.24521 12.3233 9.24521 11.796C9.24521 9.08859 11.2758 6.8298 13.9674 6.54647C14.1957 6.52285 14.3688 6.31823 14.3373 6.08211C14.3137 5.85387 14.1091 5.6886 13.873 5.71221C10.6147 6.0585 8.26928 8.86822 8.40308 12.0242C4.13734 11.9692 0.666504 15.4479 0.666504 19.69C0.666504 23.9164 4.10586 27.3479 8.32438 27.3479H11.6535C11.8897 27.3479 12.0785 27.159 12.0785 26.9307Z" fill="#1A1A1A"/>
<path d="M32.3605 10.1514C29.2517 10.1514 26.3791 11.8356 24.8601 14.543C24.7499 14.7477 24.8207 14.9995 25.0175 15.1176C25.2221 15.2278 25.474 15.1569 25.592 14.9602C26.9615 12.5125 29.5587 10.9935 32.3605 10.9935C36.642 10.9935 40.1207 14.4722 40.1207 18.7537C40.1207 23.0352 36.642 26.5139 32.3605 26.5139H29.1022C28.874 26.5139 28.6851 26.7028 28.6851 26.931C28.6851 27.1592 28.874 27.3481 29.1022 27.3481H32.3605C37.1064 27.3481 40.9629 23.4916 40.9629 18.7458C40.9629 14.0078 37.1064 10.1514 32.3605 10.1514Z" fill="#1A1A1A"/>
<path d="M19.5711 27.8439H18.666V19.3675C18.666 18.793 18.2016 18.3286 17.6271 18.3286H14.8252C14.2507 18.3286 13.7863 18.793 13.7863 19.3675V27.836H12.8813C12.4799 27.836 12.1178 28.0643 11.9447 28.4184C11.7715 28.7805 11.8109 29.1976 12.0627 29.5203L15.4076 33.786C15.6044 34.0379 15.9035 34.1874 16.2262 34.1874C16.5488 34.1874 16.8479 34.0457 17.0447 33.786L20.3896 29.5203C20.6414 29.2055 20.6808 28.7805 20.5076 28.4184C20.3345 28.0643 19.9725 27.8439 19.5711 27.8439ZM19.7285 29.0087L16.3836 33.2744C16.3285 33.3453 16.2576 33.3531 16.2262 33.3531C16.1868 33.3531 16.116 33.3453 16.0688 33.2744L12.7238 29.0087C12.653 28.9221 12.6845 28.8277 12.7002 28.7962C12.716 28.7647 12.7711 28.686 12.8813 28.686H14.2035C14.4317 28.686 14.6206 28.4971 14.6206 28.2689V19.3675C14.6206 19.2573 14.715 19.1629 14.8252 19.1629H17.6271C17.7373 19.1629 17.8317 19.2573 17.8317 19.3675V28.2532C17.8317 28.4814 18.0206 28.6703 18.2488 28.6703H19.5711C19.6891 28.6703 19.7363 28.749 19.7521 28.7805C19.7678 28.8277 19.7993 28.9143 19.7285 29.0087Z" fill="#1A1A1A"/>
<path d="M29.6922 24.0976C29.8654 23.7356 29.826 23.3184 29.5742 22.9957L26.2293 18.73C26.0325 18.4782 25.7334 18.3286 25.4107 18.3286C25.088 18.3286 24.789 18.4703 24.5922 18.73L21.2473 22.9957C20.9955 23.3106 20.9561 23.7356 21.1293 24.0976C21.3024 24.4596 21.6644 24.68 22.0658 24.68H22.9709V33.1485C22.9709 33.7231 23.4353 34.1874 24.0098 34.1874H26.8117C27.3862 34.1874 27.8505 33.7231 27.8505 33.1485V24.68H28.7556C29.157 24.68 29.5112 24.4518 29.6922 24.0976ZM27.4255 23.8379C27.1973 23.8379 27.0084 24.0268 27.0084 24.255V33.1407C27.0084 33.2508 26.914 33.3453 26.8038 33.3453H24.0019C23.8918 33.3453 23.7973 33.2508 23.7973 33.1407V24.2629C23.7973 24.0346 23.6084 23.8457 23.3802 23.8457H22.058C21.9399 23.8457 21.8927 23.767 21.8769 23.7356C21.8612 23.7041 21.8297 23.6096 21.9005 23.5231L25.2455 19.2573C25.3005 19.1865 25.3714 19.1786 25.4029 19.1786C25.4422 19.1786 25.513 19.1865 25.5603 19.2573L28.9052 23.5231C28.976 23.6096 28.9445 23.7041 28.9288 23.7356C28.913 23.767 28.858 23.8457 28.7478 23.8457H27.4255V23.8379Z" fill="#1A1A1A"/>
</svg>
