<svg width="40" height="40" viewBox="0 0 40 40" fill="none" xmlns="http://www.w3.org/2000/svg">
<path d="M0 20C0 8.95431 8.95431 0 20 0C31.0457 0 40 8.95431 40 20C40 31.0457 31.0457 40 20 40C8.95431 40 0 31.0457 0 20Z" fill="#008080"/>
<mask id="mask0_8417_6169" style="mask-type:alpha" maskUnits="userSpaceOnUse" x="8" y="8" width="24" height="24">
<rect x="8" y="8" width="24" height="24" fill="#D9D9D9"/>
</mask>
<g mask="url(#mask0_8417_6169)">
<path d="M18.95 22.8589L23.9078 17.9011L23.1943 17.1876L18.95 21.4319L16.8115 19.2934L16.098 20.0069L18.95 22.8589ZM20 28.9626C17.991 28.3665 16.3221 27.1495 14.9933 25.3116C13.6644 23.4738 13 21.4036 13 19.1011V13.6934L20 11.0781L27 13.6934V19.1011C27 21.4036 26.3356 23.4738 25.0068 25.3116C23.6779 27.1495 22.009 28.3665 20 28.9626ZM20 27.9011C21.7333 27.3511 23.1667 26.2511 24.3 24.6011C25.4333 22.9511 26 21.1178 26 19.1011V14.3761L20 12.1454L14 14.3761V19.1011C14 21.1178 14.5667 22.9511 15.7 24.6011C16.8333 26.2511 18.2667 27.3511 20 27.9011Z" fill="white"/>
</g>
</svg>
