<svg width="40" height="40" viewBox="0 0 40 40" fill="none" xmlns="http://www.w3.org/2000/svg">
<path d="M0 20C0 8.95431 8.95431 0 20 0C31.0457 0 40 8.95431 40 20C40 31.0457 31.0457 40 20 40C8.95431 40 0 31.0457 0 20Z" fill="#008080"/>
<mask id="mask0_8417_6174" style="mask-type:alpha" maskUnits="userSpaceOnUse" x="8" y="8" width="24" height="24">
<rect x="8" y="8" width="24" height="24" fill="#D9D9D9"/>
</mask>
<g mask="url(#mask0_8417_6174)">
<path d="M18.9214 21.7994L23.8849 16.8609L23.1714 16.1474L18.9214 20.3974L16.7964 18.2724L16.0886 18.9802L18.9214 21.7994ZM9.76562 27.4609V26.4609H30.2271V27.4609H9.76562ZM12.6119 25.4609C12.1515 25.4609 11.7672 25.3068 11.4589 24.9984C11.1505 24.6901 10.9964 24.3059 10.9964 23.8457V14.0764C10.9964 13.6161 11.1505 13.2318 11.4589 12.9234C11.7672 12.6151 12.1515 12.4609 12.6119 12.4609H27.3809C27.8412 12.4609 28.2255 12.6151 28.5339 12.9234C28.8422 13.2318 28.9964 13.6161 28.9964 14.0764V23.8457C28.9964 24.3059 28.8422 24.6901 28.5339 24.9984C28.2255 25.3068 27.8412 25.4609 27.3809 25.4609H12.6119ZM12.6119 24.4609H27.3809C27.5349 24.4609 27.676 24.3969 27.8041 24.2687C27.9323 24.1405 27.9964 23.9995 27.9964 23.8457V14.0764C27.9964 13.9226 27.9323 13.7815 27.8041 13.6532C27.676 13.525 27.5349 13.4609 27.3809 13.4609H12.6119C12.4579 13.4609 12.3168 13.525 12.1886 13.6532C12.0605 13.7815 11.9964 13.9226 11.9964 14.0764V23.8457C11.9964 23.9995 12.0605 24.1405 12.1886 24.2687C12.3168 24.3969 12.4579 24.4609 12.6119 24.4609Z" fill="white"/>
</g>
</svg>
