<svg width="40" height="40" viewBox="0 0 40 40" fill="none" xmlns="http://www.w3.org/2000/svg">
<path d="M0 20C0 8.95431 8.95431 0 20 0C31.0457 0 40 8.95431 40 20C40 31.0457 31.0457 40 20 40C8.95431 40 0 31.0457 0 20Z" fill="#008080"/>
<mask id="mask0_8417_6129" style="mask-type:alpha" maskUnits="userSpaceOnUse" x="8" y="8" width="24" height="24">
<rect x="8" y="8" width="24" height="24" fill="#D9D9D9"/>
</mask>
<g mask="url(#mask0_8417_6129)">
<path d="M11.5 28.1562V15.1562H15.5V11.1562H24.5V19.1562H28.5V28.1562H21.5V24.1562H18.5V28.1562H11.5ZM12.5 27.1562H15.5V24.1562H12.5V27.1562ZM12.5 23.1562H15.5V20.1562H12.5V23.1562ZM12.5 19.1562H15.5V16.1562H12.5V19.1562ZM16.5 23.1562H19.5V20.1562H16.5V23.1562ZM16.5 19.1562H19.5V16.1562H16.5V19.1562ZM16.5 15.1562H19.5V12.1562H16.5V15.1562ZM20.5 23.1562H23.5V20.1562H20.5V23.1562ZM20.5 19.1562H23.5V16.1562H20.5V19.1562ZM20.5 15.1562H23.5V12.1562H20.5V15.1562ZM24.5 27.1562H27.5V24.1562H24.5V27.1562ZM24.5 23.1562H27.5V20.1562H24.5V23.1562Z" fill="white"/>
</g>
</svg>
