<svg width="41" height="40" viewBox="0 0 41 40" fill="none" xmlns="http://www.w3.org/2000/svg">
<path d="M0.5 20C0.5 8.95431 9.45431 0 20.5 0C31.5457 0 40.5 8.95431 40.5 20C40.5 31.0457 31.5457 40 20.5 40C9.45431 40 0.5 31.0457 0.5 20Z" fill="#008080"/>
<mask id="mask0_8417_6194" style="mask-type:alpha" maskUnits="userSpaceOnUse" x="8" y="8" width="25" height="24">
<rect x="8.5" y="8" width="24" height="24" fill="#D9D9D9"/>
</mask>
<g mask="url(#mask0_8417_6194)">
<path d="M20.5 29.1538C20.0397 29.1538 19.6393 28.9996 19.299 28.6913C18.9587 28.3829 18.7564 27.9987 18.6923 27.5385H22.3077C22.2436 27.9987 22.0413 28.3829 21.701 28.6913C21.3607 28.9996 20.9603 29.1538 20.5 29.1538ZM17 25.7693V24.7693H24V25.7693H17ZM17.0577 23C16.1129 22.3808 15.3671 21.5956 14.8202 20.6442C14.2734 19.6929 14 18.6448 14 17.5C14 15.6858 14.6298 14.149 15.8895 12.8895C17.149 11.6298 18.6858 11 20.5 11C22.3142 11 23.851 11.6298 25.1105 12.8895C26.3702 14.149 27 15.6858 27 17.5C27 18.6448 26.7266 19.6929 26.1798 20.6442C25.6329 21.5956 24.8871 22.3808 23.9423 23H17.0577ZM17.35 22H23.65C24.4 21.4667 24.9792 20.8083 25.3875 20.025C25.7958 19.2417 26 18.4 26 17.5C26 15.9667 25.4667 14.6667 24.4 13.6C23.3333 12.5333 22.0333 12 20.5 12C18.9667 12 17.6667 12.5333 16.6 13.6C15.5333 14.6667 15 15.9667 15 17.5C15 18.4 15.2042 19.2417 15.6125 20.025C16.0208 20.8083 16.6 21.4667 17.35 22Z" fill="white"/>
</g>
</svg>
