<svg width="40" height="40" viewBox="0 0 40 40" fill="none" xmlns="http://www.w3.org/2000/svg">
<g id="Frame 33908">
<path d="M0 20C0 8.95431 8.95431 0 20 0C31.0457 0 40 8.95431 40 20C40 31.0457 31.0457 40 20 40C8.95431 40 0 31.0457 0 20Z" fill="#008080"/>
<g id="ads_click">
<mask id="mask0_8417_6184" style="mask-type:alpha" maskUnits="userSpaceOnUse" x="8" y="8" width="24" height="24">
<rect id="Bounding box" x="8" y="8" width="24" height="24" fill="#D9D9D9"/>
</mask>
<g mask="url(#mask0_8417_6184)">
<path id="ads_click_2" d="M19.4115 24.9615C18.1577 24.8013 17.109 24.2552 16.2655 23.323C15.4218 22.391 15 21.2833 15 20C15 18.6112 15.4861 17.4306 16.4582 16.4583C17.4306 15.4861 18.6112 15 20 15C21.2833 15 22.391 15.4186 23.323 16.2557C24.2552 17.0929 24.8013 18.1384 24.9615 19.3923L23.8807 19.075C23.6651 18.175 23.2008 17.4375 22.4878 16.8625C21.7746 16.2875 20.9453 16 20 16C18.9 16 17.9583 16.3917 17.175 17.175C16.3917 17.9583 16 18.9 16 20C16 20.95 16.2907 21.7833 16.872 22.5C17.4535 23.2167 18.1878 23.6833 19.075 23.9L19.4115 24.9615ZM20.6115 28.9693C20.5097 28.9898 20.4078 29 20.3058 29H20C18.755 29 17.585 28.7638 16.49 28.2915C15.395 27.8192 14.4425 27.1782 13.6325 26.3685C12.8225 25.5588 12.1813 24.6067 11.7088 23.512C11.2363 22.4175 11 21.2479 11 20.0033C11 18.7587 11.2362 17.5887 11.7085 16.493C12.1808 15.3975 12.8218 14.4445 13.6315 13.634C14.4412 12.8235 15.3933 12.1819 16.488 11.7092C17.5825 11.2364 18.7521 11 19.9967 11C21.2413 11 22.4113 11.2362 23.507 11.7087C24.6025 12.1812 25.5555 12.8225 26.366 13.6325C27.1765 14.4425 27.8181 15.395 28.2908 16.49C28.7636 17.585 29 18.755 29 20V20.2963C29 20.3949 28.9898 20.4936 28.9693 20.5922L28 20.3V20C28 17.7667 27.225 15.875 25.675 14.325C24.125 12.775 22.2333 12 20 12C17.7667 12 15.875 12.775 14.325 14.325C12.775 15.875 12 17.7667 12 20C12 22.2333 12.775 24.125 14.325 25.675C15.875 27.225 17.7667 28 20 28H20.3L20.6115 28.9693ZM27.7558 28.7885L22.9615 23.975L22.0385 26.7693L20 20L26.7693 22.0385L23.975 22.9615L28.7885 27.7558L27.7558 28.7885Z" fill="white"/>
</g>
</g>
</g>
</svg>
