<svg width="40" height="40" viewBox="0 0 40 40" fill="none" xmlns="http://www.w3.org/2000/svg">
<path d="M0 20C0 8.95431 8.95431 0 20 0C31.0457 0 40 8.95431 40 20C40 31.0457 31.0457 40 20 40C8.95431 40 0 31.0457 0 20Z" fill="#008080"/>
<mask id="mask0_8417_6144" style="mask-type:alpha" maskUnits="userSpaceOnUse" x="8" y="8" width="24" height="24">
<rect x="8" y="8" width="24" height="24" fill="#D9D9D9"/>
</mask>
<g mask="url(#mask0_8417_6144)">
<path d="M17.9994 21.9994V17.9994H21.9994V21.9994H17.9994ZM18.9994 20.9994H20.9994V18.9994H18.9994V20.9994ZM17.4994 27.5379V25.9994H15.6149C15.1546 25.9994 14.7703 25.8453 14.4619 25.5369C14.1536 25.2286 13.9994 24.8443 13.9994 24.3839V22.4994H12.4609V21.4994H13.9994V18.4994H12.4609V17.4994H13.9994V15.6149C13.9994 15.1546 14.1536 14.7703 14.4619 14.4619C14.7703 14.1536 15.1546 13.9994 15.6149 13.9994H17.4994V12.4609H18.4994V13.9994H21.4994V12.4609H22.4994V13.9994H24.3839C24.8443 13.9994 25.2286 14.1536 25.5369 14.4619C25.8453 14.7703 25.9994 15.1546 25.9994 15.6149V17.4994H27.5379V18.4994H25.9994V21.4994H27.5379V22.4994H25.9994V24.3839C25.9994 24.8443 25.8453 25.2286 25.5369 25.5369C25.2286 25.8453 24.8443 25.9994 24.3839 25.9994H22.4994V27.5379H21.4994V25.9994H18.4994V27.5379H17.4994ZM24.3839 24.9994C24.5379 24.9994 24.679 24.9354 24.8072 24.8072C24.9354 24.679 24.9994 24.5379 24.9994 24.3839V15.6149C24.9994 15.4609 24.9354 15.3199 24.8072 15.1917C24.679 15.0635 24.5379 14.9994 24.3839 14.9994H15.6149C15.4609 14.9994 15.3199 15.0635 15.1917 15.1917C15.0635 15.3199 14.9994 15.4609 14.9994 15.6149V24.3839C14.9994 24.5379 15.0635 24.679 15.1917 24.8072C15.3199 24.9354 15.4609 24.9994 15.6149 24.9994H24.3839Z" fill="white"/>
</g>
</svg>
