<svg width="40" height="40" viewBox="0 0 40 40" fill="none" xmlns="http://www.w3.org/2000/svg">
<g id="Frame 33907">
<path d="M0 20C0 8.95431 8.95431 0 20 0C31.0457 0 40 8.95431 40 20C40 31.0457 31.0457 40 20 40C8.95431 40 0 31.0457 0 20Z" fill="#008080"/>
<g id="campaign">
<mask id="mask0_8417_6179" style="mask-type:alpha" maskUnits="userSpaceOnUse" x="8" y="8" width="24" height="24">
<rect id="Bounding box" x="8" y="8" width="24" height="24" fill="#D9D9D9"/>
</mask>
<g mask="url(#mask0_8417_6179)">
<path id="campaign_2" d="M25.9205 20.4994V19.4994H29.1513V20.4994H25.9205ZM27.0053 26.9609L24.4205 25.0224L25.0437 24.2302L27.6283 26.1687L27.0053 26.9609ZM24.9668 15.6917L24.3438 14.8994L26.9283 12.9609L27.5513 13.7532L24.9668 15.6917ZM13.4975 25.9609V22.1532H12.459C12.0117 22.1532 11.6306 21.9959 11.3157 21.6812C11.0011 21.3664 10.8438 20.9853 10.8438 20.5379V19.4609C10.8438 19.0136 11.0011 18.6325 11.3157 18.3177C11.6306 18.003 12.0117 17.8457 12.459 17.8457H16.1898L20.1512 15.4994V24.4994L16.1898 22.1532H14.4975V25.9609H13.4975ZM19.1512 22.7187V17.2802L16.4705 18.8457H12.459C12.3052 18.8457 12.1642 18.9098 12.036 19.0379C11.9078 19.1661 11.8438 19.3071 11.8438 19.4609V20.5379C11.8438 20.6918 11.9078 20.8328 12.036 20.9609C12.1642 21.0891 12.3052 21.1532 12.459 21.1532H16.4705L19.1512 22.7187ZM21.9205 22.8879V17.1109C22.2552 17.4213 22.5248 17.8287 22.7293 18.3332C22.9338 18.8377 23.036 19.3931 23.036 19.9994C23.036 20.6058 22.9338 21.1612 22.7293 21.6657C22.5248 22.1702 22.2552 22.5776 21.9205 22.8879Z" fill="white"/>
</g>
</g>
</g>
</svg>
