<svg width="41" height="41" viewBox="0 0 41 41" fill="none" xmlns="http://www.w3.org/2000/svg">
<path d="M0.335938 20.8125C0.335938 9.76681 9.29024 0.8125 20.3359 0.8125C31.3816 0.8125 40.3359 9.76681 40.3359 20.8125C40.3359 31.8582 31.3816 40.8125 20.3359 40.8125C9.29024 40.8125 0.335938 31.8582 0.335938 20.8125Z" fill="#008080"/>
<mask id="mask0_10140_14462" style="mask-type:alpha" maskUnits="userSpaceOnUse" x="8" y="8" width="25" height="25">
<rect x="8.33594" y="8.8125" width="24" height="24" fill="#D9D9D9"/>
</mask>
<g mask="url(#mask0_10140_14462)">
<path d="M20.3359 28.8125C17.9988 28.8125 16.0811 28.5148 14.5829 27.9193C13.0849 27.3238 12.3359 26.5574 12.3359 25.6202V15.8125C12.3359 14.9817 13.1158 14.274 14.6754 13.6895C16.2349 13.1048 18.1218 12.8125 20.3359 12.8125C22.5501 12.8125 24.4369 13.1048 25.9964 13.6895C27.5561 14.274 28.3359 14.9817 28.3359 15.8125V25.6202C28.3359 26.5574 27.5869 27.3238 26.0889 27.9193C24.5908 28.5148 22.6731 28.8125 20.3359 28.8125ZM20.3359 17.703C21.7679 17.703 23.2115 17.5033 24.6667 17.1038C26.1219 16.7044 26.9924 16.2695 27.2782 15.799C27.0052 15.3028 26.1484 14.8477 24.7079 14.4337C23.2676 14.0196 21.8103 13.8125 20.3359 13.8125C18.8834 13.8125 17.428 14.0122 15.9697 14.4115C14.5114 14.8108 13.6399 15.2477 13.3552 15.722C13.627 16.222 14.4857 16.6772 15.9312 17.0875C17.3767 17.4978 18.8449 17.703 20.3359 17.703ZM20.3359 22.7355C21.0231 22.7355 21.6981 22.7022 22.3609 22.6355C23.0238 22.5688 23.6574 22.4698 24.2619 22.3385C24.8664 22.207 25.4279 22.0432 25.9464 21.847C26.4651 21.651 26.9283 21.4299 27.3359 21.1838V17.0875C26.9283 17.3337 26.4651 17.5548 25.9464 17.751C25.4279 17.9472 24.8664 18.1109 24.2619 18.2422C23.6574 18.3737 23.0238 18.4728 22.3609 18.5395C21.6981 18.6062 21.0231 18.6395 20.3359 18.6395C19.6231 18.6395 18.9302 18.6029 18.2572 18.5298C17.584 18.4568 16.9484 18.3545 16.3504 18.223C15.7523 18.0917 15.1981 17.9311 14.6879 17.7413C14.1776 17.5516 13.7269 17.3337 13.3359 17.0875V21.1838C13.7269 21.4299 14.1776 21.6478 14.6879 21.8375C15.1981 22.0272 15.7523 22.1877 16.3504 22.3193C16.9484 22.4506 17.584 22.5528 18.2572 22.626C18.9302 22.699 19.6231 22.7355 20.3359 22.7355ZM20.3359 27.8125C21.1923 27.8125 22.0067 27.7638 22.7792 27.6663C23.5517 27.5689 24.2456 27.4308 24.8609 27.252C25.4763 27.0732 25.9994 26.8597 26.4302 26.6115C26.861 26.3635 27.1629 26.0953 27.3359 25.8068V22.1838C26.9283 22.4299 26.4651 22.651 25.9464 22.847C25.4279 23.0432 24.8664 23.207 24.2619 23.3385C23.6574 23.4698 23.0238 23.5688 22.3609 23.6355C21.6981 23.7022 21.0231 23.7355 20.3359 23.7355C19.6231 23.7355 18.9302 23.699 18.2572 23.626C17.584 23.5528 16.9484 23.4506 16.3504 23.3193C15.7523 23.1877 15.1981 23.0272 14.6879 22.8375C14.1776 22.6478 13.7269 22.4299 13.3359 22.1838V25.8125C13.5089 26.1138 13.8099 26.3843 14.2389 26.624C14.6678 26.8638 15.1899 27.0732 15.8052 27.252C16.4205 27.4308 17.1154 27.5689 17.8897 27.6663C18.6642 27.7638 19.4796 27.8125 20.3359 27.8125Z" fill="white"/>
</g>
</svg>
