<svg width="90" height="60" viewBox="0 0 90 60" fill="none" xmlns="http://www.w3.org/2000/svg">
<g id="logo_04">
<path id="Vector" d="M5.78546 48.9149C5.78546 46.6994 1.04159 47.3763 1.04159 43.8787C1.04159 41.676 2.93401 40.9221 4.63155 40.9221C5.50339 40.9221 7.4394 41.1298 7.4394 42.1042C7.4394 42.4453 7.20349 43.1299 6.67013 43.1299C6.21113 43.1299 5.87008 42.5684 4.61872 42.5684C3.55712 42.5684 2.94939 42.9966 2.94939 43.7043C2.94939 45.5378 7.69327 44.9018 7.69327 48.7277C7.69327 50.8407 6.21625 51.9356 4.17767 51.9356C2.24166 51.9356 0.764648 50.9586 0.764648 50.1021C0.764648 49.6893 1.14672 49.0764 1.60572 49.0764C2.21089 49.0764 2.61091 50.215 4.11869 50.215C5.01618 50.2022 5.78546 49.8021 5.78546 48.9149Z" fill="#16556E"/>
<path id="Vector_2" d="M15.1658 40.9971C15.5812 40.9971 15.7735 41.4407 15.7735 41.8535C15.7735 42.3125 15.5504 42.7254 15.1658 42.7254H13.0092V51.1874C13.0092 51.5849 12.522 51.7926 12.0502 51.7926C11.5784 51.7926 11.0886 51.5849 11.0886 51.1874V42.7254H8.91669C8.53205 42.7254 8.31152 42.3279 8.31152 41.8535C8.31152 41.4407 8.50384 40.9971 8.91669 40.9971H15.1658Z" fill="#16556E"/>
<path id="Vector_3" d="M21.9553 41.5894C21.9553 41.174 22.4271 40.9971 22.9143 40.9971C23.4015 40.9971 23.8759 41.174 23.8759 41.5894V48.5129C23.8759 50.9797 22.3092 51.8952 20.3296 51.8952C18.35 51.8952 16.7832 50.9797 16.7832 48.5129V41.5894C16.7832 41.174 17.2576 40.9971 17.7448 40.9971C18.232 40.9971 18.7038 41.174 18.7038 41.5894V48.5129C18.7038 49.6643 19.3116 50.213 20.3296 50.213C21.3476 50.213 21.9553 49.6643 21.9553 48.5129V41.5894Z" fill="#16556E"/>
<path id="Vector_4" d="M29.0538 40.9971C31.0052 40.9971 32.5258 41.9125 32.5258 44.3793V48.4129C32.5258 50.8823 31.0052 51.7977 29.0538 51.7977H26.4382C25.9254 51.7977 25.5972 51.5156 25.5972 51.2054V41.5894C25.5972 41.2791 25.9356 40.9971 26.4382 40.9971H29.0538ZM27.5152 42.6818V50.1181H29.0538C30.0282 50.1181 30.6052 49.5719 30.6052 48.418V44.3793C30.6052 43.228 30.0282 42.6818 29.0538 42.6818H27.5152Z" fill="#16556E"/>
<path id="Vector_5" d="M36.0876 45.6346H38.3313C38.716 45.6346 38.9391 46.0038 38.9391 46.4039C38.9391 46.7423 38.7467 47.1424 38.3313 47.1424H36.0876V50.1118H40.2674C40.652 50.1118 40.8725 50.5118 40.8725 50.9682C40.8725 51.3682 40.6802 51.7965 40.2674 51.7965H35.0081C34.5798 51.7965 34.167 51.5888 34.167 51.1913V41.6113C34.167 41.2138 34.5798 41.0061 35.0081 41.0061H40.2674C40.6802 41.0061 40.8725 41.4343 40.8725 41.8344C40.8725 42.2908 40.652 42.6908 40.2674 42.6908H36.0876V45.6346Z" fill="#16556E"/>
<path id="Vector_6" d="M47.0855 51.1925L43.9084 45.2512V51.1925C43.9084 51.59 43.4212 51.7977 42.9494 51.7977C42.4776 51.7977 41.9878 51.59 41.9878 51.1925V41.6125C41.9878 41.1996 42.4622 41.0073 42.9494 41.0073C43.6417 41.0073 43.9238 41.1561 44.3828 42.033L47.2343 47.5436V41.5894C47.2343 41.174 47.7061 40.9971 48.1933 40.9971C48.6805 40.9971 49.1549 41.174 49.1549 41.5894V51.1925C49.1549 51.59 48.6677 51.7977 48.1933 51.7977C47.9699 51.815 47.7462 51.767 47.5496 51.6596C47.3529 51.5522 47.1917 51.3899 47.0855 51.1925Z" fill="#16556E"/>
<path id="Vector_7" d="M57.0858 40.9971C57.4987 40.9971 57.691 41.4407 57.691 41.8535C57.691 42.3125 57.4705 42.7254 57.0858 42.7254H54.9293V51.1874C54.9293 51.5849 54.4395 51.7926 53.9677 51.7926C53.4959 51.7926 53.0087 51.5849 53.0087 51.1874V42.7254H50.8367C50.4521 42.7254 50.229 42.3279 50.229 41.8535C50.229 41.4407 50.4213 40.9971 50.8367 40.9971H57.0858Z" fill="#16556E"/>
<path id="Vector_8" d="M61.9272 42.6818C60.9348 42.6818 60.3758 43.228 60.3758 44.3793V48.5026C60.3758 49.654 60.9348 50.2027 61.9554 50.2027C63.2991 50.2027 63.417 49.2411 63.4632 48.6206C63.4914 48.1616 63.9068 48.0154 64.4068 48.0154C65.0735 48.0154 65.3838 48.2078 65.3838 48.9616C65.3838 50.7566 63.9196 51.8849 61.8528 51.8849C59.9912 51.8849 58.4526 50.9695 58.4526 48.5026V44.3793C58.4526 41.9125 60.004 40.9971 61.8657 40.9971C63.9171 40.9971 65.3838 42.0894 65.3838 43.8049C65.3838 44.5742 65.0735 44.7511 64.4222 44.7511C63.876 44.7511 63.476 44.587 63.4632 44.1434C63.4504 43.6998 63.3298 42.6818 61.9272 42.6818Z" fill="#16556E"/>
<path id="Vector_9" d="M71.928 46.9513H68.5945V51.1925C68.5945 51.59 68.1047 51.7977 67.6329 51.7977C67.161 51.7977 66.6738 51.59 66.6738 51.1925V41.5894C66.6738 41.174 67.1456 40.9971 67.6329 40.9971C68.1201 40.9971 68.5945 41.174 68.5945 41.5894V45.4358H71.928V41.5894C71.928 41.174 72.3998 40.9971 72.887 40.9971C73.3742 40.9971 73.8486 41.174 73.8486 41.5894V51.1925C73.8486 51.59 73.3614 51.7977 72.887 51.7977C72.4126 51.7977 71.928 51.59 71.928 51.1925V46.9513Z" fill="#16556E"/>
<path id="Vector_10" d="M74.8662 50.9999C74.8718 50.9494 74.8821 50.8997 74.897 50.8512L77.7484 41.5583C77.8818 41.1147 78.428 40.907 78.9741 40.907C79.5203 40.907 80.0819 41.1147 80.2152 41.5583L83.0667 50.8435C83.0831 50.8916 83.0934 50.9415 83.0975 50.9922C83.0975 51.4486 82.4026 51.7897 81.8846 51.7897C81.5615 51.7897 81.3102 51.6871 81.2358 51.405L80.6768 49.4485H77.292L76.7304 51.4127C76.6586 51.6948 76.4073 51.7974 76.0817 51.7974C75.5611 51.7974 74.8662 51.4717 74.8662 50.9999ZM80.2511 47.9407L78.969 43.4046L77.6869 47.9407H80.2511Z" fill="#16556E"/>
<path id="Vector_11" d="M89.3952 40.9971C89.8106 40.9971 90.0004 41.4407 90.0004 41.8535C90.0004 42.3125 89.7799 42.7254 89.3952 42.7254H87.2387V51.1874C87.2387 51.5849 86.7515 51.7926 86.2797 51.7926C85.8079 51.7926 85.3181 51.5849 85.3181 51.1874V42.7254H83.1462C82.7615 42.7254 82.541 42.3279 82.541 41.8535C82.541 41.4407 82.7333 40.9971 83.1462 40.9971H89.3952Z" fill="#16556E"/>
<path id="Vector_12" d="M14.4554 58.4871C14.4554 57.3793 11.7835 57.7178 11.7835 55.9664C11.7835 54.8638 12.8502 54.4868 13.8067 54.4868C14.299 54.4868 15.3888 54.592 15.3888 55.0792C15.3888 55.2484 15.2555 55.592 14.9555 55.592C14.6991 55.592 14.5067 55.3099 13.8067 55.3099C13.2067 55.3099 12.8656 55.5253 12.8656 55.8792C12.8656 56.7972 15.5376 56.4793 15.5376 58.3948C15.5376 59.4512 14.7067 60 13.558 60C12.4656 60 11.6348 59.5102 11.6348 59.082C11.6438 58.9553 11.6958 58.8355 11.782 58.7423C11.8682 58.6491 11.9836 58.588 12.1092 58.5691C12.4502 58.5691 12.6733 59.1384 13.5246 59.1384C14.0221 59.1307 14.4554 58.9307 14.4554 58.4871Z" fill="#449FAE"/>
<path id="Vector_13" d="M16.7527 59.9311C16.5117 59.9311 16.2783 59.826 16.2783 59.6259V54.8205C16.2783 54.6128 16.5348 54.5256 16.8194 54.5256C17.104 54.5256 17.3604 54.6128 17.3604 54.8205V59.0874H19.3913C19.6067 59.0874 19.7144 59.2952 19.7144 59.508C19.7144 59.7208 19.6067 59.9311 19.3913 59.9311H16.7527Z" fill="#449FAE"/>
<path id="Vector_14" d="M20.1426 58.2799V56.2285C20.1426 54.9926 20.9913 54.5361 22.0914 54.5361C23.1915 54.5361 24.0479 54.9926 24.0479 56.2285V58.2799C24.0479 59.5134 23.1889 59.9723 22.0914 59.9723C20.9939 59.9723 20.1426 59.5159 20.1426 58.2799ZM22.9633 56.2157C22.9633 55.6311 22.6299 55.3644 22.0888 55.3644C21.5478 55.3644 21.2221 55.6208 21.2221 56.2157V58.2799C21.2221 58.8646 21.5375 59.1287 22.0888 59.1287C22.6402 59.1287 22.9633 58.8723 22.9633 58.2799V56.2157Z" fill="#449FAE"/>
<path id="Vector_15" d="M26.8613 55.367C26.3049 55.367 25.9869 55.6413 25.9869 56.2183V58.2799C25.9869 58.8569 26.3049 59.1287 26.8536 59.1287C27.4024 59.1287 27.728 58.8569 27.728 58.2799V57.844H27.0536C27.0064 57.8428 26.96 57.8319 26.9172 57.812C26.8744 57.7921 26.8361 57.7635 26.8049 57.7281C26.7736 57.6928 26.7499 57.6513 26.7354 57.6064C26.7208 57.5615 26.7157 57.5141 26.7203 57.4671C26.7164 57.4202 26.7221 57.3731 26.7369 57.3285C26.7518 57.2839 26.7755 57.2428 26.8066 57.2076C26.8377 57.1723 26.8757 57.1438 26.9181 57.1236C26.9606 57.1034 27.0067 57.092 27.0536 57.0901H28.4691C28.5122 57.0866 28.5555 57.092 28.5965 57.1059C28.6374 57.1199 28.675 57.1421 28.707 57.1712C28.739 57.2003 28.7647 57.2357 28.7824 57.2751C28.8001 57.3145 28.8096 57.3572 28.8101 57.4004V58.2799C28.8101 59.5134 27.9511 59.9723 26.8536 59.9723C25.7561 59.9723 24.9048 59.5134 24.9048 58.2799V56.2285C24.9048 54.9926 25.7612 54.5361 26.8203 54.5361C27.9691 54.5361 28.8101 55.0669 28.8101 55.9542C28.8101 56.3234 28.6255 56.4132 28.2691 56.4132C27.9768 56.4132 27.7357 56.3388 27.728 56.1106C27.7024 55.7516 27.569 55.367 26.8613 55.367Z" fill="#449FAE"/>
<path id="Vector_16" d="M29.2437 59.5301C29.2466 59.5049 29.2517 59.48 29.259 59.4557L30.8668 54.8042C30.9412 54.5837 31.2489 54.4785 31.5566 54.4785C31.8643 54.4785 32.1823 54.5837 32.2567 54.8042L33.8644 59.4557C33.8725 59.4798 33.8777 59.5048 33.8798 59.5301C33.8798 59.7583 33.4901 59.9301 33.1977 59.9301C33.0131 59.9301 32.8721 59.8788 32.831 59.7378L32.5156 58.7531H30.6078L30.2924 59.7378C30.2488 59.8788 30.1078 59.9301 29.9257 59.9301C29.6334 59.9301 29.2437 59.766 29.2437 59.5301ZM32.2823 57.9915L31.5566 55.7222L30.8335 57.9915H32.2823Z" fill="#449FAE"/>
<path id="Vector_17" d="M37.3258 59.6259L35.5308 56.654V59.6259C35.5308 59.8259 35.2565 59.9311 34.9898 59.9311C34.7231 59.9311 34.4487 59.8259 34.4487 59.6259V54.8282C34.4487 54.6205 34.7052 54.5256 34.9898 54.5256C35.3821 54.5256 35.5411 54.5974 35.7975 55.0385L37.4053 57.7951V54.8205C37.4053 54.6128 37.6617 54.5256 37.9464 54.5256C38.231 54.5256 38.4874 54.6128 38.4874 54.8205V59.6259C38.4874 59.8259 38.2131 59.9311 37.9464 59.9311C37.825 59.941 37.7033 59.9178 37.594 59.8641C37.4848 59.8104 37.3921 59.7281 37.3258 59.6259Z" fill="#449FAE"/>
<path id="Vector_18" d="M43.0469 55.367C42.4879 55.367 42.1724 55.6413 42.1724 56.2183V58.2799C42.1724 58.8569 42.4879 59.1287 43.0392 59.1287C43.5905 59.1287 43.9136 58.8569 43.9136 58.2799V57.844H43.2392C43.192 57.8428 43.1455 57.8319 43.1027 57.812C43.0599 57.7921 43.0217 57.7635 42.9904 57.7281C42.9591 57.6928 42.9355 57.6513 42.9209 57.6064C42.9064 57.5615 42.9012 57.5141 42.9058 57.4671C42.902 57.4202 42.9077 57.3731 42.9225 57.3285C42.9373 57.2839 42.961 57.2428 42.9922 57.2076C43.0233 57.1723 43.0612 57.1438 43.1037 57.1236C43.1461 57.1034 43.1922 57.092 43.2392 57.0901H44.6546C44.6977 57.0866 44.7411 57.092 44.782 57.1059C44.823 57.1199 44.8606 57.1421 44.8926 57.1712C44.9246 57.2003 44.9502 57.2357 44.968 57.2751C44.9857 57.3145 44.9951 57.3572 44.9957 57.4004V58.2799C44.9957 59.5134 44.1367 59.9723 43.0392 59.9723C41.9417 59.9723 41.0903 59.5134 41.0903 58.2799V56.2285C41.0903 54.9926 41.9468 54.5361 43.0058 54.5361C44.1546 54.5361 44.9957 55.0669 44.9957 55.9542C44.9957 56.3234 44.8111 56.4132 44.4546 56.4132C44.1623 56.4132 43.9213 56.3388 43.9136 56.1106C43.8879 55.7516 43.752 55.367 43.0469 55.367Z" fill="#449FAE"/>
<path id="Vector_19" d="M45.7856 58.2799V56.2285C45.7856 54.9926 46.6344 54.5361 47.7345 54.5361C48.8345 54.5361 49.691 54.9926 49.691 56.2285V58.2799C49.691 59.5134 48.8345 59.9723 47.7345 59.9723C46.6344 59.9723 45.7856 59.5159 45.7856 58.2799ZM48.6063 56.2157C48.6063 55.6311 48.273 55.3644 47.7319 55.3644C47.1909 55.3644 46.8652 55.6208 46.8652 56.2157V58.2799C46.8652 58.8646 47.1832 59.1287 47.7319 59.1287C48.2807 59.1287 48.6063 58.8723 48.6063 58.2799V56.2157Z" fill="#449FAE"/>
<path id="Vector_20" d="M51.701 56.8463H52.9677C53.0158 56.8479 53.0631 56.8592 53.1067 56.8796C53.1502 56.9001 53.1891 56.9292 53.2211 56.9652C53.253 57.0012 53.2772 57.0433 53.2923 57.089C53.3074 57.1347 53.313 57.183 53.3088 57.2309C53.3119 57.2779 53.3055 57.3249 53.2898 57.3693C53.2741 57.4137 53.2496 57.4544 53.2177 57.4889C53.1858 57.5235 53.1471 57.5512 53.1042 57.5703C53.0612 57.5894 53.0148 57.5996 52.9677 57.6002H51.701V59.0874H54.0576C54.2755 59.0874 54.4012 59.2875 54.4012 59.5157C54.4072 59.5658 54.403 59.6165 54.3888 59.6649C54.3746 59.7133 54.3507 59.7583 54.3185 59.7971C54.2864 59.836 54.2467 59.8679 54.2018 59.8909C54.1569 59.914 54.1079 59.9276 54.0576 59.9311H51.0881C50.8471 59.9311 50.6138 59.826 50.6138 59.6259V54.8282C50.6138 54.6282 50.8471 54.5256 51.0881 54.5256H54.0524C54.1025 54.5291 54.1513 54.5427 54.196 54.5656C54.2407 54.5885 54.2803 54.6201 54.3124 54.6587C54.3445 54.6973 54.3684 54.742 54.3828 54.79C54.3972 54.8381 54.4017 54.8886 54.396 54.9385C54.396 55.1693 54.2704 55.3667 54.0524 55.3667H51.701V56.8463Z" fill="#449FAE"/>
<path id="Vector_21" d="M57.5503 58.4871C57.5503 57.3793 54.8783 57.7178 54.8783 55.9664C54.8783 54.8638 55.9425 54.4868 56.9015 54.4868C57.3913 54.4868 58.4837 54.592 58.4837 55.0792C58.4837 55.2484 58.3503 55.592 58.0503 55.592C57.7939 55.592 57.599 55.3099 56.9015 55.3099C56.3015 55.3099 55.9605 55.5253 55.9605 55.8792C55.9605 56.7972 58.6324 56.4793 58.6324 58.3948C58.6324 59.4512 57.799 60 56.6502 60C55.5604 60 54.7271 59.5102 54.7271 59.082C54.7366 58.9555 54.7886 58.8359 54.8748 58.7428C54.9609 58.6497 55.0761 58.5885 55.2014 58.5691C55.5425 58.5691 55.7681 59.1384 56.6169 59.1384C57.1169 59.1307 57.5503 58.9307 57.5503 58.4871Z" fill="#449FAE"/>
<path id="Vector_22" d="M63.9937 57.5099H62.1192V59.6306C62.1192 59.8306 61.8448 59.9357 61.5782 59.9357C61.3115 59.9357 61.0371 59.8306 61.0371 59.6306V54.82C61.0371 54.6123 61.2935 54.5251 61.5782 54.5251C61.8628 54.5251 62.1192 54.6123 62.1192 54.82V56.7407H63.9937V54.8098C63.9937 54.6021 64.2501 54.5149 64.5347 54.5149C64.8194 54.5149 65.0758 54.6021 65.0758 54.8098V59.6152C65.0758 59.8152 64.8014 59.9203 64.5347 59.9203C64.2681 59.9203 63.9937 59.8152 63.9937 59.6152V57.5099Z" fill="#449FAE"/>
<path id="Vector_23" d="M67.1583 56.8463H68.4225C68.4707 56.8479 68.518 56.8592 68.5617 56.8796C68.6054 56.9 68.6445 56.9291 68.6766 56.9651C68.7087 57.001 68.7332 57.0431 68.7486 57.0888C68.764 57.1345 68.7699 57.1829 68.7661 57.2309C68.7689 57.278 68.7621 57.3251 68.7461 57.3695C68.7301 57.4139 68.7054 57.4545 68.6732 57.489C68.6411 57.5236 68.6023 57.5512 68.5592 57.5703C68.5161 57.5894 68.4696 57.5996 68.4225 57.6002H67.1583V59.0874H69.5148C69.7302 59.0874 69.8559 59.2875 69.8559 59.5157C69.8619 59.5656 69.8578 59.6161 69.8437 59.6643C69.8297 59.7126 69.806 59.7575 69.7741 59.7963C69.7423 59.8351 69.7029 59.8671 69.6583 59.8902C69.6137 59.9134 69.5649 59.9273 69.5148 59.9311H66.5506C66.3095 59.9311 66.0762 59.826 66.0762 59.6259V54.8282C66.0762 54.6282 66.3095 54.5256 66.5506 54.5256H69.5148C69.5656 54.529 69.615 54.5428 69.6602 54.5662C69.7053 54.5896 69.7451 54.622 69.7771 54.6615C69.8091 54.701 69.8327 54.7466 69.8462 54.7956C69.8598 54.8446 69.8631 54.8959 69.8559 54.9462C69.8559 55.177 69.7302 55.3744 69.5148 55.3744H67.1583V56.8463Z" fill="#449FAE"/>
<path id="Vector_24" d="M70.4893 54.8204C70.4925 54.778 70.5041 54.7367 70.5234 54.6989C70.5428 54.661 70.5695 54.6274 70.6019 54.5999C70.6344 54.5725 70.6719 54.5518 70.7125 54.539C70.753 54.5262 70.7957 54.5216 70.838 54.5255H72.4868C73.5766 54.5255 74.4587 54.8947 74.4587 56.064C74.485 56.4004 74.3893 56.735 74.1892 57.0067C73.9891 57.2783 73.6979 57.4689 73.3689 57.5436L74.4587 59.3386C74.4868 59.3715 74.5023 59.4133 74.5023 59.4566C74.5023 59.713 74.1433 59.9694 73.8279 59.9694C73.7507 59.9686 73.6752 59.947 73.6093 59.9068C73.5434 59.8667 73.4896 59.8094 73.4535 59.7412L72.2689 57.6898H71.5714V59.6181C71.5714 59.8181 71.315 59.9232 71.0303 59.9232C70.7457 59.9232 70.4893 59.8181 70.4893 59.6181V54.8204ZM71.5714 55.3666V56.9436H72.4868C73.0279 56.9436 73.3766 56.7436 73.3766 56.1589C73.3766 55.5743 73.0279 55.3666 72.4868 55.3666H71.5714Z" fill="#449FAE"/>
<path id="Vector_25" d="M76.3176 56.8463H77.5843C77.6324 56.8479 77.6797 56.8592 77.7232 56.8796C77.7668 56.9001 77.8057 56.9292 77.8376 56.9652C77.8696 57.0012 77.8938 57.0433 77.9089 57.089C77.924 57.1347 77.9296 57.183 77.9254 57.2309C77.9285 57.2779 77.9221 57.3249 77.9064 57.3693C77.8907 57.4137 77.8662 57.4544 77.8343 57.4889C77.8024 57.5235 77.7637 57.5512 77.7208 57.5703C77.6778 57.5894 77.6314 57.5996 77.5843 57.6002H76.3176V59.0874H78.6741C78.8921 59.0874 79.0152 59.2875 79.0152 59.5157C79.0212 59.5656 79.0171 59.6161 79.003 59.6643C78.989 59.7126 78.9653 59.7575 78.9334 59.7963C78.9016 59.8351 78.8622 59.8671 78.8176 59.8902C78.773 59.9134 78.7242 59.9273 78.6741 59.9311H75.7073C75.4663 59.9311 75.2329 59.826 75.2329 59.6259V54.8282C75.2329 54.6282 75.4663 54.5256 75.7073 54.5256H78.6716C78.7216 54.5291 78.7703 54.5427 78.8149 54.5656C78.8594 54.5885 78.8988 54.6202 78.9307 54.6588C78.9627 54.6975 78.9864 54.7422 79.0004 54.7902C79.0145 54.8383 79.0187 54.8888 79.0126 54.9385C79.0126 55.1693 78.8895 55.3667 78.6716 55.3667H76.3176V56.8463Z" fill="#449FAE"/>
<path id="Vector_26" d="M78.1538 15.1024L50.6163 0.527199C49.2905 -0.175407 47.1186 -0.175407 45.7929 0.527199L18.2554 15.1024C16.9297 15.805 16.9297 16.9538 18.2554 17.6539L21.1068 19.1616C20.5167 20.1546 19.9783 21.1774 19.4939 22.2259C18.8804 22.1627 18.2644 22.3185 17.7548 22.6658C17.2451 23.0131 16.8747 23.5294 16.7091 24.1235C16.5842 24.5327 16.5514 24.9645 16.613 25.3878C16.6747 25.8112 16.8292 26.2157 17.0656 26.5723C16.7104 27.037 16.3006 27.4571 15.845 27.8237C15.4547 28.126 15.0229 28.3704 14.5628 28.5494C14.1812 28.703 13.7827 28.8106 13.3756 28.8699C13.0776 28.9171 12.777 28.9463 12.4755 28.9571H11.4268L11.6986 33.124L12.7704 32.9496C13.28 32.8537 13.7814 32.7192 14.2705 32.5471C15.6428 32.079 16.8767 31.2761 17.8605 30.211C18.4291 29.5803 18.919 28.8828 19.3195 28.134C19.3939 27.9955 19.4657 27.8519 19.5349 27.7134C20.0327 27.6326 20.4972 27.4121 20.8744 27.0775C21.2517 26.7429 21.5261 26.3081 21.6658 25.8236C21.8024 25.3796 21.8296 24.9093 21.7453 24.4525C21.6609 23.9958 21.4674 23.5662 21.1812 23.2003C21.4376 22.3413 21.694 21.5002 21.9941 20.7053C22.1949 20.1382 22.4269 19.5827 22.689 19.0411C22.9968 18.4307 23.37 17.8555 23.8019 17.3256C24.1959 16.8636 24.6525 16.4589 25.1583 16.123C25.3825 15.9698 25.6183 15.8344 25.8635 15.7178C26.0816 15.6026 26.3089 15.5057 26.543 15.4281C26.9218 15.2873 27.3099 15.1733 27.7047 15.087C28.3688 14.9716 28.756 14.9204 28.756 14.9204C26.961 15.2947 24.2916 16.8461 23.7506 20.5617L42.8773 30.6854L38.0053 33.265C37.4796 33.5445 37.4924 33.9471 38.054 34.16C38.054 34.16 41.7593 36.6165 50.3624 32.3214C50.4419 32.2855 78.1384 17.6436 78.1384 17.6436C79.4795 16.9538 79.4795 15.805 78.1538 15.1024ZM48.3674 22.3131C38.8797 22.3131 31.1869 19.7027 31.1869 16.4846C31.1869 13.2664 38.8797 10.656 48.3674 10.656C57.8552 10.656 65.5479 13.2664 65.5479 16.4846C65.5479 19.7027 57.8552 22.3131 48.3674 22.3131Z" fill="#449FAE"/>
<path id="Vector_27" d="M40.1898 16.5741C40.1723 16.2671 40.0652 15.972 39.8819 15.7251C39.6986 15.4783 39.4471 15.2905 39.1583 15.185C38.8695 15.0795 38.5561 15.0608 38.2568 15.1313C37.9576 15.2018 37.6855 15.3584 37.4742 15.5818C37.2629 15.8051 37.1216 16.0855 37.0678 16.3882C37.0139 16.6909 37.0499 17.0027 37.1713 17.2852C37.2926 17.5677 37.4941 17.8085 37.7507 17.9779C38.0073 18.1473 38.3079 18.2378 38.6153 18.2383C39.0445 18.2255 39.4512 18.0432 39.7463 17.7313C40.0414 17.4194 40.2008 17.0033 40.1898 16.5741Z" fill="#449FAE"/>
<path id="Vector_28" d="M49.9266 16.5741C49.9091 16.267 49.802 15.9718 49.6186 15.7249C49.4352 15.478 49.1834 15.2902 48.8945 15.1848C48.6056 15.0793 48.2921 15.0608 47.9927 15.1315C47.6934 15.2023 47.4213 15.3591 47.2101 15.5827C46.9989 15.8063 46.8579 16.0869 46.8043 16.3897C46.7508 16.6926 46.7871 17.0046 46.9089 17.287C47.0306 17.5695 47.2324 17.8101 47.4894 17.9791C47.7463 18.1482 48.0472 18.2383 48.3547 18.2383C48.7835 18.2249 49.1895 18.0423 49.484 17.7304C49.7785 17.4186 49.9377 17.0029 49.9266 16.5741Z" fill="#449FAE"/>
<path id="Vector_29" d="M59.6659 16.5741C59.6483 16.267 59.5413 15.9718 59.3578 15.7249C59.1744 15.478 58.9227 15.2902 58.6338 15.1848C58.3448 15.0793 58.0313 15.0608 57.732 15.1315C57.4327 15.2023 57.1606 15.3591 56.9494 15.5827C56.7382 15.8063 56.5971 16.0869 56.5436 16.3897C56.49 16.6926 56.5264 17.0046 56.6481 17.287C56.7699 17.5695 56.9717 17.8101 57.2286 17.9791C57.4856 18.1482 57.7864 18.2383 58.094 18.2383C58.5227 18.2249 58.9287 18.0423 59.2233 17.7304C59.5178 17.4186 59.6769 17.0029 59.6659 16.5741Z" fill="#449FAE"/>
</g>
</svg>
