<svg width="91" height="62" viewBox="0 0 91 62" fill="none" xmlns="http://www.w3.org/2000/svg">
<g id="logo_02">
<path id="Vector" d="M0.287027 50.1541C0.287027 49.873 0.536243 49.6238 0.924407 49.6238H3.96662C5.88577 49.6238 7.38298 50.5442 7.38298 53.0554V53.1829C7.38298 55.6789 5.83861 56.6305 3.87293 56.6305H1.94039V60.4835C1.94039 60.8423 1.53502 61.0297 1.1118 61.0297C0.706423 61.0297 0.283203 60.8423 0.283203 60.4835L0.287027 50.1541ZM1.94039 51.0904V55.3175H3.87484C5.02914 55.3175 5.73089 54.6623 5.73089 53.29V53.1026C5.73089 51.7297 5.02977 51.0904 3.87484 51.0904H1.94039Z" fill="#27384D"/>
<path id="Vector_2" d="M12.2961 54.6623H14.6984C15.0413 54.6623 15.244 54.9746 15.244 55.3334C15.244 55.6298 15.0725 55.9708 14.6984 55.9708H12.2961V59.5593H16.9286C17.2721 59.5593 17.4748 59.9022 17.4748 60.3075C17.4748 60.6511 17.3033 61.0252 16.9286 61.0252H11.3757C11.0162 61.0252 10.6421 60.8378 10.6421 60.479V50.1694C10.6421 49.8105 11.0162 49.6238 11.3757 49.6238H16.9286C17.3033 49.6238 17.4748 49.9979 17.4748 50.3415C17.4748 50.7468 17.2721 51.0904 16.9286 51.0904H12.2961V54.6623Z" fill="#27384D"/>
<path id="Vector_3" d="M26.0762 60.4191L22.3481 53.3212V60.4809C22.3481 60.8398 21.9421 61.0271 21.5195 61.0271C21.1141 61.0271 20.6909 60.8398 20.6909 60.4809V50.1694C20.6909 49.7799 21.0969 49.6238 21.5195 49.6238C22.1123 49.6238 22.3934 49.8424 22.7675 50.5594L26.2311 57.3157V50.1541C26.2311 49.7799 26.6524 49.6238 27.0597 49.6238C27.481 49.6238 27.8882 49.7799 27.8882 50.1541V60.4796C27.8882 60.8385 27.4829 61.0259 27.0597 61.0259C26.6536 61.0271 26.2948 60.8245 26.0762 60.4191Z" fill="#27384D"/>
<path id="Vector_4" d="M40.7382 60.5593C40.6107 60.9334 40.1295 61.1208 39.6776 61.1208C39.2257 61.1208 38.7413 60.9334 38.6476 60.5593L37.462 55.8478L36.2765 60.5593C36.1828 60.9334 35.6991 61.1208 35.2312 61.1208C34.7634 61.1208 34.2955 60.9334 34.1859 60.5593L31.0819 50.4505C31.0679 50.3997 31.0625 50.3469 31.066 50.2943C31.066 49.9042 31.6275 49.6238 32.096 49.6238C32.3611 49.6238 32.6103 49.7328 32.6696 49.9667L35.228 58.8588L36.6303 53.2741C36.708 52.9311 37.0516 52.7903 37.4589 52.7903C37.8336 52.7903 38.1765 52.9311 38.2702 53.2741L39.6897 58.8588L42.2322 49.9667C42.2959 49.7328 42.5445 49.6238 42.8096 49.6238C43.2775 49.6238 43.8397 49.9042 43.8397 50.2943C43.8431 50.3469 43.8377 50.3997 43.8237 50.4505L40.7382 60.5593Z" fill="#27384D"/>
<path id="Vector_5" d="M47.0394 50.1543C47.0392 50.0833 47.0532 50.013 47.0808 49.9476C47.1083 49.8822 47.1488 49.8229 47.1997 49.7734C47.2506 49.724 47.3109 49.6852 47.3771 49.6596C47.4433 49.6339 47.514 49.6218 47.585 49.624H50.5494C52.5151 49.624 54.1372 50.3889 54.1372 52.8065C54.1372 54.6625 53.1856 55.5829 51.9376 55.8952L54.1213 59.998C54.1624 60.0692 54.1844 60.1498 54.185 60.2319C54.185 60.6532 53.6541 61.0746 53.1863 61.0746C52.9052 61.0746 52.6872 60.8872 52.531 60.5908L50.2537 56.1291H48.6781V60.4812C48.6781 60.84 48.2721 61.0274 47.8495 61.0274C47.4435 61.0274 47.0381 60.84 47.0381 60.4812L47.0394 50.1543ZM48.6774 51.0906V54.8008H50.5494C51.719 54.8008 52.4832 54.3018 52.4832 52.9448C52.4832 51.5878 51.7184 51.0887 50.5494 51.0887L48.6774 51.0906Z" fill="#27384D"/>
<path id="Vector_6" d="M57.5244 50.1541C57.5244 49.7799 57.9457 49.6238 58.353 49.6238C58.7744 49.6238 59.1817 49.7799 59.1817 50.1541V60.4796C59.1817 60.8385 58.7763 61.0259 58.353 61.0259C57.9476 61.0259 57.5244 60.8385 57.5244 60.4796V50.1541Z" fill="#27384D"/>
<path id="Vector_7" d="M69.3633 49.6239C69.7374 49.6239 69.9095 49.9981 69.9095 50.3569C69.9095 50.7623 69.7221 51.1371 69.3633 51.1371H66.961V60.4811C66.961 60.8399 66.5397 61.0273 66.1324 61.0273C65.7111 61.0273 65.3038 60.8399 65.3038 60.4811V51.1371H62.8856C62.5427 51.1371 62.3394 50.7782 62.3394 50.3722C62.3394 50.0134 62.5114 49.6233 62.8856 49.6233L69.3633 49.6239Z" fill="#27384D"/>
<path id="Vector_8" d="M74.7432 54.6623H77.1456C77.4885 54.6623 77.6918 54.9746 77.6918 55.3334C77.6918 55.6298 77.5204 55.9708 77.1456 55.9708H74.7432V59.5593H79.3764C79.72 59.5593 79.9227 59.9022 79.9227 60.3075C79.9227 60.6511 79.7512 61.0252 79.3764 61.0252H73.8228C73.464 61.0252 73.0898 60.8378 73.0898 60.479V50.1694C73.0898 49.8105 73.464 49.6238 73.8228 49.6238H79.3764C79.7512 49.6238 79.9227 49.9979 79.9227 50.3415C79.9227 50.7468 79.72 51.0904 79.3764 51.0904H74.7432V54.6623Z" fill="#27384D"/>
<path id="Vector_9" d="M83.1421 50.1543C83.142 50.0833 83.1561 50.013 83.1837 49.9475C83.2114 49.8821 83.2518 49.8229 83.3028 49.7734C83.3538 49.7239 83.4142 49.6852 83.4804 49.6596C83.5466 49.6339 83.6173 49.6218 83.6883 49.624H86.6521C88.6178 49.624 90.24 50.3889 90.24 52.8065C90.24 54.6625 89.2884 55.5829 88.0404 55.8952L90.2247 59.998C90.2656 60.0692 90.2876 60.1498 90.2884 60.2319C90.2884 60.6532 89.7581 61.0746 89.2903 61.0746C89.0092 61.0746 88.7912 60.8872 88.635 60.5908L86.3577 56.1291H84.7821V60.4812C84.7821 60.84 84.3767 61.0274 83.9535 61.0274C83.5475 61.0274 83.1421 60.84 83.1421 60.4812V50.1543ZM84.7802 51.0906V54.8008H86.6521C87.8224 54.8008 88.5866 54.3018 88.5866 52.9448C88.5866 51.5878 87.8217 51.0887 86.6521 51.0887L84.7802 51.0906Z" fill="#27384D"/>
<g id="Mark">
<path id="Vector_10" d="M52.293 2.74683C52.293 2.74683 47.0512 7.3417 46.8116 7.52017C46.5719 7.69863 39.2783 15.156 39.3383 15.3975C39.3982 15.6391 40.664 17.4856 41.7488 17.1873C41.9566 17.1299 42.441 16.847 43.0873 16.4282C42.3996 17.1797 41.8846 17.7291 41.6571 17.9082C41.6571 17.9082 41.3772 20.2703 41.3772 20.9453C41.3772 21.6203 42.3288 24.3196 42.4971 24.5605C42.6654 24.8015 48.0423 26.3452 48.4885 26.3452C48.6969 26.3452 49.2922 25.98 49.9041 25.5555C49.8792 25.6092 49.8579 25.6646 49.8404 25.7212C49.5363 26.8047 51.4243 28.0629 51.6678 28.1235C51.9112 28.184 59.5248 20.916 59.7077 20.6757C59.8906 20.4354 65.0355 14.6352 65.0355 14.6352C63.3191 14.1878 52.4702 15.8622 52.293 2.74683Z" fill="#8FB397"/>
<path id="Vector_11" d="M37.6128 20.1584C37.1093 26.2652 40.068 30.6115 47.2449 29.9799L36.6057 36.448C36.6057 36.448 34.575 35.1261 34.5279 34.982C34.4807 34.838 31.4589 32.0074 31.4589 32.0074C31.4589 32.0074 31.3174 30.9238 31.4589 30.6383C31.6004 30.3527 37.6128 20.1584 37.6128 20.1584Z" fill="#F9C482"/>
<path id="Vector_12" d="M66.2931 13.8001C66.2011 13.7079 66.0918 13.6347 65.9715 13.5848C65.8512 13.5349 65.7222 13.5092 65.592 13.5092C65.4617 13.5092 65.3328 13.5349 65.2125 13.5848C65.0921 13.6347 64.9829 13.7079 64.8909 13.8001L54.3696 24.3213C53.3645 25.2276 51.446 25.5903 50.5396 25.3487L63.4842 12.4004C63.6696 12.2141 63.7737 11.962 63.7737 11.6993C63.7737 11.4365 63.6696 11.1844 63.4842 10.9981C63.2978 10.813 63.0457 10.7091 62.783 10.7091C62.5203 10.7091 62.2683 10.813 62.0819 10.9981L48.876 24.1983C47.4101 25.6643 45.0314 25.9039 43.4322 24.5858C43.0035 24.2344 42.6531 23.7971 42.4037 23.3022C42.1542 22.8072 42.0111 22.2655 41.9836 21.7119C41.9561 21.1583 42.0448 20.605 42.244 20.0878C42.4432 19.5705 42.7485 19.1007 43.1403 18.7085L56.4666 5.38218C56.5589 5.2899 56.6321 5.18035 56.6821 5.05978C56.732 4.93921 56.7577 4.80998 56.7577 4.67947C56.7577 4.54896 56.732 4.41972 56.6821 4.29915C56.6321 4.17858 56.5589 4.06903 56.4666 3.97675C56.2801 3.79067 56.0274 3.68616 55.7639 3.68616C55.5004 3.68616 55.2477 3.79067 55.0612 3.97675L42.1128 16.9251C41.8712 16.0188 41.8336 14.4929 43.1403 13.0951L53.664 2.57197C53.7562 2.47992 53.8292 2.37062 53.8791 2.25032C53.929 2.13002 53.9546 2.00107 53.9546 1.87085C53.9546 1.74062 53.929 1.61168 53.8791 1.49137C53.8292 1.37107 53.7562 1.26178 53.664 1.16973C53.572 1.07761 53.4627 1.00453 53.3424 0.954674C53.2221 0.904815 53.0931 0.87915 52.9629 0.87915C52.8327 0.87915 52.7037 0.904815 52.5834 0.954674C52.4631 1.00453 52.3539 1.07761 52.2618 1.16973L41.7348 11.698C41.281 12.1531 40.9035 12.6785 40.6169 13.2538L29.986 31.0068C29.5264 31.7716 29.8585 32.7838 30.6967 33.0961C31.5359 33.4083 32.2987 33.8964 32.9339 34.5277C33.5668 35.1607 34.0552 35.9233 34.3654 36.763C34.6778 37.6011 35.688 37.9338 36.4554 37.4736L54.2077 26.8434C54.7844 26.5588 55.3103 26.1811 55.7642 25.7254L66.2886 15.1991C66.4739 15.0134 66.5779 14.7619 66.5779 14.4996C66.5779 14.2373 66.4739 13.9857 66.2886 13.8001H66.2931ZM36.2961 35.253C36.0019 34.2877 35.4745 33.4098 34.7603 32.6969C34.0462 31.9839 33.1673 31.458 32.2015 31.1655L40.2695 17.6957C40.3804 18.0451 40.5221 18.3841 40.6927 18.7085C40.091 19.8355 39.8675 21.1261 40.0553 22.3897C40.2431 23.6534 40.8321 24.8232 41.7355 25.7266C42.6389 26.6299 43.8088 27.2189 45.0725 27.4065C46.3362 27.5942 47.6267 27.3706 48.7537 26.7688C49.0779 26.9395 49.4166 27.0811 49.7658 27.1921L36.2961 35.253Z" fill="#27384D"/>
<path id="Vector_13" d="M66.4797 42.8545H25.7237L30.2701 40.6791C31.9152 39.8913 32.4079 37.6879 31.1318 36.3851C31.1229 36.3755 31.1134 36.3666 31.1038 36.357L31.0764 36.3296C29.7736 35.0548 27.5708 35.5463 26.7824 37.1913L23.584 43.88H66.4797C66.6157 43.88 66.7461 43.826 66.8423 43.7298C66.9384 43.6337 66.9924 43.5032 66.9924 43.3672C66.9924 43.2312 66.9384 43.1008 66.8423 43.0047C66.7461 42.9085 66.6157 42.8545 66.4797 42.8545Z" fill="#27384D"/>
</g>
</g>
</svg>
