<svg width="125" height="48" viewBox="0 0 125 48" fill="none" xmlns="http://www.w3.org/2000/svg">
<path fill-rule="evenodd" clip-rule="evenodd" d="M93.4163 31.8849L108.836 0.796875H108.914L124.333 31.8849H117.303L114.701 26.4881L112.356 21.5474H112.33L110.856 18.5278C110.441 17.6959 110.053 16.8976 109.691 16.133C109.354 15.346 109.03 14.4353 108.719 13.4009C108.435 14.4128 108.124 15.3123 107.787 16.0993C107.451 16.8863 107.075 17.6959 106.661 18.5278L105.187 21.5474H105.179L102.829 26.4881H102.816L100.213 31.8849H93.4163ZM56.2709 1.52812V1.54405L72.884 18.4555L89.1965 1.50649V31.88H82.4384V23.1777C82.4384 22.1882 82.4516 21.0752 82.4771 19.8384C82.529 18.6017 82.6587 17.185 82.8657 15.5884C82.063 16.7577 81.2862 17.7696 80.5354 18.6241C79.8105 19.4786 79.137 20.2657 78.5158 20.9852L72.7675 27.6638L66.8249 20.9852C66.2293 20.3106 65.5171 19.5011 64.6884 18.5567C63.8857 17.5897 63.1089 16.5666 62.3581 15.4872C62.5651 17.1288 62.6816 18.5679 62.7076 19.8047C62.7594 21.0415 62.7854 22.1658 62.7854 23.1777V31.88H56.2603V6.99238H46.6604V31.8851H39.436V6.99238H30.8912V1.52812H56.2709ZM0 1.52819V31.8852H11.885C14.6815 31.8852 17.2191 31.4916 19.4977 30.7046C21.8022 29.9176 23.7831 28.8382 25.4403 27.4665C27.1233 26.0724 28.418 24.4533 29.3243 22.6094C30.2305 20.7655 30.6837 18.7979 30.6837 16.7067C30.6837 14.6154 30.2305 12.6478 29.3243 10.8039C28.418 8.96002 27.1233 7.35223 25.4403 5.98055C23.7831 4.58636 21.8022 3.49576 19.4977 2.70873C17.2191 1.92171 14.6815 1.52819 11.885 1.52819H0ZM11.2636 26.4209H6.75818V6.99241H11.2636C13.2315 6.99241 14.9664 7.23981 16.4682 7.7345C17.97 8.2292 19.2258 8.9263 20.2357 9.82574C21.2714 10.7027 22.0482 11.7371 22.5661 12.9289C23.1098 14.0983 23.3817 15.3575 23.3817 16.7067C23.3817 18.0559 23.1098 19.3151 22.5661 20.4844C22.0482 21.6537 21.2714 22.6881 20.2357 23.5876C19.2258 24.4646 17.97 25.1617 16.4682 25.6788C14.9664 26.1735 13.2315 26.4209 11.2636 26.4209Z" fill="#008080"/>
<path d="M0.0078125 39.7976V39.1182H4.56305V39.7976H2.72255V45.1119H1.84831V39.7976H0.0078125ZM5.67096 45.1119V38.7188H6.49919V41.6821C6.673 41.4735 6.88771 41.3136 7.14336 41.2029C7.39898 41.0917 7.67249 41.0364 7.9639 41.0364C8.29111 41.0364 8.59272 41.1073 8.86883 41.2495C9.15 41.3872 9.3775 41.5892 9.55136 41.8554C9.72512 42.1175 9.81202 42.4369 9.81202 42.8147V45.1119H8.98384V42.9143C8.98384 42.5989 8.87393 42.3216 8.65408 42.0816C8.43937 41.8376 8.13516 41.7155 7.74149 41.7155C7.41943 41.7155 7.13057 41.8177 6.87495 42.0219C6.62444 42.2217 6.49919 42.5125 6.49919 42.8943V45.1119H5.67096ZM13.3857 45.1921C12.9051 45.1921 12.4731 45.0987 12.0897 44.9123C11.7114 44.7258 11.4123 44.4728 11.1924 44.153C10.9777 43.8288 10.8703 43.4693 10.8703 43.0742C10.8703 42.6969 10.9751 42.355 11.1848 42.0485C11.3944 41.738 11.6756 41.4912 12.0283 41.3092C12.3862 41.1272 12.7799 41.0364 13.2093 41.0364C13.6336 41.0364 14.0222 41.1251 14.375 41.3027C14.7277 41.4758 15.0089 41.7109 15.2185 42.0085C15.4282 42.3061 15.533 42.6436 15.533 43.021V43.3139H12.5268C12.3939 43.3139 12.2584 43.3093 12.1203 43.3005C11.9823 43.2916 11.8468 43.2784 11.7139 43.2607C11.7701 43.6159 11.9542 43.9134 12.266 44.153C12.5831 44.3926 12.9588 44.5126 13.3934 44.5126C13.6848 44.5126 13.9558 44.4552 14.2063 44.3396C14.4568 44.2239 14.6587 44.0707 14.8121 43.8798L15.0422 44.6992C14.8223 44.8547 14.5692 44.9764 14.2829 45.0654C14.0018 45.1496 13.7027 45.1921 13.3857 45.1921ZM11.6909 42.7743C11.967 42.7344 12.2456 42.7146 12.5268 42.7146H14.0529C14.1654 42.7146 14.2753 42.7189 14.3826 42.7278C14.4951 42.7322 14.6076 42.7389 14.72 42.7477C14.6485 42.4368 14.4695 42.1817 14.1833 41.9819C13.897 41.7778 13.5723 41.6755 13.2093 41.6755C12.8361 41.6755 12.5089 41.7844 12.2277 42.0019C11.9465 42.2149 11.7676 42.4726 11.6909 42.7743ZM19.1655 45.1119V39.1182H21.4278C22.0515 39.1182 22.5935 39.2072 23.0536 39.3844C23.5189 39.562 23.9023 39.7977 24.2039 40.0905C24.5055 40.3836 24.7305 40.7078 24.8788 41.063C25.0271 41.4138 25.1012 41.7645 25.1012 42.1152C25.1012 42.466 25.0271 42.8191 24.8788 43.1743C24.7305 43.5247 24.5055 43.8467 24.2039 44.1398C23.9023 44.4326 23.5189 44.6681 23.0536 44.8457C22.5935 45.0233 22.0515 45.1119 21.4278 45.1119H19.1655ZM20.0398 44.4325H21.3358C21.8675 44.4325 22.3149 44.3617 22.6778 44.2196C23.0408 44.073 23.3348 43.8843 23.5598 43.6535C23.7847 43.4183 23.9457 43.165 24.0429 42.8943C24.1451 42.6233 24.1963 42.3637 24.1963 42.1152C24.1963 41.8664 24.1451 41.6068 24.0429 41.3358C23.9457 41.0651 23.7847 40.8142 23.5598 40.5834C23.3348 40.3482 23.0408 40.1594 22.6778 40.0173C22.3149 39.8707 21.8675 39.7976 21.3358 39.7976H20.0398V44.4325ZM26.3011 45.1119V41.1161H27.1293V45.1119H26.3011ZM26.7152 40.3969C26.5618 40.3969 26.4315 40.3504 26.3241 40.257C26.2167 40.164 26.1631 40.0505 26.1631 39.9172C26.1631 39.7798 26.2167 39.6665 26.3241 39.5779C26.4315 39.4845 26.5618 39.438 26.7152 39.438C26.8737 39.438 27.0041 39.4845 27.1063 39.5779C27.2137 39.6665 27.2674 39.7798 27.2674 39.9172C27.2674 40.0505 27.2137 40.164 27.1063 40.257C27.0041 40.3504 26.8737 40.3969 26.7152 40.3969ZM30.4616 47.1899C30.1089 47.1899 29.7868 47.1456 29.4954 47.0566C29.2091 46.968 28.9535 46.8458 28.7285 46.6904L28.9586 45.8778C29.1119 46.0691 29.3164 46.2241 29.572 46.3441C29.8277 46.4641 30.1217 46.5239 30.454 46.5239C30.9703 46.5239 31.387 46.3883 31.704 46.1177C32.0261 45.8467 32.1871 45.4981 32.1871 45.072V44.5858C31.9826 44.7634 31.7398 44.9055 31.4586 45.0122C31.1825 45.1141 30.886 45.1656 30.569 45.1656C30.1498 45.1656 29.7663 45.0743 29.4187 44.8923C29.071 44.7059 28.7924 44.4574 28.5828 44.1465C28.3783 43.8355 28.276 43.4914 28.276 43.114C28.276 42.7367 28.3783 42.3925 28.5828 42.0816C28.7924 41.7711 29.071 41.5245 29.4187 41.3424C29.7663 41.156 30.1498 41.063 30.569 41.063C30.886 41.063 31.1825 41.114 31.4586 41.2163C31.7398 41.3182 31.9826 41.4602 32.1871 41.6423V41.1161H32.954V45.1119C32.954 45.5472 32.8364 45.9203 32.6012 46.2308C32.3711 46.5417 32.0669 46.779 31.6886 46.9433C31.3103 47.1076 30.9013 47.1899 30.4616 47.1899ZM30.6764 44.5126C30.9678 44.5126 31.2311 44.4506 31.4663 44.3262C31.7065 44.1973 31.8957 44.0286 32.0337 43.82C32.1769 43.6069 32.2484 43.3717 32.2484 43.114C32.2484 42.8567 32.1769 42.6233 32.0337 42.4147C31.8957 42.2016 31.7065 42.033 31.4663 41.9086C31.2311 41.7801 30.9678 41.7155 30.6764 41.7155C30.3849 41.7155 30.1191 41.7801 29.8788 41.9086C29.6436 42.033 29.4545 42.2016 29.3113 42.4147C29.1733 42.6233 29.1043 42.8567 29.1043 43.114C29.1043 43.3717 29.1733 43.6069 29.3113 43.82C29.4545 44.0286 29.6436 44.1973 29.8788 44.3262C30.1191 44.4506 30.3849 44.5126 30.6764 44.5126ZM34.4216 45.1119V41.1161H35.2498V45.1119H34.4216ZM34.8357 40.3969C34.6823 40.3969 34.552 40.3504 34.4446 40.257C34.3372 40.164 34.2836 40.0505 34.2836 39.9172C34.2836 39.7798 34.3372 39.6665 34.4446 39.5779C34.552 39.4845 34.6823 39.438 34.8357 39.438C34.9942 39.438 35.1245 39.4845 35.2268 39.5779C35.3342 39.6665 35.3879 39.7798 35.3879 39.9172C35.3879 40.0505 35.3342 40.164 35.2268 40.257C35.1245 40.3504 34.9942 40.3969 34.8357 40.3969ZM37.2554 45.1119V41.7155H36.2125V41.1161H37.2785V39.7844H38.0606V41.1161H39.2033V41.7155H38.0836V45.1119H37.2554ZM41.914 45.1656C41.4947 45.1656 41.1113 45.0743 40.7637 44.8923C40.416 44.7059 40.1374 44.4574 39.9277 44.1465C39.7233 43.8355 39.621 43.4914 39.621 43.114C39.621 42.7367 39.7233 42.3925 39.9277 42.0816C40.1374 41.7711 40.416 41.5245 40.7637 41.3424C41.1113 41.156 41.4947 41.063 41.914 41.063C42.2311 41.063 42.5274 41.114 42.8034 41.2163C43.0848 41.3182 43.3276 41.4602 43.5321 41.6423V41.1161H44.2991V45.1119H43.5321V44.5858C43.3276 44.7634 43.0848 44.9055 42.8034 45.0122C42.5274 45.1141 42.2311 45.1656 41.914 45.1656ZM42.0213 44.5126C42.3127 44.5126 42.5759 44.4506 42.811 44.3262C43.0517 44.1973 43.2404 44.0286 43.3786 43.82C43.5219 43.6069 43.5933 43.3717 43.5933 43.114C43.5933 42.8567 43.5219 42.6233 43.3786 42.4147C43.2404 42.2016 43.0517 42.033 42.811 41.9086C42.5759 41.7801 42.3127 41.7155 42.0213 41.7155C41.7299 41.7155 41.464 41.7801 41.2238 41.9086C40.9886 42.033 40.7994 42.2016 40.6563 42.4147C40.5183 42.6233 40.4493 42.8567 40.4493 43.114C40.4493 43.3717 40.5183 43.6069 40.6563 43.82C40.7994 44.0286 40.9886 44.1973 41.2238 44.3262C41.464 44.4506 41.7299 44.5126 42.0213 44.5126ZM45.7664 45.1119V38.7188H46.5946V45.1119H45.7664ZM52.3774 45.3117L49.7166 39.1182H50.6061L52.1703 42.7146C52.2268 42.839 52.2728 42.9587 52.3085 43.0742C52.3442 43.1853 52.3825 43.3182 52.4237 43.4736C52.4645 43.3182 52.5028 43.1853 52.5385 43.0742C52.5793 42.9587 52.6257 42.839 52.6767 42.7146L54.2562 38.9184L55.8285 42.7146C55.8744 42.8257 55.9177 42.9386 55.959 43.0542C56.0049 43.165 56.0457 43.3049 56.0814 43.4736C56.1223 43.3049 56.1635 43.165 56.2043 43.0542C56.2451 42.9386 56.291 42.8257 56.3421 42.7146L57.9067 39.1182H58.7349L56.0814 45.3117L54.4866 41.4226C54.4403 41.307 54.3969 41.1962 54.3561 41.0896C54.3153 40.9785 54.274 40.8389 54.2332 40.6702C54.1924 40.8389 54.1516 40.9785 54.1108 41.0896C54.07 41.1962 54.0262 41.307 53.9802 41.4226L52.3774 45.3117ZM60.9705 45.1921C60.5257 45.1921 60.1193 45.0987 59.7511 44.9123C59.3833 44.7258 59.0891 44.475 58.8693 44.1597C58.6546 43.8443 58.5474 43.4958 58.5474 43.114C58.5474 42.7278 58.6546 42.3792 58.8693 42.0683C59.0891 41.7534 59.3833 41.5023 59.7511 41.3158C60.1193 41.1294 60.5257 41.0364 60.9705 41.0364C61.4203 41.0364 61.8268 41.1294 62.1899 41.3158C62.558 41.5023 62.8493 41.7534 63.064 42.0683C63.2838 42.3792 63.3939 42.7278 63.3939 43.114C63.3939 43.4958 63.2838 43.8443 63.064 44.1597C62.8493 44.475 62.558 44.7258 62.1899 44.9123C61.8268 45.0987 61.4203 45.1921 60.9705 45.1921ZM60.9705 44.5126C61.2672 44.5126 61.5355 44.4506 61.7757 44.3262C62.016 44.1973 62.2077 44.0286 62.351 43.82C62.4943 43.6069 62.5657 43.3717 62.5657 43.114C62.5657 42.8567 62.4943 42.6233 62.351 42.4147C62.2077 42.2016 62.016 42.033 61.7757 41.9086C61.5355 41.7801 61.2672 41.7155 60.9705 41.7155C60.6741 41.7155 60.4058 41.7801 60.1652 41.9086C59.925 42.033 59.7332 42.2016 59.5904 42.4147C59.4471 42.6233 59.3757 42.8567 59.3757 43.114C59.3757 43.3717 59.4471 43.6069 59.5904 43.82C59.7332 44.0286 59.925 44.1973 60.1652 44.3262C60.4058 44.4506 60.6741 44.5126 60.9705 44.5126ZM64.5419 45.1119V41.1161H65.3089V41.8486C65.4722 41.6134 65.6894 41.427 65.9607 41.2893C66.2315 41.1471 66.5538 41.0762 66.9267 41.0762L67.1337 41.7956C67.0368 41.769 66.9241 41.7556 66.7966 41.7556C66.3671 41.7556 66.0219 41.8752 65.7613 42.1152C65.5002 42.3504 65.3701 42.6879 65.3701 43.1273V45.1119H64.5419ZM70.9913 45.1119L68.9131 42.9143L70.6231 41.1161H71.5819L69.9024 42.8611L72.0419 45.1119H70.9913ZM67.9926 45.1119V38.7188H68.8208V45.1119H67.9926ZM74.7154 45.1921C74.2349 45.1921 73.8029 45.0987 73.4194 44.9123C73.041 44.7258 72.7421 44.4728 72.5223 44.153C72.3076 43.8288 72.2001 43.4693 72.2001 43.0742C72.2001 42.6969 72.3051 42.355 72.5147 42.0485C72.7243 41.738 73.0053 41.4912 73.3582 41.3092C73.7158 41.1272 74.1095 41.0364 74.5389 41.0364C74.9632 41.0364 75.3518 41.1251 75.7047 41.3027C76.0576 41.4758 76.3387 41.7109 76.5483 42.0085C76.7579 42.3061 76.8625 42.6436 76.8625 43.021V43.3139H73.8565C73.7234 43.3139 73.5882 43.3093 73.4501 43.3005C73.3119 43.2916 73.1767 43.2784 73.0436 43.2607C73.0997 43.6159 73.2838 43.9134 73.5959 44.153C73.9126 44.3926 74.2885 44.5126 74.723 44.5126C75.0147 44.5126 75.2855 44.4552 75.5359 44.3396C75.7864 44.2239 75.9883 44.0707 76.1418 43.8798L76.3718 44.6992C76.152 44.8547 75.899 44.9764 75.6125 45.0654C75.3314 45.1496 75.0325 45.1921 74.7154 45.1921ZM73.0206 42.7743C73.2966 42.7344 73.5755 42.7146 73.8565 42.7146H75.3825C75.4951 42.7146 75.6048 42.7189 75.7124 42.7278C75.8246 42.7322 75.9373 42.7389 76.05 42.7477C75.9781 42.4368 75.7991 42.1817 75.513 41.9819C75.2268 41.7778 74.902 41.6755 74.5389 41.6755C74.1656 41.6755 73.8387 41.7844 73.5576 42.0019C73.2762 42.2149 73.0972 42.4726 73.0206 42.7743ZM77.9683 45.1119V41.1161H78.7349V41.8486C78.8986 41.6134 79.1159 41.427 79.3867 41.2893C79.658 41.1471 79.9798 41.0762 80.3531 41.0762L80.5602 41.7956C80.4632 41.769 80.3506 41.7556 80.2226 41.7556C79.7932 41.7556 79.4484 41.8752 79.1873 42.1152C78.9267 42.3504 78.7966 42.6879 78.7966 43.1273V45.1119H77.9683ZM83.118 45.1119L86.0398 38.9184H86.0551L88.9768 45.1119H88.0491L87.2362 43.3337H84.8204L83.9998 45.1119H83.118ZM85.1121 42.7012H86.9445L86.4003 41.5156C86.3336 41.3646 86.2698 41.2162 86.2086 41.0696C86.1473 40.923 86.0857 40.7476 86.0245 40.5434C85.9632 40.7476 85.9041 40.923 85.848 41.0696C85.7919 41.2117 85.7281 41.3602 85.6563 41.5156L85.1121 42.7012ZM91.7426 45.1921C91.2927 45.1921 90.8837 45.0987 90.5155 44.9123C90.1473 44.7258 89.8535 44.475 89.6337 44.1597C89.4139 43.8443 89.3038 43.4958 89.3038 43.114C89.3038 42.7322 89.4139 42.3837 89.6337 42.0683C89.8535 41.7534 90.1473 41.5023 90.5155 41.3158C90.8837 41.1294 91.2927 41.0364 91.7426 41.0364C92.0746 41.0364 92.3867 41.0874 92.6779 41.1897C92.9696 41.2916 93.2251 41.427 93.445 41.5957L93.192 42.5014C93.064 42.2795 92.8697 42.0932 92.6091 41.9422C92.3535 41.7911 92.0619 41.7155 91.7349 41.7155C91.4382 41.7155 91.1673 41.7801 90.922 41.9086C90.6818 42.033 90.49 42.2016 90.3467 42.4147C90.2035 42.6233 90.132 42.8567 90.132 43.114C90.132 43.3673 90.2035 43.6004 90.3467 43.8134C90.49 44.0265 90.6818 44.1973 90.922 44.3262C91.1673 44.4506 91.4382 44.5126 91.7349 44.5126C92.0619 44.5126 92.3535 44.4395 92.6091 44.293C92.8697 44.1464 93.064 43.9577 93.192 43.7269L93.445 44.6326C93.2251 44.8014 92.9696 44.9365 92.6779 45.0388C92.3867 45.1407 92.0746 45.1921 91.7426 45.1921ZM96.4279 45.1656C96.0087 45.1656 95.6252 45.0743 95.2779 44.8923C94.9301 44.7059 94.6516 44.4574 94.442 44.1465C94.2375 43.8355 94.135 43.4914 94.135 43.114C94.135 42.7367 94.2375 42.3925 94.442 42.0816C94.6516 41.7711 94.9301 41.5245 95.2779 41.3424C95.6252 41.156 96.0087 41.063 96.4279 41.063C96.7451 41.063 97.0415 41.114 97.3178 41.2163C97.5989 41.3182 97.8416 41.4602 98.0461 41.6423V41.1161H98.8131V45.1119H98.0461V44.5858C97.8416 44.7634 97.5989 44.9055 97.3178 45.0122C97.0415 45.1141 96.7451 45.1656 96.4279 45.1656ZM96.5355 44.5126C96.8268 44.5126 97.0899 44.4506 97.3255 44.3262C97.5657 44.1973 97.7549 44.0286 97.8927 43.82C98.0359 43.6069 98.1074 43.3717 98.1074 43.114C98.1074 42.8567 98.0359 42.6233 97.8927 42.4147C97.7549 42.2016 97.5657 42.033 97.3255 41.9086C97.0899 41.7801 96.8268 41.7155 96.5355 41.7155C96.2438 41.7155 95.9781 41.7801 95.7379 41.9086C95.5028 42.033 95.3136 42.2016 95.1703 42.4147C95.0325 42.6233 94.9632 42.8567 94.9632 43.114C94.9632 43.3717 95.0325 43.6069 95.1703 43.82C95.3136 44.0286 95.5028 44.1973 95.7379 44.3262C95.9781 44.4506 96.2438 44.5126 96.5355 44.5126ZM102.252 45.1656C101.833 45.1656 101.449 45.0743 101.102 44.8923C100.754 44.7059 100.476 44.4574 100.266 44.1465C100.061 43.8355 99.9586 43.4914 99.9586 43.114C99.9586 42.7367 100.061 42.3925 100.266 42.0816C100.476 41.7711 100.754 41.5245 101.102 41.3424C101.449 41.156 101.833 41.063 102.252 41.063C102.554 41.063 102.837 41.1094 103.103 41.2029C103.369 41.2959 103.604 41.4248 103.809 41.5891V38.7188H104.637V45.1119H103.87V44.5858C103.666 44.7634 103.423 44.9055 103.141 45.0122C102.865 45.1141 102.569 45.1656 102.252 45.1656ZM102.359 44.5126C102.651 44.5126 102.914 44.4506 103.149 44.3262C103.39 44.1973 103.578 44.0286 103.717 43.82C103.86 43.6069 103.931 43.3717 103.931 43.114C103.931 42.8567 103.86 42.6233 103.717 42.4147C103.578 42.2016 103.39 42.033 103.149 41.9086C102.914 41.7801 102.651 41.7155 102.359 41.7155C102.068 41.7155 101.802 41.7801 101.562 41.9086C101.327 42.033 101.138 42.2016 100.994 42.4147C100.856 42.6233 100.787 42.8567 100.787 43.114C100.787 43.3717 100.856 43.6069 100.994 43.82C101.138 44.0286 101.327 44.1973 101.562 44.3262C101.802 44.4506 102.068 44.5126 102.359 44.5126ZM108.298 45.1921C107.817 45.1921 107.385 45.0987 107.002 44.9123C106.623 44.7258 106.324 44.4728 106.104 44.153C105.89 43.8288 105.783 43.4693 105.783 43.0742C105.783 42.6969 105.887 42.355 106.097 42.0485C106.306 41.738 106.588 41.4912 106.94 41.3092C107.298 41.1272 107.692 41.0364 108.121 41.0364C108.546 41.0364 108.934 41.1251 109.287 41.3027C109.64 41.4758 109.921 41.7109 110.131 42.0085C110.34 42.3061 110.445 42.6436 110.445 43.021V43.3139H107.439C107.306 43.3139 107.17 43.3093 107.033 43.3005C106.894 43.2916 106.759 43.2784 106.626 43.2607C106.682 43.6159 106.866 43.9134 107.178 44.153C107.495 44.3926 107.871 44.5126 108.305 44.5126C108.597 44.5126 108.868 44.4552 109.118 44.3396C109.369 44.2239 109.571 44.0707 109.724 43.8798L109.954 44.6992C109.734 44.8547 109.481 44.9764 109.195 45.0654C108.914 45.1496 108.615 45.1921 108.298 45.1921ZM106.603 42.7743C106.879 42.7344 107.158 42.7146 107.439 42.7146H108.965C109.078 42.7146 109.187 42.7189 109.295 42.7278C109.407 42.7322 109.52 42.7389 109.632 42.7477C109.561 42.4368 109.382 42.1817 109.095 41.9819C108.809 41.7778 108.484 41.6755 108.121 41.6755C107.748 41.6755 107.421 41.7844 107.14 42.0019C106.859 42.2149 106.68 42.4726 106.603 42.7743ZM111.55 45.1119V41.1161H112.317V41.6889C112.486 41.4714 112.698 41.3092 112.954 41.2029C113.214 41.0917 113.488 41.0364 113.774 41.0364C114.087 41.0364 114.373 41.1007 114.633 41.2295C114.894 41.3536 115.104 41.5289 115.262 41.7556C115.441 41.5156 115.671 41.3359 115.953 41.2163C116.239 41.0963 116.54 41.0364 116.857 41.0364C117.205 41.0364 117.522 41.1073 117.808 41.2495C118.1 41.3916 118.33 41.5913 118.498 41.8486C118.672 42.1019 118.759 42.4014 118.759 42.7477V45.1119H117.931V42.8345C117.931 42.4704 117.811 42.195 117.57 42.0085C117.335 41.8176 117.062 41.722 116.75 41.722C116.556 41.722 116.367 41.76 116.183 41.8354C116.004 41.911 115.855 42.0286 115.738 42.1884C115.625 42.3483 115.569 42.5569 115.569 42.8147V45.1119H114.741V42.8345C114.741 42.5812 114.682 42.3727 114.564 42.2084C114.452 42.0441 114.304 41.9221 114.12 41.842C113.941 41.7578 113.754 41.7155 113.56 41.7155C113.371 41.7155 113.184 41.7535 113 41.8288C112.821 41.9041 112.673 42.0219 112.555 42.1818C112.438 42.3417 112.379 42.5525 112.379 42.8147V45.1119H111.55ZM119.717 47.1098L121.212 44.526L119.264 41.1161H120.2L121.181 42.8479C121.268 43.0033 121.353 43.1561 121.434 43.3071C121.516 43.4581 121.598 43.6402 121.68 43.8532C121.767 43.6402 121.848 43.4581 121.925 43.3071C122.007 43.1517 122.094 42.9989 122.186 42.8479L123.183 41.1161H124.065L120.614 47.1098H119.717Z" fill="#008080"/>
</svg>
