<svg width="24" height="24" viewBox="0 0 24 24" fill="none" xmlns="http://www.w3.org/2000/svg">
<mask id="mask0_11108_31849" style="mask-type:alpha" maskUnits="userSpaceOnUse" x="0" y="0" width="24" height="24">
<rect width="24" height="24" fill="#D9D9D9"/>
</mask>
<g mask="url(#mask0_11108_31849)">
<path d="M11.7705 19C11.5513 19 11.3683 18.9266 11.2215 18.7797C11.0747 18.6329 11.0012 18.4499 11.0012 18.2308V12.6537L5.60499 5.83075C5.47049 5.65125 5.45224 5.46792 5.55024 5.28075C5.64841 5.09358 5.80516 5 6.02049 5H17.982C18.1973 5 18.3541 5.09358 18.4522 5.28075C18.5502 5.46792 18.532 5.65125 18.3975 5.83075L13.0012 12.6537V18.2308C13.0012 18.4499 12.9278 18.6329 12.781 18.7797C12.6342 18.9266 12.4512 19 12.232 19H11.7705ZM12.0012 12.3L16.9512 6H7.05124L12.0012 12.3Z" fill="#1C1B1F"/>
</g>
</svg>
