<svg width="24" height="25" viewBox="0 0 24 25" fill="none" xmlns="http://www.w3.org/2000/svg">
<path d="M7.33073 8.5026V6.5026C7.33073 3.9251 9.41823 1.83594 11.9974 1.83594C14.5766 1.83594 16.6641 3.9251 16.6641 6.5026V8.5026H19.3307C20.4349 8.5026 21.3307 9.39844 21.3307 10.5026V19.1693C21.3307 21.3776 19.5391 23.1693 17.3307 23.1693H6.66406C4.4549 23.1693 2.66406 21.3776 2.66406 19.1693V10.5026C2.66406 9.39844 3.55948 8.5026 4.66406 8.5026H7.33073ZM9.33073 8.5026H14.6641V6.5026C14.6641 5.02969 13.4682 3.83594 11.9974 3.83594C10.5266 3.83594 9.33073 5.02969 9.33073 6.5026V8.5026ZM4.66406 10.5026V19.1693C4.66406 20.2734 5.55948 21.1693 6.66406 21.1693H17.3307C18.4349 21.1693 19.3307 20.2734 19.3307 19.1693V10.5026H16.6641V12.8359C16.6641 13.3901 16.2182 13.8359 15.6641 13.8359C15.1099 13.8359 14.6641 13.3901 14.6641 12.8359V10.5026H9.33073V12.8359C9.33073 13.3901 8.8849 13.8359 8.33073 13.8359C7.77656 13.8359 7.33073 13.3901 7.33073 12.8359V10.5026H4.66406Z" fill="#7D879C"/>
</svg>
