<svg width="16" height="14" viewBox="0 0 16 14" fill="none" xmlns="http://www.w3.org/2000/svg">
<g id="icon">
<path id="Vector" d="M14.4231 10.2602V2.51164C14.4231 1.73578 13.7951 1.17153 13.0254 1.23198H12.9849C11.6278 1.34282 9.57187 2.03808 8.4173 2.75349L8.30591 2.82403C8.12361 2.93486 7.80959 2.93486 7.61717 2.82403L7.45515 2.72326C6.31071 2.00785 4.25477 1.33273 2.89764 1.2219C2.12793 1.16144 1.5 1.7358 1.5 2.50158V10.2602C1.5 10.8748 2.00637 11.4592 2.62417 11.5298L2.80646 11.56C4.2041 11.7414 6.3715 12.4568 7.60709 13.1319L7.63744 13.142C7.80961 13.2427 8.09318 13.2427 8.25522 13.142C9.49081 12.4568 11.6683 11.7514 13.0761 11.56L13.2888 11.5298C13.9167 11.4592 14.4231 10.8849 14.4231 10.2602Z" stroke="#636366" stroke-width="1.2" stroke-linecap="round" stroke-linejoin="round"/>
<path id="Vector_2" d="M7.96143 3.0354V12.6682" stroke="#636366" stroke-width="1.2" stroke-linecap="round" stroke-linejoin="round"/>
</g>
</svg>
