<svg width="15" height="14" viewBox="0 0 15 14" fill="none" xmlns="http://www.w3.org/2000/svg">
<g id="icon">
<path id="Vector" d="M13.9231 10.2602V2.51164C13.9231 1.73578 13.2951 1.17153 12.5254 1.23198H12.4849C11.1278 1.34282 9.07187 2.03808 7.9173 2.75349L7.80591 2.82403C7.62361 2.93486 7.30959 2.93486 7.11717 2.82403L6.95515 2.72326C5.81071 2.00785 3.75477 1.33273 2.39764 1.2219C1.62793 1.16144 1 1.7358 1 2.50158V10.2602C1 10.8748 1.50637 11.4592 2.12417 11.5298L2.30646 11.56C3.7041 11.7414 5.8715 12.4568 7.10709 13.1319L7.13744 13.142C7.30961 13.2427 7.59318 13.2427 7.75522 13.142C8.99081 12.4568 11.1683 11.7514 12.5761 11.56L12.7888 11.5298C13.4167 11.4592 13.9231 10.8849 13.9231 10.2602Z" fill="#636366" stroke="#636366" stroke-width="1.2" stroke-linecap="round" stroke-linejoin="round"/>
<g id="Vector_2">
<path d="M7.46143 3.0354V12.6682V3.0354Z" fill="#636366"/>
<path d="M7.46143 3.0354V12.6682" stroke="#636366" stroke-width="1.2" stroke-linecap="round" stroke-linejoin="round"/>
</g>
</g>
</svg>
