<svg width="121" height="162" viewBox="0 0 121 162" fill="none" xmlns="http://www.w3.org/2000/svg">
<path d="M111.631 105.483H96.8617V61.9906C96.8617 60.8467 96.6364 59.7141 96.1987 58.6573C95.7609 57.6006 95.1193 56.6404 94.3105 55.8316C93.5017 55.0228 92.5415 54.3812 91.4847 53.9434C90.428 53.5057 89.2953 53.2804 88.1515 53.2804H84.6907C82.3806 53.2804 80.1652 54.1981 78.5317 55.8316C76.8982 57.465 75.9805 59.6805 75.9805 61.9906V105.483H34.3206C33.4635 105.483 32.621 105.262 31.8748 104.84C31.1286 104.419 30.504 103.811 30.0617 103.077C29.6193 102.343 29.3742 101.507 29.3501 100.651C29.3259 99.794 29.5237 98.9456 29.924 98.1879L74.0165 14.7349C74.5662 13.6944 74.8994 12.5534 74.996 11.3806C75.0925 10.2078 74.9504 9.02763 74.5783 7.91128C74.2061 6.79493 73.6117 5.76557 72.8307 4.88532C72.0498 4.00507 71.0985 3.29219 70.0345 2.78971L67.4316 1.56058C65.4105 0.60617 63.0998 0.465244 60.9777 1.16696C58.8556 1.86867 57.0845 3.35931 56.0308 5.33046L2.25421 105.93C1.33847 107.643 0.859375 109.555 0.859375 111.498C0.859375 114.63 2.10373 117.634 4.3187 119.849C6.53366 122.064 9.53779 123.309 12.6702 123.309H75.9805V150.811C75.9805 152.182 76.2506 153.539 76.7753 154.806C77.3 156.073 78.069 157.224 79.0385 158.193C80.008 159.163 81.1589 159.932 82.4257 160.456C83.6924 160.981 85.05 161.251 86.4211 161.251C89.1901 161.251 91.8457 160.151 93.8037 158.193C95.7617 156.235 96.8617 153.58 96.8617 150.811V123.309H111.631C112.802 123.309 113.961 123.078 115.042 122.63C116.123 122.182 117.106 121.526 117.933 120.698C118.761 119.871 119.418 118.888 119.865 117.807C120.313 116.725 120.544 115.566 120.544 114.396C120.544 113.226 120.313 112.067 119.865 110.985C119.418 109.904 118.761 108.921 117.933 108.094C117.106 107.266 116.123 106.61 115.042 106.162C113.961 105.714 112.802 105.483 111.631 105.483Z" stroke="#3F3D56" stroke-width="0.415643" stroke-miterlimit="10"/>
</svg>
