<svg width="442" height="249" viewBox="0 0 442 249" fill="none" xmlns="http://www.w3.org/2000/svg">
<path d="M222.252 248.491C343.341 248.491 441.504 241.992 441.504 233.976C441.504 225.959 343.341 219.461 222.252 219.461C101.162 219.461 3 225.959 3 233.976C3 241.992 101.162 248.491 222.252 248.491Z" fill="#008080" fill-opacity="0.1"/>
<path d="M216.808 69.4141C181.086 69.4141 155.438 92.3324 155.438 145.808C155.438 206.415 181.086 222.458 216.808 222.458C252.53 222.458 279.706 204.887 279.706 145.808C279.706 82.6558 252.53 69.4141 216.808 69.4141ZM217.042 202.34C192.301 202.34 179.374 187.825 179.374 145.848C179.374 108.809 192.83 89.2766 217.572 89.2766C242.314 89.2766 255.769 102.107 255.769 145.848C255.769 186.767 241.784 202.34 217.042 202.34Z" fill="#2F2E41"/>
<path d="M134.053 180.186H119.284V136.694C119.284 134.384 118.366 132.168 116.732 130.535C115.099 128.901 112.883 127.984 110.573 127.984H107.113C105.969 127.984 104.836 128.209 103.779 128.647C102.723 129.084 101.762 129.726 100.954 130.535C100.145 131.344 99.5032 132.304 99.0654 133.36C98.6277 134.417 98.4024 135.55 98.4024 136.694V180.186H56.7424C55.8854 180.186 55.0429 179.965 54.2967 179.543C53.5505 179.122 52.9259 178.515 52.4836 177.781C52.0412 177.046 51.7961 176.211 51.7719 175.354C51.7478 174.497 51.9455 173.649 52.3459 172.891L96.4384 89.438C96.9881 88.3975 97.3213 87.2565 97.4178 86.0837C97.5144 84.9109 97.3723 83.7308 97.0002 82.6144C96.628 81.4981 96.0335 80.4687 95.2526 79.5884C94.4716 78.7082 93.5204 77.9953 92.4563 77.4928L89.8535 76.2637C87.8324 75.3093 85.5217 75.1684 83.3996 75.8701C81.2775 76.5718 79.5063 78.0625 78.4526 80.0336L24.6761 180.633C23.7603 182.346 23.2812 184.258 23.2813 186.201C23.2812 187.752 23.5867 189.288 24.1803 190.721C24.7738 192.154 25.6438 193.456 26.7406 194.552C27.8373 195.649 29.1393 196.519 30.5723 197.113C32.0052 197.706 33.5411 198.012 35.0921 198.012H98.4024V225.514C98.4024 226.885 98.6725 228.242 99.1971 229.509C99.7218 230.776 100.491 231.927 101.46 232.896C102.43 233.866 103.581 234.635 104.848 235.16C106.114 235.684 107.472 235.954 108.843 235.954C110.214 235.954 111.572 235.684 112.838 235.16C114.105 234.635 115.256 233.866 116.226 232.896C117.195 231.927 117.964 230.776 118.489 229.509C119.013 228.242 119.284 226.885 119.284 225.514V198.012H134.053C136.417 198.012 138.684 197.073 140.355 195.401C142.027 193.73 142.966 191.463 142.966 189.099C142.966 186.735 142.027 184.468 140.355 182.797C138.684 181.125 136.417 180.186 134.053 180.186Z" fill="#008080" fill-opacity="0.2"/>
<path d="M407.545 180.186H392.776V136.694C392.776 134.384 391.858 132.168 390.225 130.535C388.591 128.901 386.376 127.984 384.066 127.984H380.605C379.461 127.984 378.328 128.209 377.272 128.647C376.215 129.084 375.255 129.726 374.446 130.535C373.637 131.344 372.995 132.304 372.558 133.36C372.12 134.417 371.895 135.55 371.895 136.694V180.186H330.235C329.378 180.186 328.535 179.965 327.789 179.543C327.043 179.122 326.418 178.515 325.976 177.781C325.533 177.046 325.288 176.211 325.264 175.354C325.24 174.497 325.438 173.649 325.838 172.891L369.931 89.438C370.48 88.3975 370.813 87.2565 370.91 86.0837C371.007 84.9109 370.864 83.7308 370.492 82.6144C370.12 81.4981 369.526 80.4687 368.745 79.5884C367.964 78.7082 367.013 77.9953 365.949 77.4928L363.346 76.2637C361.325 75.3093 359.014 75.1684 356.892 75.8701C354.77 76.5718 352.999 78.0625 351.945 80.0336L298.168 180.633C297.253 182.346 296.773 184.258 296.773 186.201C296.773 189.333 298.018 192.337 300.233 194.552C302.448 196.767 305.452 198.012 308.584 198.012H371.895V225.514C371.895 228.283 372.995 230.938 374.953 232.896C376.911 234.854 379.566 235.954 382.335 235.954C385.104 235.954 387.76 234.854 389.718 232.896C391.676 230.938 392.776 228.283 392.776 225.514V198.012H407.545C409.909 198.012 412.176 197.073 413.847 195.401C415.519 193.73 416.458 191.463 416.458 189.099C416.458 186.735 415.519 184.468 413.847 182.797C412.176 181.125 409.909 180.186 407.545 180.186Z" fill="#008080" fill-opacity="0.2"/>
<path d="M136.631 179.983H121.862V136.491C121.862 135.347 121.636 134.214 121.199 133.157C120.761 132.101 120.119 131.14 119.311 130.332C118.502 129.523 117.542 128.881 116.485 128.443C115.428 128.006 114.295 127.78 113.152 127.78H109.691C107.381 127.78 105.165 128.698 103.532 130.332C101.898 131.965 100.981 134.181 100.981 136.491V179.983H59.3206C58.4635 179.983 57.621 179.762 56.8748 179.34C56.1286 178.919 55.504 178.311 55.0617 177.577C54.6193 176.843 54.3742 176.007 54.3501 175.151C54.3259 174.294 54.5237 173.446 54.924 172.688L99.0165 89.2349C99.5662 88.1944 99.8994 87.0534 99.996 85.8806C100.093 84.7078 99.9504 83.5276 99.5783 82.4113C99.2061 81.2949 98.6117 80.2656 97.8307 79.3853C97.0498 78.5051 96.0985 77.7922 95.0345 77.2897L92.4316 76.0606C90.4105 75.1062 88.0998 74.9652 85.9777 75.667C83.8556 76.3687 82.0845 77.8593 81.0308 79.8305L27.2542 180.43C26.3385 182.143 25.8594 184.055 25.8594 185.998C25.8594 189.13 27.1037 192.134 29.3187 194.349C31.5337 196.564 34.5378 197.809 37.6702 197.809H100.981V225.311C100.981 226.682 101.251 228.039 101.775 229.306C102.3 230.573 103.069 231.724 104.039 232.693C105.008 233.663 106.159 234.432 107.426 234.956C108.692 235.481 110.05 235.751 111.421 235.751C114.19 235.751 116.846 234.651 118.804 232.693C120.762 230.735 121.862 228.08 121.862 225.311V197.809H136.631C137.802 197.809 138.961 197.578 140.042 197.13C141.123 196.682 142.106 196.026 142.933 195.198C143.761 194.371 144.418 193.388 144.865 192.307C145.313 191.225 145.544 190.066 145.544 188.896C145.544 187.726 145.313 186.567 144.865 185.485C144.418 184.404 143.761 183.421 142.933 182.594C142.106 181.766 141.123 181.11 140.042 180.662C138.961 180.214 137.802 179.983 136.631 179.983Z" stroke="#3F3D56" stroke-width="0.415643" stroke-miterlimit="10"/>
<path d="M410.538 178.319H395.768V134.827C395.768 133.683 395.543 132.55 395.105 131.493C394.667 130.437 394.026 129.476 393.217 128.668C392.408 127.859 391.448 127.217 390.391 126.779C389.334 126.342 388.202 126.116 387.058 126.116H383.597C381.287 126.116 379.071 127.034 377.438 128.668C375.804 130.301 374.887 132.516 374.887 134.827V178.319H333.227C332.37 178.319 331.527 178.098 330.781 177.676C330.035 177.255 329.41 176.647 328.968 175.913C328.526 175.179 328.28 174.343 328.256 173.487C328.232 172.63 328.43 171.782 328.83 171.024L372.923 87.5708C373.472 86.5304 373.806 85.3893 373.902 84.2165C373.999 83.0438 373.857 81.8636 373.485 80.7472C373.112 79.6309 372.518 78.6015 371.737 77.7213C370.956 76.841 370.005 76.1281 368.941 75.6257L366.338 74.3965C364.317 73.4421 362.006 73.3012 359.884 74.0029C357.762 74.7046 355.991 76.1952 354.937 78.1664L301.16 178.766C300.245 180.479 299.766 182.391 299.766 184.334C299.766 187.466 301.01 190.47 303.225 192.685C305.44 194.9 308.444 196.145 311.576 196.145H374.887V223.647C374.887 225.018 375.157 226.375 375.682 227.642C376.206 228.909 376.975 230.06 377.945 231.029C378.914 231.999 380.065 232.768 381.332 233.292C382.599 233.817 383.956 234.087 385.327 234.087C388.096 234.087 390.752 232.987 392.71 231.029C394.668 229.071 395.768 226.416 395.768 223.647V196.145H410.537C411.708 196.145 412.867 195.914 413.948 195.466C415.03 195.018 416.012 194.362 416.84 193.534C417.667 192.706 418.324 191.724 418.772 190.643C419.22 189.561 419.45 188.402 419.45 187.232C419.45 186.061 419.22 184.902 418.772 183.821C418.324 182.74 417.667 181.757 416.84 180.93C416.012 180.102 415.03 179.446 413.948 178.998C412.867 178.55 411.708 178.319 410.538 178.319Z" stroke="#3F3D56" stroke-width="0.415643" stroke-miterlimit="10"/>
<path d="M224.956 64.8359C189.234 64.8359 163.586 87.7543 163.586 141.23C163.586 201.837 189.234 217.879 224.956 217.879C260.678 217.879 287.854 200.309 287.854 141.23C287.854 78.0776 260.678 64.8359 224.956 64.8359ZM225.191 197.762C200.449 197.762 187.523 183.247 187.523 141.269C187.523 104.231 200.978 84.6985 225.72 84.6985C250.462 84.6985 263.917 97.5285 263.917 141.269C263.917 182.188 249.933 197.762 225.191 197.762Z" stroke="#3F3D56" stroke-width="0.415643" stroke-miterlimit="10"/>
<path d="M196.331 12.9433C199.293 12.9433 201.693 10.5426 201.693 7.58104C201.693 4.61953 199.293 2.21875 196.331 2.21875C193.37 2.21875 190.969 4.61953 190.969 7.58104C190.969 10.5426 193.37 12.9433 196.331 12.9433Z" fill="#2F2E41"/>
<path d="M209.408 38.9747C217.714 38.9747 224.448 30.2499 224.448 19.4873C224.448 8.72478 217.714 0 209.408 0C201.101 0 194.367 8.72478 194.367 19.4873C194.367 30.2499 201.101 38.9747 209.408 38.9747Z" fill="#2F2E41"/>
<path opacity="0.1" d="M209.408 33.0837C201.873 33.0837 195.633 25.9053 194.538 16.5391C194.424 17.5158 194.367 18.4984 194.367 19.4818C194.367 30.2443 201.101 38.9691 209.408 38.9691C217.714 38.9691 224.448 30.2444 224.448 19.4818C224.449 18.4984 224.392 17.5158 224.278 16.5391C223.183 25.9053 216.942 33.0837 209.408 33.0837Z" fill="black"/>
<path d="M240.009 76.5491C239.686 77.8764 238.293 78.9394 236.751 79.6822C233.508 81.2437 229.508 81.7096 225.629 81.866C224.639 81.9262 223.646 81.9078 222.659 81.8111C220.747 81.6262 218.953 80.8015 217.567 79.4705C217.468 79.406 217.387 79.3176 217.332 79.2133C217.276 79.1091 217.248 78.9925 217.25 78.8745C217.252 78.7564 217.284 78.6408 217.342 78.5383C217.401 78.4358 217.484 78.3498 217.585 78.2885C219.651 76.0195 223.098 74.6283 226.57 73.6266C229.203 72.867 233.794 70.8996 236.666 71.1651C239.447 71.4223 240.417 74.8731 240.009 76.5491Z" fill="#3F3D56"/>
<path opacity="0.1" d="M240.009 76.5491C239.686 77.8764 238.293 78.9394 236.751 79.6822C233.508 81.2437 229.508 81.7096 225.629 81.866C224.639 81.9262 223.646 81.9078 222.659 81.8111C220.747 81.6262 218.953 80.8015 217.567 79.4705C217.468 79.406 217.387 79.3176 217.332 79.2133C217.276 79.1091 217.248 78.9925 217.25 78.8745C217.252 78.7564 217.284 78.6408 217.342 78.5383C217.401 78.4358 217.484 78.3498 217.585 78.2885C219.651 76.0195 223.098 74.6283 226.57 73.6266C229.203 72.867 233.794 70.8996 236.666 71.1651C239.447 71.4223 240.417 74.8731 240.009 76.5491Z" fill="black"/>
<path d="M198.781 66.6364C197.791 68.5764 197.611 70.8301 198.282 72.9021C198.965 74.9585 200.242 76.7662 201.952 78.0963C206.148 81.4596 211.923 81.9224 217.3 81.8757C222.012 81.8347 226.718 81.5121 231.392 80.9098C232.958 80.771 234.498 80.4136 235.965 79.8481C237.72 79.0888 239.262 77.6961 239.887 75.8888C240.512 74.0815 240.068 71.8685 238.584 70.6624C237.28 69.6026 235.483 69.4568 233.805 69.356L224.209 68.7794C225.157 67.8199 226.42 67.2772 227.574 66.5797C229.106 65.6543 230.123 64.1006 231.237 62.6998C232.953 60.6489 234.82 58.7292 236.823 56.9569C237.135 58.7484 238.269 60.2196 239.602 61.4558C240.936 62.6919 242.474 63.6871 243.86 64.8641C247.218 67.7148 249.636 71.5838 253.167 74.2163C255.597 73.5779 257.868 72.4441 259.838 70.886L258.465 68.3999C258.351 68.144 258.173 67.9218 257.948 67.7545C257.56 67.5155 257.059 67.6386 256.608 67.571C255.402 67.3902 254.875 65.9982 254.402 64.8746C253.103 61.7898 250.617 59.3964 248.493 56.8095C246.925 54.8999 245.534 52.8516 244.338 50.6901C243.625 49.4009 242.971 48.0586 242.003 46.9479C241.035 45.8373 239.678 44.9641 238.205 44.9609C236.903 44.9582 235.702 45.6191 234.583 46.284C231.174 48.309 227.893 50.5438 224.761 52.9754C223.122 54.248 221.493 55.5925 219.57 56.3728C218.761 56.7013 217.907 56.9259 217.13 57.3256C215.77 58.0257 214.737 59.2103 213.626 60.2618C209.662 64.0122 204.234 66.4421 198.781 66.6364Z" fill="#8D51A0"/>
<path d="M218.844 39.9441C218.799 41.0905 218.555 42.2203 218.123 43.2831C217.904 43.8131 217.578 44.2923 217.166 44.6908C216.753 45.0893 216.263 45.3986 215.726 45.5993C214.963 45.8037 214.163 45.8297 213.389 45.6752C212.713 45.6046 212.062 45.3829 211.484 45.0265C210.585 44.4078 210.136 43.304 209.972 42.2237C209.809 41.1447 209.882 40.0421 209.778 38.9553C209.676 38.0774 209.509 37.2084 209.278 36.3553C209.207 36.0714 209.135 35.789 209.065 35.5064C208.995 35.2239 208.927 34.9414 208.865 34.6589C208.807 34.3934 208.754 34.1266 208.708 33.8585C208.67 33.6323 208.636 33.4047 208.611 33.1758C208.588 32.4973 208.475 31.8248 208.275 31.1761C208.087 30.7553 207.852 30.3574 207.574 29.9898C207.455 29.8198 207.34 29.6498 207.234 29.4732C206.927 29.0144 206.785 28.4655 206.83 27.9155C206.842 27.8305 206.863 27.7469 206.891 27.6657C206.902 27.6343 206.913 27.603 206.926 27.5729C207.044 27.5409 207.152 27.4808 207.241 27.3976C207.33 27.3144 207.398 27.2107 207.438 27.0955C207.483 26.8481 207.462 26.5931 207.376 26.3565C207.279 26.0259 207.145 25.7071 206.977 25.4057C206.868 25.2069 206.495 24.8486 206.492 24.621C206.487 24.1632 207.382 23.7944 207.744 23.6139C208.85 23.0602 210.083 22.8101 211.317 22.8893C212.108 22.943 212.966 23.1862 213.403 23.8493C213.795 24.447 213.743 25.2213 213.91 25.9158C213.928 26.0167 213.971 26.1116 214.035 26.1917C214.12 26.2695 214.227 26.3189 214.342 26.333C214.536 26.3715 214.734 26.3795 214.931 26.3565H214.932C214.984 26.3524 215.035 26.345 215.086 26.3343C215.392 26.2779 215.681 26.1532 215.931 25.9694C216.093 25.9262 216.257 25.8909 216.422 25.8634C216.428 25.8628 216.435 25.8615 216.441 25.8595C217.096 27.9273 217.182 30.1441 217.718 32.2498C217.983 33.2974 218.364 34.3319 218.417 35.4096C218.421 35.4567 218.423 35.5051 218.424 35.5535C218.432 35.9001 218.404 36.2493 218.419 36.5946C218.424 36.75 218.441 36.9049 218.471 37.0575C218.53 37.3031 218.603 37.5451 218.689 37.7821L218.693 37.7939C218.718 37.8697 218.742 37.9469 218.761 38.0241C218.776 38.0803 218.789 38.1352 218.799 38.1915L218.801 38.1954C218.897 38.7733 218.912 39.3621 218.844 39.9441Z" fill="#FBBEBE"/>
<path d="M209.67 26.4173C213.931 26.4173 217.386 22.9625 217.386 18.7008C217.386 14.4392 213.931 10.9844 209.67 10.9844C205.408 10.9844 201.953 14.4392 201.953 18.7008C201.953 22.9625 205.408 26.4173 209.67 26.4173Z" fill="#FBBEBE"/>
<path d="M258.663 60.7392C258.439 58.634 257.691 56.6185 256.487 54.8773C256.687 56.0675 256.887 57.2572 257.088 58.4465C256.839 58.5188 256.573 58.5166 256.324 58.4402C256.076 58.3637 255.855 58.2164 255.689 58.0162C255.364 57.6105 255.115 57.1492 254.955 56.6547C254.079 54.4784 252.932 52.4208 251.543 50.5299C246.631 50.1206 241.774 48.0842 237.455 45.7104C233.133 43.3379 229.089 40.4933 224.826 38.0201C224.087 37.5733 223.316 37.1799 222.521 36.843C221.187 36.3081 219.69 36.0308 218.425 35.4017C218.34 35.3599 218.255 35.3154 218.171 35.2696C217.886 35.1143 217.615 34.9325 217.363 34.7269C217.227 34.6163 217.098 34.4975 216.976 34.3711C216.345 33.637 215.844 32.8 215.497 31.8966C214.818 30.3952 214.576 28.5838 213.898 27.0823C214.21 26.7913 214.56 26.5445 214.938 26.3486H214.939C214.994 26.3198 215.049 26.2924 215.106 26.2662C215.374 26.14 215.652 26.038 215.939 25.9615C216.101 25.9183 216.264 25.883 216.429 25.8556C216.436 25.8549 216.442 25.8536 216.449 25.8516C217.213 25.7271 217.996 25.789 218.731 26.0321C219.806 26.3957 220.712 27.1216 221.616 27.8082C223.084 28.8426 224.493 29.9596 225.834 31.1538C226.58 31.8678 227.26 32.6526 228.061 33.3013C228.728 33.8155 229.43 34.281 230.163 34.6942C234.501 37.2785 238.84 39.8625 243.179 42.4459C244.648 43.3209 246.118 44.1959 247.554 45.1219C249.736 46.5291 251.839 48.0541 253.94 49.5778C255.179 50.475 256.417 51.3726 257.655 52.2707C258.061 52.5298 258.417 52.8593 258.708 53.2438C258.964 53.6803 259.123 54.167 259.174 54.6707C259.485 56.7055 259.31 58.785 258.663 60.7392Z" fill="#FBBEBE"/>
<path d="M220.764 45.743C220.243 48.0776 217.884 49.4888 216.651 51.5395C215.118 54.0846 215.743 57.043 216.318 59.9583C215.267 60.8647 214.215 61.771 213.163 62.6774C212.582 63.1757 212.001 63.6766 211.376 64.1173C210.464 64.7281 209.512 65.2753 208.525 65.7548C207.594 66.2335 206.662 66.7126 205.731 67.1921C204.866 67.6789 203.948 68.0676 202.996 68.3509C201.161 68.8218 199.213 68.4922 197.397 67.9468C197.183 67.8907 196.978 67.8067 196.785 67.697C196.672 67.6295 196.573 67.5401 196.495 67.4341C196.316 67.1132 196.251 66.7412 196.311 66.3787C196.495 63.3235 197.242 60.3323 197.986 57.3635C198.384 55.5823 198.918 53.8346 199.585 52.1359C200.24 50.6803 200.992 49.2707 201.836 47.9167C202.769 46.2131 203.873 44.6095 205.132 43.1312C205.745 42.5622 206.261 41.8968 206.66 41.1615C207.124 40.1021 206.945 38.8871 207.039 37.7336C207.111 36.8669 207.341 36.0207 207.718 35.2368V35.2355C207.919 34.8133 208.162 34.412 208.442 34.0375C208.569 34.3331 208.696 34.6282 208.823 34.9229C208.907 35.1165 208.99 35.3096 209.072 35.5023C209.179 35.7508 209.285 35.9985 209.391 36.2452C209.695 36.9541 210 37.6625 210.304 38.3705C210.632 39.2622 211.1 40.0962 211.69 40.8411C211.96 41.2226 212.324 41.5275 212.746 41.7263C213.169 41.925 213.636 42.0107 214.102 41.975C214.568 41.9393 215.016 41.7834 215.404 41.5225C215.792 41.2617 216.105 40.9048 216.313 40.4867C216.753 39.7062 217.071 38.8635 217.257 37.9873C217.516 36.9205 217.551 35.8119 217.362 34.7307C217.047 32.6486 216.161 30.522 215.518 28.5876C215.256 27.9426 215.104 27.2582 215.069 26.563C215.071 26.4849 215.079 26.407 215.093 26.3302C215.097 26.3106 215.101 26.2897 215.105 26.2701C215.373 26.1438 215.652 26.0418 215.938 25.9653C216.1 25.9222 216.264 25.8868 216.428 25.8594C216.995 28.925 217.562 31.9907 218.13 35.0564C218.143 35.1283 218.157 35.2002 218.17 35.2735C218.251 35.7129 218.334 36.1524 218.425 36.5905C218.508 36.9881 218.597 37.3844 218.696 37.778L218.7 37.7898C218.734 37.9232 218.769 38.0553 218.806 38.1874L218.807 38.1913C218.908 38.5523 219.021 38.9107 219.147 39.2638C219.916 41.3917 221.257 43.534 220.764 45.743Z" fill="#008080" fill-opacity="0.2"/>
<path d="M252.082 78.5466C252.058 78.9963 252.145 79.4451 252.336 79.8531C252.819 80.7357 253.977 80.9364 254.98 81.0189C260.837 81.5004 266.73 81.3208 272.548 80.4837C272.863 80.4621 273.169 80.367 273.442 80.2062C274.269 79.6263 273.759 78.2131 272.856 77.7607C271.953 77.3083 270.881 77.4173 269.89 77.2214C268.906 76.9736 267.968 76.567 267.115 76.0176C265.105 74.8631 263.125 73.6594 261.174 72.4065C260.012 71.6606 258.641 70.8645 257.333 71.3068C253.79 72.5055 252.059 74.7242 252.082 78.5466Z" fill="#3F3D56"/>
<path d="M208.897 34.4957V34.497C208.888 34.552 208.879 34.6056 208.867 34.6592C208.852 34.7482 208.835 34.8384 208.818 34.9273C208.656 35.7578 208.457 36.5844 208.229 37.4057C207.601 39.6749 206.76 41.9074 205.925 44.1073C203.686 50.0058 201.447 55.9047 199.207 61.8041C198.642 63.2899 198.078 64.7769 197.436 66.2326C197.222 66.7178 197 67.207 196.781 67.7013C195.993 69.4709 195.237 71.298 194.986 73.1813C194.752 74.4208 194.725 75.6906 194.907 76.9389C195.158 78.1735 195.907 79.3794 197.08 79.8358C197.653 80.0595 198.473 80.359 198.316 80.954C198.231 81.281 197.86 81.4406 197.526 81.4955C197.086 81.5657 196.635 81.5381 196.207 81.4147C195.778 81.2913 195.382 81.0751 195.047 80.7814C194.42 80.2256 193.939 79.3611 193.106 79.2682C192.529 79.2054 191.998 79.5507 191.469 79.7927C189.314 80.7775 186.803 80.0882 184.539 79.3885C184.717 78.4717 185.638 77.8675 186.552 77.6844C187.466 77.5 188.412 77.6307 189.344 77.6059C189.643 77.6218 189.939 77.5456 190.193 77.3875C190.421 77.1786 190.58 76.9061 190.651 76.6054C191.251 74.8255 191.698 72.9974 191.986 71.1411C192.287 69.2015 192.412 67.2318 192.841 65.3158C193.175 63.8209 193.69 62.3731 194.132 60.9056C194.987 57.8843 195.689 54.8217 196.235 51.7296C196.512 50.4449 196.709 49.1447 196.828 47.836C196.902 46.7505 196.867 45.6597 196.972 44.5781C197.147 43.1709 197.441 41.781 197.849 40.423C198.25 38.9412 198.649 37.4602 199.049 35.9801C199.641 33.7895 200.277 31.5138 201.778 29.8109C202.3 29.2114 202.939 28.7254 203.656 28.383C204.373 28.0406 205.152 27.8491 205.946 27.8203C206.244 27.82 206.541 27.852 206.832 27.9158C206.88 27.9276 206.929 27.9393 206.977 27.9524C207.294 28.0353 207.598 28.1611 207.881 28.3265C208.344 28.0322 208.579 28.1355 208.886 28.5893C209.156 29.0696 209.283 29.6168 209.253 30.1666C209.279 31.6179 209.159 33.0681 208.897 34.4957Z" fill="#FBBEBE"/>
<path d="M209.405 36.228L209.385 36.2477L209.279 36.3536L208.228 37.4038L207.712 35.2393L205.945 27.8184C206.243 27.818 206.54 27.85 206.831 27.9139C206.843 27.8288 206.864 27.7452 206.892 27.6641L206.976 27.9505L207.575 29.9882L208.709 33.8569L208.896 34.4938V34.4951L209.405 36.228Z" fill="#008080" fill-opacity="0.2"/>
<path d="M216.079 12.5508C216.078 13.2379 215.942 13.9182 215.678 14.5526C215.414 15.187 215.027 15.7632 214.541 16.2483C214.364 16.4248 214.176 16.5882 213.975 16.7372C213.073 17.4176 211.974 17.7858 210.843 17.7864H204.569C203.182 17.7842 201.853 17.232 200.874 16.2508C199.894 15.2696 199.344 13.9398 199.344 12.5533C199.344 11.1669 199.894 9.83703 200.874 8.85588C201.853 7.87473 203.182 7.32245 204.569 7.32031H210.843C212.23 7.32392 213.559 7.87599 214.54 8.85597C215.52 9.83594 216.074 11.1642 216.079 12.5508Z" fill="#2F2E41"/>
<path d="M221.964 12.9433C224.925 12.9433 227.326 10.5426 227.326 7.58104C227.326 4.61953 224.925 2.21875 221.964 2.21875C219.002 2.21875 216.602 4.61953 216.602 7.58104C216.602 10.5426 219.002 12.9433 221.964 12.9433Z" fill="#2F2E41"/>
<path opacity="0.1" d="M221.829 2.21875C221.763 2.21875 221.698 2.22136 221.633 2.22371C223.02 2.27414 224.333 2.86065 225.297 3.85983C226.261 4.85901 226.799 6.19297 226.799 7.58104C226.799 8.96911 226.261 10.3031 225.297 11.3022C224.333 12.3014 223.02 12.8879 221.633 12.9384C221.698 12.9407 221.763 12.9433 221.829 12.9433C223.251 12.9433 224.615 12.3784 225.621 11.3727C226.626 10.3671 227.191 9.00321 227.191 7.58104C227.191 6.15888 226.626 4.79495 225.621 3.78933C224.615 2.78371 223.251 2.21875 221.829 2.21875Z" fill="black"/>
<path opacity="0.1" d="M196.326 2.21875C196.392 2.21875 196.457 2.22136 196.523 2.22371C195.135 2.27414 193.822 2.86065 192.858 3.85983C191.895 4.85901 191.356 6.19297 191.356 7.58104C191.356 8.96911 191.895 10.3031 192.858 11.3022C193.822 12.3014 195.135 12.8879 196.523 12.9384C196.457 12.9407 196.392 12.9433 196.326 12.9433C194.905 12.9421 193.542 12.3766 192.538 11.3711C191.533 10.3656 190.969 9.00239 190.969 7.58104C190.969 6.15969 191.533 4.79649 192.538 3.791C193.542 2.78551 194.905 2.22 196.326 2.21875Z" fill="black"/>
<path opacity="0.1" d="M213.976 16.7344C213.074 17.4147 211.974 17.783 210.844 17.7835H204.57C203.439 17.783 202.34 17.4147 201.438 16.7344H213.976Z" fill="black"/>
<path d="M254.492 55.5928C254.492 55.5928 255.844 59.4881 257.081 58.4509L256.095 53.3594L254.492 55.5928Z" fill="#FBBEBE"/>
<path d="M4.24359 195.455C5.07084 195.756 5.95664 195.86 6.83116 195.76C7.70569 195.66 8.54504 195.358 9.28305 194.879C10.0211 194.399 10.6376 193.754 11.084 192.996C11.5304 192.237 11.7945 191.385 11.8554 190.507C11.9164 189.629 11.7726 188.749 11.4353 187.936C11.0981 187.123 10.5766 186.399 9.91193 185.822C9.2473 185.245 8.45772 184.83 7.6054 184.61C6.75309 184.39 5.86135 184.371 5.00047 184.555L5.14273 187.48L3.7587 184.973C2.40034 185.611 1.35095 186.763 0.841144 188.174C0.660089 188.669 0.550021 189.186 0.514224 189.712C0.426862 190.944 0.743669 192.172 1.41664 193.208C2.0896 194.244 3.08205 195.033 4.24359 195.455Z" fill="#57B894"/>
<path d="M11.0941 229.379C10.6056 226.891 12.7226 224.685 14.8138 223.252C16.905 221.818 19.3484 220.409 20.0619 217.976C21.0873 214.48 18.0329 211.278 15.6555 208.516C13.8917 206.467 12.377 204.216 11.1431 201.81C10.6067 200.865 10.2413 199.833 10.0638 198.761C9.87638 197.211 10.3743 195.668 10.876 194.19C12.5471 189.265 14.3339 184.381 16.2362 179.539" stroke="#3F3D56" stroke-width="0.415643" stroke-miterlimit="10"/>
<path d="M4.47797 194.705C5.30522 195.006 6.19102 195.11 7.06554 195.01C7.94006 194.91 8.77941 194.608 9.51742 194.129C10.2554 193.649 10.8719 193.004 11.3183 192.246C11.7647 191.487 12.0288 190.635 12.0898 189.757C12.1508 188.879 12.007 187.999 11.6697 187.186C11.3324 186.373 10.8109 185.649 10.1463 185.072C9.48167 184.495 8.69209 184.08 7.83978 183.86C6.98747 183.64 6.09573 183.621 5.23485 183.805L5.37711 186.73L3.99307 184.223C2.63472 184.861 1.58533 186.013 1.07552 187.424C0.894466 187.919 0.7844 188.436 0.7486 188.962C0.661233 190.194 0.978038 191.422 1.65101 192.458C2.32397 193.494 3.31642 194.283 4.47797 194.705Z" stroke="#3F3D56" stroke-width="0.415643" stroke-miterlimit="10"/>
<path d="M10.4033 178.533C10.728 177.637 11.2728 176.838 11.9877 176.208C12.7026 175.578 13.5646 175.138 14.4941 174.929L14.9621 177.71L15.8297 174.789C17.0343 174.807 18.202 175.207 19.1644 175.932C20.1267 176.657 20.8338 177.669 21.1835 178.821C21.5333 179.974 21.5076 181.209 21.1102 182.346C20.7128 183.483 19.9643 184.465 18.9727 185.149C17.981 185.833 16.7976 186.184 15.5933 186.152C14.389 186.12 13.2261 185.706 12.2725 184.97C11.3189 184.233 10.6239 183.213 10.288 182.056C9.95198 180.899 9.99238 179.665 10.4033 178.533Z" fill="#57B894"/>
<path d="M10.708 177.533C11.0326 176.637 11.5775 175.838 12.2924 175.208C13.0073 174.578 13.8693 174.138 14.7988 173.929L15.2668 176.71L16.1344 173.789C17.339 173.807 18.5067 174.207 19.4691 174.932C20.4314 175.657 21.1385 176.669 21.4882 177.821C21.838 178.974 21.8123 180.209 21.4149 181.346C21.0175 182.483 20.269 183.465 19.2773 184.149C18.2857 184.833 17.1023 185.184 15.898 185.152C14.6937 185.12 13.5308 184.706 12.5772 183.97C11.6236 183.233 10.9286 182.213 10.5926 181.056C10.2567 179.899 10.2971 178.665 10.708 177.533Z" stroke="#3F3D56" stroke-width="0.415643" stroke-miterlimit="10"/>
<path d="M14.6555 208.574C15.9675 209.05 17.4087 209.027 18.7044 208.508C20.0001 207.99 21.0598 207.013 21.6814 205.763C22.3031 204.514 22.4432 203.079 22.0751 201.733C21.707 200.387 20.8564 199.223 19.6855 198.464L19.0189 200.708L18.5461 197.895C18.5415 197.892 18.5366 197.89 18.5317 197.889C17.8299 197.634 17.0848 197.519 16.3388 197.552C15.5928 197.585 14.8606 197.765 14.1841 198.081C13.5076 198.397 12.9 198.843 12.396 199.394C11.892 199.945 11.5015 200.59 11.2469 201.292C10.9923 201.994 10.8785 202.739 10.912 203.485C10.9455 204.231 11.1257 204.963 11.4422 205.639C11.7588 206.316 12.2055 206.923 12.7569 207.427C13.3082 207.93 13.9534 208.32 14.6555 208.574Z" fill="#57B894"/>
<path d="M14.9327 207.557C16.2446 208.033 17.6858 208.009 18.9815 207.491C20.2772 206.973 21.3369 205.996 21.9585 204.746C22.5802 203.497 22.7203 202.062 22.3522 200.716C21.9841 199.37 21.1335 198.206 19.9626 197.447L19.296 199.691L18.8232 196.877C18.8186 196.875 18.8137 196.873 18.8088 196.872C18.1072 196.617 17.3623 196.504 16.6167 196.537C15.8712 196.57 15.1394 196.75 14.4634 197.066C13.098 197.705 12.0422 198.859 11.5282 200.276C11.0142 201.693 11.0841 203.256 11.7225 204.622C12.361 205.987 13.5157 207.043 14.9327 207.557Z" stroke="#3F3D56" stroke-width="0.415643" stroke-miterlimit="10"/>
<path d="M8.73575 218.015C8.96132 219.299 9.62138 220.466 10.6052 221.321C11.5891 222.175 12.8369 222.666 14.1394 222.709C15.4418 222.753 16.7198 222.348 17.7589 221.561C18.798 220.775 19.5351 219.655 19.8465 218.39C20.1579 217.124 20.0247 215.79 19.4693 214.611C18.9139 213.432 17.9699 212.48 16.7958 211.914C15.6218 211.349 14.2889 211.204 13.0208 211.505C11.7527 211.805 10.6264 212.532 9.83097 213.565L12.3632 217.376L8.90322 215.353C8.63495 216.214 8.57751 217.127 8.73575 218.015Z" fill="#57B894"/>
<path d="M8.97794 217.265C9.20351 218.549 9.86357 219.716 10.8474 220.571C11.8313 221.425 13.0791 221.916 14.3815 221.959C15.684 222.003 16.962 221.598 18.0011 220.811C19.0402 220.025 19.7773 218.905 20.0887 217.64C20.4001 216.374 20.2669 215.04 19.7115 213.861C19.156 212.682 18.2121 211.73 17.038 211.164C15.8639 210.599 14.5311 210.454 13.263 210.755C11.9949 211.055 10.8686 211.782 10.0732 212.815L12.6054 216.626L9.14541 214.603C8.87714 215.464 8.8197 216.377 8.97794 217.265Z" stroke="#3F3D56" stroke-width="0.415643" stroke-miterlimit="10"/>
<path d="M200.402 141.781C204.304 141.781 207.468 137.687 207.468 132.636C207.468 127.586 204.304 123.492 200.402 123.492C196.499 123.492 193.336 127.586 193.336 132.636C193.336 137.687 196.499 141.781 200.402 141.781Z" fill="#2F2E41"/>
<path d="M238.847 141.991C242.75 141.991 245.913 137.897 245.913 132.847C245.913 127.797 242.75 123.703 238.847 123.703C234.945 123.703 231.781 127.797 231.781 132.847C231.781 137.897 234.945 141.991 238.847 141.991Z" fill="#2F2E41"/>
<path d="M233.442 159.865C233.442 163.996 227.673 167.346 220.557 167.346C213.441 167.346 207.672 163.996 207.672 159.865C207.672 156.286 211.999 153.293 217.78 152.562C218.701 152.44 219.628 152.381 220.557 152.383C222.113 152.378 223.664 152.545 225.183 152.882C230.013 153.958 233.442 156.681 233.442 159.865Z" fill="#2F2E41"/>
<path d="M202.066 139.702C205.968 139.702 209.132 135.608 209.132 130.558C209.132 125.508 205.968 121.414 202.066 121.414C198.164 121.414 195 125.508 195 130.558C195 135.608 198.164 139.702 202.066 139.702Z" stroke="#3F3D56" stroke-width="0.415643" stroke-miterlimit="10"/>
<path d="M240.511 139.913C244.414 139.913 247.577 135.819 247.577 130.769C247.577 125.719 244.414 121.625 240.511 121.625C236.609 121.625 233.445 125.719 233.445 130.769C233.445 135.819 236.609 139.913 240.511 139.913Z" stroke="#3F3D56" stroke-width="0.415643" stroke-miterlimit="10"/>
<path d="M222.229 165.26C229.345 165.26 235.114 161.91 235.114 157.778C235.114 153.646 229.345 150.297 222.229 150.297C215.113 150.297 209.344 153.646 209.344 157.778C209.344 161.91 215.113 165.26 222.229 165.26Z" stroke="#3F3D56" stroke-width="0.415643" stroke-miterlimit="10"/>
<path d="M225.343 153.502C225.347 154.025 225.151 154.529 224.795 154.912C224.627 155.095 224.423 155.242 224.195 155.343C223.968 155.443 223.722 155.496 223.473 155.497H219.317C218.804 155.479 218.32 155.259 217.97 154.886C217.619 154.512 217.431 154.014 217.446 153.502C217.444 153.097 217.563 152.7 217.787 152.363C218.707 152.233 219.635 152.169 220.563 152.172C222.121 152.167 223.674 152.345 225.19 152.704C225.292 152.958 225.344 153.229 225.343 153.502Z" fill="white"/>
<path d="M202.063 130.141C203.21 130.141 204.141 129.21 204.141 128.063C204.141 126.915 203.21 125.984 202.063 125.984C200.915 125.984 199.984 126.915 199.984 128.063C199.984 129.21 200.915 130.141 202.063 130.141Z" fill="white"/>
<path d="M240.727 130.141C241.874 130.141 242.805 129.21 242.805 128.063C242.805 126.915 241.874 125.984 240.727 125.984C239.579 125.984 238.648 126.915 238.648 128.063C238.648 129.21 239.579 130.141 240.727 130.141Z" fill="white"/>
<path opacity="0.3" d="M242.805 149.68C243.953 149.68 244.883 148.749 244.883 147.602C244.883 146.454 243.953 145.523 242.805 145.523C241.657 145.523 240.727 146.454 240.727 147.602C240.727 148.749 241.657 149.68 242.805 149.68Z" fill="#008080" fill-opacity="0.2"/>
<path opacity="0.3" d="M192.094 149.68C193.242 149.68 194.172 148.749 194.172 147.602C194.172 146.454 193.242 145.523 192.094 145.523C190.946 145.523 190.016 146.454 190.016 147.602C190.016 148.749 190.946 149.68 192.094 149.68Z" fill="#008080" fill-opacity="0.2"/>
</svg>
