<svg width="600" height="600" viewBox="0 0 600 600" fill="none" xmlns="http://www.w3.org/2000/svg">
<path d="M417.274 122.401C417.274 122.401 348.118 83.7255 268.798 113.101C189.478 142.477 138.862 218.965 96.2617 279.901C53.6617 340.837 60.1297 411.253 110.062 451.357C159.994 491.461 205.222 452.557 282.982 463.513C360.742 474.469 379.666 489.061 451.33 456.313C522.994 423.565 552.202 322.297 514.57 237.325C476.938 152.353 417.274 122.401 417.274 122.401Z" fill="#008080" fill-opacity="0.2"/>
<path opacity="0.8" d="M417.274 122.401C417.274 122.401 348.118 83.7255 268.798 113.101C189.478 142.477 138.862 218.965 96.2617 279.901C53.6617 340.837 60.1297 411.253 110.062 451.357C159.994 491.461 205.222 452.557 282.982 463.513C360.742 474.469 379.666 489.061 451.33 456.313C522.994 423.565 552.202 322.297 514.57 237.325C476.938 152.353 417.274 122.401 417.274 122.401Z" fill="white"/>
<path d="M480.207 230.053C474.291 226.825 471.603 229.513 469.407 226.825C467.211 224.137 475.323 217.141 459.183 210.145C459.183 210.145 458.115 195.085 436.059 194.545C414.003 194.005 420.003 209.617 414.003 213.373C408.003 217.129 406.467 211.225 400.551 214.993C394.635 218.761 397.323 226.285 392.487 227.365C387.651 228.445 381.195 222.565 375.279 226.285C369.363 230.005 369.363 233.281 366.663 233.281C363.963 233.281 358.599 231.133 355.371 233.281C352.143 235.429 348.375 238.081 348.375 238.081H484.515C484.515 238.081 486.135 233.281 480.207 230.053Z" fill="#008080" fill-opacity="0.2"/>
<path opacity="0.5" d="M480.207 230.053C474.291 226.825 471.603 229.513 469.407 226.825C467.211 224.137 475.323 217.141 459.183 210.145C459.183 210.145 458.115 195.085 436.059 194.545C414.003 194.005 420.003 209.617 414.003 213.373C408.003 217.129 406.467 211.225 400.551 214.993C394.635 218.761 397.323 226.285 392.487 227.365C387.651 228.445 381.195 222.565 375.279 226.285C369.363 230.005 369.363 233.281 366.663 233.281C363.963 233.281 358.599 231.133 355.371 233.281C352.143 235.429 348.375 238.081 348.375 238.081H484.515C484.515 238.081 486.135 233.281 480.207 230.053Z" fill="#008080" fill-opacity="0.2"/>
<path d="M274.162 161.247C270.658 159.339 269.062 160.935 267.79 159.339C266.518 157.743 271.294 153.603 261.79 149.451C261.79 149.451 261.154 140.523 248.086 140.211C235.018 139.899 238.486 149.139 235.018 151.371C231.55 153.603 230.554 150.099 227.038 152.319C223.522 154.539 225.13 159.015 222.238 159.663C219.346 160.311 215.542 156.783 212.038 159.015C208.534 161.247 208.534 163.167 206.938 163.167C205.342 163.167 202.138 161.883 200.242 163.167C198.346 164.451 196.102 166.035 196.102 166.035H276.718C276.718 166.035 277.678 163.203 274.162 161.247Z" fill="#008080" fill-opacity="0.2"/>
<path opacity="0.5" d="M274.162 161.247C270.658 159.339 269.062 160.935 267.79 159.339C266.518 157.743 271.294 153.603 261.79 149.451C261.79 149.451 261.154 140.523 248.086 140.211C235.018 139.899 238.486 149.139 235.018 151.371C231.55 153.603 230.554 150.099 227.038 152.319C223.522 154.539 225.13 159.015 222.238 159.663C219.346 160.311 215.542 156.783 212.038 159.015C208.534 161.247 208.534 163.167 206.938 163.167C205.342 163.167 202.138 161.883 200.242 163.167C198.346 164.451 196.102 166.035 196.102 166.035H276.718C276.718 166.035 277.678 163.203 274.162 161.247Z" fill="#008080" fill-opacity="0.2"/>
<path d="M323.328 427.085C313.248 421.577 308.664 426.161 304.992 421.577C301.32 416.993 315.072 405.089 287.58 393.173C287.58 393.173 285.744 367.505 248.172 366.593C210.6 365.681 220.668 392.249 210.588 398.669C200.508 405.089 197.76 394.997 187.68 401.417C177.6 407.837 182.172 420.617 173.928 422.501C165.684 424.385 154.728 414.245 144.6 420.665C134.472 427.085 134.52 432.581 129.936 432.581C125.352 432.581 116.184 428.909 110.736 432.581C105.288 436.253 98.8203 440.825 98.8203 440.825H330.66C330.66 440.825 333.408 432.581 323.328 427.085Z" fill="#008080" fill-opacity="0.2"/>
<path opacity="0.5" d="M323.328 427.085C313.248 421.577 308.664 426.161 304.992 421.577C301.32 416.993 315.072 405.089 287.58 393.173C287.58 393.173 285.744 367.505 248.172 366.593C210.6 365.681 220.668 392.249 210.588 398.669C200.508 405.089 197.76 394.997 187.68 401.417C177.6 407.837 182.172 420.617 173.928 422.501C165.684 424.385 154.728 414.245 144.6 420.665C134.472 427.085 134.52 432.581 129.936 432.581C125.352 432.581 116.184 428.909 110.736 432.581C105.288 436.253 98.8203 440.825 98.8203 440.825H330.66C330.66 440.825 333.408 432.581 323.328 427.085Z" fill="#008080" fill-opacity="0.2"/>
<g opacity="0.5">
<path d="M480.207 230.053C474.291 226.825 471.603 229.513 469.407 226.825C467.211 224.137 475.323 217.141 459.183 210.145C459.183 210.145 458.115 195.085 436.059 194.545C414.003 194.005 420.003 209.617 414.003 213.373C408.003 217.129 406.467 211.225 400.551 214.993C394.635 218.761 397.323 226.285 392.487 227.365C387.651 228.445 381.195 222.565 375.279 226.285C369.363 230.005 369.363 233.281 366.663 233.281C363.963 233.281 358.599 231.133 355.371 233.281C352.143 235.429 348.375 238.081 348.375 238.081H484.515C484.515 238.081 486.135 233.281 480.207 230.053Z" fill="white"/>
<path opacity="0.5" d="M480.207 230.053C474.291 226.825 471.603 229.513 469.407 226.825C467.211 224.137 475.323 217.141 459.183 210.145C459.183 210.145 458.115 195.085 436.059 194.545C414.003 194.005 420.003 209.617 414.003 213.373C408.003 217.129 406.467 211.225 400.551 214.993C394.635 218.761 397.323 226.285 392.487 227.365C387.651 228.445 381.195 222.565 375.279 226.285C369.363 230.005 369.363 233.281 366.663 233.281C363.963 233.281 358.599 231.133 355.371 233.281C352.143 235.429 348.375 238.081 348.375 238.081H484.515C484.515 238.081 486.135 233.281 480.207 230.053Z" fill="white"/>
</g>
<g opacity="0.5">
<path d="M274.162 161.247C270.658 159.339 269.062 160.935 267.79 159.339C266.518 157.743 271.294 153.603 261.79 149.451C261.79 149.451 261.154 140.523 248.086 140.211C235.018 139.899 238.486 149.139 235.018 151.371C231.55 153.603 230.554 150.099 227.038 152.319C223.522 154.539 225.13 159.015 222.238 159.663C219.346 160.311 215.542 156.783 212.038 159.015C208.534 161.247 208.534 163.167 206.938 163.167C205.342 163.167 202.138 161.883 200.242 163.167C198.346 164.451 196.102 166.035 196.102 166.035H276.718C276.718 166.035 277.678 163.203 274.162 161.247Z" fill="white"/>
<path opacity="0.5" d="M274.162 161.247C270.658 159.339 269.062 160.935 267.79 159.339C266.518 157.743 271.294 153.603 261.79 149.451C261.79 149.451 261.154 140.523 248.086 140.211C235.018 139.899 238.486 149.139 235.018 151.371C231.55 153.603 230.554 150.099 227.038 152.319C223.522 154.539 225.13 159.015 222.238 159.663C219.346 160.311 215.542 156.783 212.038 159.015C208.534 161.247 208.534 163.167 206.938 163.167C205.342 163.167 202.138 161.883 200.242 163.167C198.346 164.451 196.102 166.035 196.102 166.035H276.718C276.718 166.035 277.678 163.203 274.162 161.247Z" fill="white"/>
</g>
<g opacity="0.5">
<path d="M323.328 427.085C313.248 421.577 308.664 426.161 304.992 421.577C301.32 416.993 315.072 405.089 287.58 393.173C287.58 393.173 285.744 367.505 248.172 366.593C210.6 365.681 220.668 392.249 210.588 398.669C200.508 405.089 197.76 394.997 187.68 401.417C177.6 407.837 182.172 420.617 173.928 422.501C165.684 424.385 154.728 414.245 144.6 420.665C134.472 427.085 134.52 432.581 129.936 432.581C125.352 432.581 116.184 428.909 110.736 432.581C105.288 436.253 98.8203 440.825 98.8203 440.825H330.66C330.66 440.825 333.408 432.581 323.328 427.085Z" fill="white"/>
<path opacity="0.5" d="M323.328 427.085C313.248 421.577 308.664 426.161 304.992 421.577C301.32 416.993 315.072 405.089 287.58 393.173C287.58 393.173 285.744 367.505 248.172 366.593C210.6 365.681 220.668 392.249 210.588 398.669C200.508 405.089 197.76 394.997 187.68 401.417C177.6 407.837 182.172 420.617 173.928 422.501C165.684 424.385 154.728 414.245 144.6 420.665C134.472 427.085 134.52 432.581 129.936 432.581C125.352 432.581 116.184 428.909 110.736 432.581C105.288 436.253 98.8203 440.825 98.8203 440.825H330.66C330.66 440.825 333.408 432.581 323.328 427.085Z" fill="white"/>
</g>
<path d="M153.928 387.993C153.928 387.993 148 382.797 141.868 381.021C135.736 379.245 128.668 379.209 122.56 377.541C116.452 375.873 112.804 374.469 112.804 374.469L112.492 379.989L153.676 391.113L181.852 383.313L184.66 377.589C181.59 379.018 178.37 380.101 175.06 380.817C168.928 382.269 162.064 382.269 158.26 383.733C154.456 385.197 153.928 387.993 153.928 387.993Z" fill="white" stroke="#263238" stroke-linecap="round" stroke-linejoin="round"/>
<path d="M111.913 375.719C119.963 378.181 128.215 379.928 136.573 380.939C142.859 381.792 148.828 384.219 153.925 387.995C158.071 385.345 162.845 383.838 167.761 383.627C173.674 383.179 179.508 381.989 185.125 380.087L183.361 383.687L153.097 389.615L111.289 378.695L111.913 375.719Z" fill="white" stroke="#263238" stroke-linecap="round" stroke-linejoin="round"/>
<path d="M110.779 376.961C117.175 379.412 123.877 380.975 130.699 381.605C141.835 382.445 153.618 387.989 153.618 387.989C158.176 385.69 163.181 384.412 168.282 384.245C174.008 384.195 179.705 383.425 185.238 381.953C185.066 382.528 185.023 383.133 185.112 383.727C185.201 384.32 185.421 384.886 185.754 385.385L153.51 392.249L110.562 379.769L110.779 376.961Z" fill="white" stroke="#263238" stroke-linecap="round" stroke-linejoin="round"/>
<path d="M110.247 379.258L152.163 389.758V391.198L155.691 391.294V389.638L186.687 384.742C186.687 384.742 188.043 384.43 186.891 385.942C185.739 387.454 165.783 404.878 165.783 404.878L143.631 407.158L110.031 399.778L110.247 379.258Z" fill="#008080" fill-opacity="0.2"/>
<mask id="mask0_10963_19668" style="mask-type:luminance" maskUnits="userSpaceOnUse" x="110" y="379" width="78" height="29">
<path d="M110.247 379.258L152.163 389.758V391.198L155.691 391.294V389.638L186.687 384.742C186.687 384.742 188.043 384.43 186.891 385.942C185.739 387.454 165.783 404.878 165.783 404.878L143.631 407.158L110.031 399.778L110.247 379.258Z" fill="white"/>
</mask>
<g mask="url(#mask0_10963_19668)">
<path opacity="0.3" d="M152.167 391.222V389.758L110.251 379.258L110.047 399.85L143.635 407.23L144.235 407.17L153.103 391.246L152.167 391.222Z" fill="black"/>
</g>
<path d="M110.247 379.258L152.163 389.758V391.198L155.691 391.294V389.638L186.687 384.742C186.687 384.742 188.043 384.43 186.891 385.942C185.739 387.454 165.783 404.878 165.783 404.878L143.631 407.158L110.031 399.778L110.247 379.258Z" stroke="#263238" stroke-linecap="round" stroke-linejoin="round"/>
<path d="M152.162 391.219L142.898 407.227L144.674 407.335L155.69 391.315L152.162 391.219Z" fill="#008080" fill-opacity="0.2" stroke="#263238" stroke-linecap="round" stroke-linejoin="round"/>
<path d="M150.676 488.818C150.676 488.818 148.66 493.042 145.972 494.974C143.284 496.906 139.852 497.818 137.14 499.678C135.667 500.675 134.256 501.761 132.916 502.93L131.836 499.258L150.004 486.742L165.064 488.566L167.392 492.07C165.709 491.5 163.958 491.161 162.184 491.062C158.956 490.834 155.608 491.674 153.484 491.158C152.872 491 152.303 490.708 151.817 490.304C151.331 489.899 150.942 489.392 150.676 488.818Z" fill="white" stroke="#263238" stroke-linecap="round" stroke-linejoin="round"/>
<path d="M132.257 502.197C135.709 499.601 139.45 497.414 143.405 495.681C146.463 494.175 148.997 491.783 150.677 488.817C152.978 490.016 155.605 490.437 158.165 490.017C161.179 489.602 164.241 489.691 167.225 490.281L165.749 488.037L150.005 487.797L131.453 500.241L132.257 502.197Z" fill="white" stroke="#263238" stroke-linecap="round" stroke-linejoin="round"/>
<path d="M131.49 501.504C134.116 499.136 137.144 497.254 140.43 495.948C145.71 494.028 150.534 488.856 150.534 488.856C153.007 489.822 155.701 490.076 158.31 489.588C161.144 488.924 164.07 488.75 166.962 489.072C166.599 488.328 166.485 487.486 166.638 486.672L149.766 486L130.914 499.644L131.49 501.504Z" fill="white" stroke="#263238" stroke-linecap="round" stroke-linejoin="round"/>
<path d="M130.806 500.022L149.478 487.83L149.226 486.858L150.942 486.353L151.218 487.47L167.154 486.989C167.154 486.989 167.862 486.989 167.046 486.125C166.23 485.261 153.606 475.938 153.606 475.938L142.41 477.138L127.266 486.198L130.806 500.022Z" fill="#008080" fill-opacity="0.2"/>
<mask id="mask1_10963_19668" style="mask-type:luminance" maskUnits="userSpaceOnUse" x="127" y="475" width="41" height="26">
<path d="M130.806 500.022L149.478 487.83L149.226 486.858L150.942 486.353L151.218 487.47L167.154 486.989C167.154 486.989 167.862 486.989 167.046 486.125C166.23 485.261 153.606 475.938 153.606 475.938L142.41 477.138L127.266 486.198L130.806 500.022Z" fill="white"/>
</mask>
<g mask="url(#mask1_10963_19668)">
<path opacity="0.3" d="M149.277 486.855L149.529 487.827L130.857 500.019L127.281 486.159L142.425 477.098L142.725 477.062L149.733 486.722L149.277 486.855Z" fill="black"/>
</g>
<path d="M130.806 500.022L149.478 487.83L149.226 486.858L150.942 486.353L151.218 487.47L167.154 486.989C167.154 486.989 167.862 486.989 167.046 486.125C166.23 485.261 153.606 475.938 153.606 475.938L142.41 477.138L127.266 486.198L130.806 500.022Z" stroke="#263238" stroke-linecap="round" stroke-linejoin="round"/>
<path d="M149.27 486.858L142.07 477.186L142.91 476.898L150.986 486.354L149.27 486.858Z" fill="#008080" fill-opacity="0.2" stroke="#263238" stroke-linecap="round" stroke-linejoin="round"/>
<path d="M429.869 359.648L463.757 393.968L391.397 414.356L386.609 379.952L429.869 359.648Z" fill="#008080" fill-opacity="0.2" stroke="#263238" stroke-linecap="round" stroke-linejoin="round"/>
<path d="M459.852 398.927L385.008 420.923L391.044 381.371L428.808 364.523L459.852 398.927Z" fill="white" stroke="#263238" stroke-linecap="round" stroke-linejoin="round"/>
<path d="M430.587 366.656L458.427 402.656L388.203 423.044L396.363 379.772L430.587 366.656Z" fill="white"/>
<mask id="mask2_10963_19668" style="mask-type:luminance" maskUnits="userSpaceOnUse" x="388" y="366" width="71" height="58">
<path d="M430.587 366.656L458.427 402.656L388.203 423.044L396.363 379.772L430.587 366.656Z" fill="white"/>
</mask>
<g mask="url(#mask2_10963_19668)">
<path opacity="0.17" d="M430.587 366.656L458.427 402.656L388.203 423.044L396.363 379.772L430.587 366.656Z" fill="black"/>
</g>
<path d="M430.587 366.656L458.427 402.656L388.203 423.044L396.363 379.772L430.587 366.656Z" stroke="#263238" stroke-linecap="round" stroke-linejoin="round"/>
<path d="M430.588 366.656L417.82 410.984L367.984 426.068L387.136 385.268L430.588 366.656Z" fill="white" stroke="#263238" stroke-linecap="round" stroke-linejoin="round"/>
<path d="M414.277 407.447L366.217 423.587L364.789 416.843L409.309 400.883L414.277 407.447Z" fill="white" stroke="#263238" stroke-linecap="round" stroke-linejoin="round"/>
<path d="M429.353 360.617L461.273 393.785L459.856 398.921L430.589 366.653L414.281 407.441L409.312 400.877L429.353 360.617Z" fill="white" stroke="#263238" stroke-linecap="round" stroke-linejoin="round"/>
<path d="M429.864 359.648L409.488 402.128L362.484 418.088L386.604 379.952L429.864 359.648Z" fill="#008080" fill-opacity="0.2"/>
<mask id="mask3_10963_19668" style="mask-type:luminance" maskUnits="userSpaceOnUse" x="362" y="359" width="68" height="60">
<path d="M429.864 359.648L409.488 402.128L362.484 418.088L386.604 379.952L429.864 359.648Z" fill="white"/>
</mask>
<g mask="url(#mask3_10963_19668)">
<path opacity="0.3" d="M429.864 359.648L409.488 402.128L362.484 418.088L386.604 379.952L429.864 359.648Z" fill="black"/>
</g>
<path d="M429.864 359.648L409.488 402.128L362.484 418.088L386.604 379.952L429.864 359.648Z" stroke="#263238" stroke-linecap="round" stroke-linejoin="round"/>
<path d="M384.664 383.865L422.476 366.609" stroke="#263238" stroke-linecap="round" stroke-linejoin="round"/>
<path d="M272.424 482.97L307.128 440.274L235.536 436.914L229.836 472.782L272.424 482.97Z" fill="#008080" fill-opacity="0.2" stroke="#263238" stroke-linecap="round" stroke-linejoin="round"/>
<path d="M303.372 436.2L229.344 431.82L234.288 470.304L271.5 478.32L303.372 436.2Z" fill="white" stroke="#263238" stroke-linecap="round" stroke-linejoin="round"/>
<path d="M273.326 475.734L302.054 432.762L232.586 428.898L239.558 470.634L273.326 475.734Z" fill="white"/>
<mask id="mask4_10963_19668" style="mask-type:luminance" maskUnits="userSpaceOnUse" x="232" y="428" width="71" height="48">
<path d="M273.326 475.734L302.054 432.762L232.586 428.898L239.558 470.634L273.326 475.734Z" fill="white"/>
</mask>
<g mask="url(#mask4_10963_19668)">
<path opacity="0.17" d="M273.326 475.734L302.054 432.762L232.586 428.898L239.558 470.634L273.326 475.734Z" fill="black"/>
</g>
<path d="M273.326 475.734L302.054 432.762L232.586 428.898L239.558 470.634L273.326 475.734Z" stroke="#263238" stroke-linecap="round" stroke-linejoin="round"/>
<path d="M273.324 475.74L261.792 434.028L212.508 430.68L230.508 467.292L273.324 475.74Z" fill="white" stroke="#263238" stroke-linecap="round" stroke-linejoin="round"/>
<path d="M258.158 438.45L210.674 433.602L209.078 440.742L253.034 446.25L258.158 438.45Z" fill="white" stroke="#263238" stroke-linecap="round" stroke-linejoin="round"/>
<path d="M271.927 482.119L304.651 441.043L303.379 436.195L273.331 475.735L258.163 438.451L253.039 446.251L271.927 482.119Z" fill="white" stroke="#263238" stroke-linecap="round" stroke-linejoin="round"/>
<path d="M272.429 482.975L253.241 444.959L206.812 440.039L229.841 472.787L272.429 482.975Z" fill="#008080" fill-opacity="0.2"/>
<mask id="mask5_10963_19668" style="mask-type:luminance" maskUnits="userSpaceOnUse" x="206" y="440" width="67" height="43">
<path d="M272.429 482.975L253.241 444.959L206.812 440.039L229.841 472.787L272.429 482.975Z" fill="white"/>
</mask>
<g mask="url(#mask5_10963_19668)">
<path opacity="0.3" d="M272.429 482.975L253.241 444.959L206.812 440.039L229.841 472.787L272.429 482.975Z" fill="black"/>
</g>
<path d="M272.429 482.975L253.241 444.959L206.812 440.039L229.841 472.787L272.429 482.975Z" stroke="#263238" stroke-linecap="round" stroke-linejoin="round"/>
<path d="M226.297 468.055L264.109 476.011" stroke="#263238" stroke-linecap="round" stroke-linejoin="round"/>
<path d="M300.565 195.876C300.565 195.876 284.845 203.472 278.557 212.676C272.269 221.88 274.105 238.872 283.789 244.368C293.473 249.864 327.277 270.048 351.121 267.168C374.965 264.288 371.293 239.916 359.245 230.22C347.197 220.524 330.949 211.884 330.949 211.884C330.949 211.884 330.169 206.652 329.113 204.816C328.057 202.98 316.021 191.16 300.565 195.876Z" fill="#263238" stroke="#263238" stroke-linecap="round" stroke-linejoin="round"/>
<path d="M364.376 235.953C328.688 225.033 305.18 244.581 297.812 252.069C312.572 259.737 334.317 269.157 351.117 267.129C371.061 264.717 371.744 247.257 364.376 235.953Z" fill="white" stroke="#263238" stroke-linecap="round" stroke-linejoin="round"/>
<path d="M340.117 233.078C340.117 233.078 361.081 249.878 353.737 266.606" stroke="#263238" stroke-linecap="round" stroke-linejoin="round"/>
<path d="M271.306 188.557L262.906 227.737H269.662L286.318 196.861C286.318 196.861 283.066 186.961 271.306 188.557Z" fill="white" stroke="#263238" stroke-linecap="round" stroke-linejoin="round"/>
<path d="M376.881 169.548C370.005 161.148 360.921 153.36 344.277 152.028C344.277 152.028 330.093 151.584 310.797 159.792C295.713 166.2 279.597 180.192 271.305 188.592C278.721 190.476 283.137 193.512 286.329 196.896C289.617 193.764 292.485 191.04 294.597 189.324C301.701 183.552 312.129 178.68 312.129 178.68C312.129 178.68 300.813 194.196 298.593 198.192C296.373 202.188 297.933 208.62 309.681 210.396C321.429 212.172 324.321 209.952 328.977 207.288C333.633 204.624 339.405 202.188 341.625 202.188C346.061 202.502 350.464 201.226 354.045 198.588C359.805 194.592 362.253 183.288 364.245 182.4C365.613 181.788 377.721 197.58 387.153 209.436L387.969 209.016C392.073 206.904 395.277 202.596 397.473 198.804C389.841 187.656 381.333 174.996 376.881 169.548Z" fill="#008080" fill-opacity="0.2" stroke="#263238" stroke-linecap="round" stroke-linejoin="round"/>
<path d="M337.128 159.477C337.128 159.477 332.424 170.793 341.844 175.077" stroke="#263238" stroke-linecap="round" stroke-linejoin="round"/>
<path d="M312.133 178.641L322.357 175.617" stroke="#263238" stroke-linecap="round" stroke-linejoin="round"/>
<path d="M312 198.385C312 198.385 318.444 204.073 333.528 197.641" stroke="#263238" stroke-linecap="round" stroke-linejoin="round"/>
<path d="M370.862 178.094C367.142 178.586 364.25 182.414 364.25 182.414C368.543 181.499 372.908 180.965 377.294 180.818" stroke="#263238" stroke-linecap="round" stroke-linejoin="round"/>
<path d="M312.469 179.58C312.469 179.58 319.393 179.58 326.077 179.328" stroke="#263238" stroke-linecap="round" stroke-linejoin="round"/>
<path d="M316.172 195.406C316.172 195.406 316.916 199.87 326.564 199.366" stroke="#263238" stroke-linecap="round" stroke-linejoin="round"/>
<path d="M341.841 155.792C341.841 155.792 340.293 163.772 341.397 167.984C342.501 172.196 346.497 177.08 349.389 171.98C352.281 166.88 353.817 161.18 353.817 158.456C353.817 155.732 343.833 150.692 341.841 155.792Z" fill="white" stroke="#263238" stroke-linecap="round" stroke-linejoin="round"/>
<path d="M364.243 145.811C364.243 145.811 370.447 144.479 375.775 137.603C381.103 130.727 374.227 129.851 372.007 123.203C369.787 116.555 377.599 118.763 366.295 107.231C354.991 95.6992 336.571 99.6952 327.895 103.463C319.219 107.231 319.495 119.879 313.267 120.767C307.039 121.655 304.387 115.667 296.851 115.667C289.315 115.667 281.323 123.647 284.431 130.295C287.539 136.943 293.527 134.075 293.971 132.959C294.415 131.843 290.863 133.187 290.635 129.851C290.407 126.515 298.615 128.303 301.063 132.743C303.043 136.343 299.407 141.455 299.527 145.235C299.779 152.819 309.067 157.667 315.031 158.711C323.083 160.115 332.875 159.623 340.171 155.627C349.135 150.707 344.971 140.507 351.571 137.843C358.171 135.179 361.555 139.175 361.555 139.175L364.243 145.811Z" fill="#263238" stroke="#263238" stroke-linecap="round" stroke-linejoin="round"/>
<path d="M296.457 119.78C295.314 119.284 294.057 119.112 292.822 119.283C291.588 119.455 290.425 119.963 289.461 120.752" stroke="white" stroke-linecap="round" stroke-linejoin="round"/>
<path d="M355.642 126.001C355.642 126.001 355.642 112.801 346.378 110.113C337.114 107.425 326.53 119.377 321.178 126.913C315.826 134.449 307.978 132.649 302.206 124.705C301.663 123.939 301.062 123.217 300.406 122.545" stroke="white" stroke-linecap="round" stroke-linejoin="round"/>
<path d="M303.141 150.759C307.941 153.843 311.541 154.731 318.585 152.523C325.629 150.315 324.765 138.843 330.933 132.675C337.101 126.507 348.141 128.703 348.141 128.703C348.141 128.703 335.793 122.079 326.085 129.135C316.377 136.191 317.253 148.107 308.433 150.315" stroke="white" stroke-linecap="round" stroke-linejoin="round"/>
<path d="M361.82 127.364C361.82 127.364 370.22 125.156 369.764 117.656" stroke="white" stroke-linecap="round" stroke-linejoin="round"/>
<path d="M292.703 212.398C292.703 212.398 315.503 215.278 327.023 223.198" stroke="white" stroke-linecap="round" stroke-linejoin="round"/>
<path d="M357.011 130.226C355.591 129.818 354.084 129.828 352.669 130.254C351.254 130.679 349.991 131.503 349.031 132.626C345.263 136.61 345.431 138.626 342.287 141.11C341.35 141.93 340.168 142.417 338.925 142.498C337.682 142.578 336.447 142.246 335.411 141.554C334.079 140.894 332.531 141.338 332.087 144.434C331.643 147.53 335.855 149.978 336.527 149.978C337.195 150.014 337.861 150.09 338.519 150.206C338.519 150.206 338.519 155.75 342.287 159.074C346.055 162.398 353.603 167.726 358.703 166.622C363.803 165.518 365.795 153.758 365.795 147.77C365.609 141.698 364.413 135.7 362.255 130.022C360.695 126.518 357.011 130.226 357.011 130.226Z" fill="white" stroke="#263238" stroke-linecap="round" stroke-linejoin="round"/>
<path d="M352.8 143.697C352.8 144.897 352.368 145.929 351.816 145.929C351.264 145.929 350.82 144.933 350.82 143.697C350.82 142.461 351.264 141.477 351.816 141.477C352.368 141.477 352.8 142.473 352.8 143.697Z" fill="#263238"/>
<path d="M360.707 142.954C360.707 144.154 360.263 145.186 359.723 145.186C359.183 145.186 358.727 144.19 358.727 142.954C358.727 141.718 359.171 140.734 359.723 140.734C360.275 140.734 360.707 141.73 360.707 142.954Z" fill="#263238"/>
<path d="M348.094 139.202C348.094 139.202 349.57 136.982 353.29 138.002" stroke="#263238" stroke-linecap="round" stroke-linejoin="round"/>
<path d="M357.492 138C357.492 138 359.964 135.276 362.196 138" stroke="#263238" stroke-linecap="round" stroke-linejoin="round"/>
<path d="M357.25 142.953C357.25 142.953 357.49 147.909 358.978 147.909C360.466 147.909 359.962 150.129 357.982 150.873" stroke="#263238" stroke-linecap="round" stroke-linejoin="round"/>
<path d="M356 155.828C356 155.828 351.548 157.808 349.82 153.344" stroke="#263238" stroke-linecap="round" stroke-linejoin="round"/>
<path d="M357.044 265.371C357.044 265.371 331.844 243.267 305.732 235.743C279.62 228.219 249.572 231.759 223.472 224.691C197.372 217.623 182.348 207.891 182.348 207.891L181.016 231.327L356.216 278.655L476.072 245.487L488.012 221.163C488.012 221.163 473.42 228.675 447.32 234.867C421.22 241.059 391.976 241.047 375.596 247.203C359.216 253.359 357.044 265.371 357.044 265.371Z" fill="white" stroke="#263238" stroke-linecap="round" stroke-linejoin="round"/>
<path d="M178.363 213.18C178.363 213.18 207.595 230.88 273.451 237.072C316.831 241.14 357.043 265.368 357.043 265.368C374.663 254.102 394.948 247.694 415.843 246.792C450.343 245.472 489.703 231.756 489.703 231.756L482.203 247.2L353.503 272.4L175.711 225.96L178.363 213.18Z" fill="white" stroke="#263238" stroke-linecap="round" stroke-linejoin="round"/>
<path d="M173.505 218.492C198.385 229.729 225.014 236.598 252.225 238.796C299.541 242.336 355.713 265.328 355.713 265.328C355.713 265.328 385.341 249.416 418.113 249.416C442.454 249.209 466.673 245.939 490.197 239.684C489.466 242.129 489.285 244.705 489.666 247.228C490.048 249.75 490.983 252.157 492.405 254.276L355.269 283.496L172.617 230.396L173.505 218.492Z" fill="white" stroke="#263238" stroke-linecap="round" stroke-linejoin="round"/>
<path d="M174.394 228.993L349.522 272.889V279.081L364.558 279.525V272.397L496.354 251.613C496.354 251.613 502.102 250.281 497.242 256.917C492.382 263.553 407.458 337.413 407.458 337.413L313.258 347.145L170.398 315.789L171.25 231.417C171.253 231.034 171.343 230.657 171.513 230.314C171.683 229.971 171.929 229.672 172.232 229.438C172.535 229.205 172.887 229.043 173.262 228.966C173.636 228.889 174.024 228.898 174.394 228.993Z" fill="#008080" fill-opacity="0.2"/>
<mask id="mask6_10963_19668" style="mask-type:luminance" maskUnits="userSpaceOnUse" x="170" y="228" width="330" height="120">
<path d="M174.394 228.993L349.522 272.889V279.081L364.558 279.525V272.397L496.354 251.613C496.354 251.613 502.102 250.281 497.242 256.917C492.382 263.553 407.458 337.413 407.458 337.413L313.258 347.145L170.398 315.789L171.25 231.417C171.253 231.034 171.343 230.657 171.513 230.314C171.683 229.971 171.929 229.672 172.232 229.438C172.535 229.205 172.887 229.043 173.262 228.966C173.636 228.889 174.024 228.898 174.394 228.993Z" fill="white"/>
</mask>
<g mask="url(#mask6_10963_19668)">
<path opacity="0.3" d="M349.526 279.083V272.891L171.29 228.227L170.414 315.791L313.262 347.195L315.818 346.931L353.522 279.203L349.526 279.083Z" fill="black"/>
</g>
<path d="M174.394 228.993L349.522 272.889V279.081L364.558 279.525V272.397L496.354 251.613C496.354 251.613 502.102 250.281 497.242 256.917C492.382 263.553 407.458 337.413 407.458 337.413L313.258 347.145L170.398 315.789L171.25 231.417C171.253 231.034 171.343 230.657 171.513 230.314C171.683 229.971 171.929 229.672 172.232 229.438C172.535 229.205 172.887 229.043 173.262 228.966C173.636 228.889 174.024 228.898 174.394 228.993Z" stroke="#263238" stroke-linecap="round" stroke-linejoin="round"/>
<path d="M349.524 279.086L310.164 347.198L317.688 347.63L364.56 279.53L349.524 279.086Z" fill="#008080" fill-opacity="0.2" stroke="#263238" stroke-linecap="round" stroke-linejoin="round"/>
<path d="M480.883 254.4C480.883 254.4 492.631 256.596 490.183 264.432L497.239 256.944C497.239 256.944 500.467 252.924 498.991 252.144C497.515 251.364 480.883 254.4 480.883 254.4Z" fill="#263238"/>
<path d="M190.633 233.448C190.633 233.448 174.013 238.044 171.433 250.464L171.289 231.42C171.289 231.42 171.793 228.552 174.421 229.02C177.049 229.488 190.633 233.448 190.633 233.448Z" fill="#263238"/>
<path d="M170.57 309.961L178.922 317.917L170.414 315.793L170.57 309.961Z" fill="#263238"/>
<path d="M401.445 337.982L412.773 332.414L406.809 337.586L401.445 337.982Z" fill="#263238"/>
<path d="M397.476 198.812L429.348 237.021L421.32 238.293L387.156 209.493C387.156 209.493 396 203.697 397.476 198.812Z" fill="white" stroke="#263238" stroke-linecap="round" stroke-linejoin="round"/>
<path d="M256.139 224.235C256.139 224.235 254.543 222.303 254.135 224.031C253.727 225.759 250.115 231.759 252.935 232.179C255.755 232.599 257.351 225.747 257.351 225.747L256.139 224.235Z" fill="white" stroke="#263238" stroke-linecap="round" stroke-linejoin="round"/>
<path d="M259.957 224.005C259.957 224.005 258.349 222.073 257.953 223.789C257.557 225.505 253.933 231.517 256.753 231.949C259.573 232.381 261.181 225.505 261.181 225.505L259.957 224.005Z" fill="white" stroke="#263238" stroke-linecap="round" stroke-linejoin="round"/>
<path d="M263.786 223.858C263.786 223.858 261.878 221.71 261.386 223.618C260.894 225.526 256.586 232.198 259.958 232.678C263.33 233.158 265.202 225.478 265.202 225.478L263.786 223.858Z" fill="white" stroke="#263238" stroke-linecap="round" stroke-linejoin="round"/>
<path d="M267.118 224.578L273.55 230.77H265.93L267.118 224.578Z" fill="white" stroke="#263238" stroke-linecap="round" stroke-linejoin="round"/>
<path d="M267.122 224.577C267.122 224.577 265.214 222.429 264.722 224.337C264.23 226.245 259.922 232.917 263.294 233.385C266.666 233.853 268.538 226.185 268.538 226.185L267.122 224.577Z" fill="white" stroke="#263238" stroke-linecap="round" stroke-linejoin="round"/>
<path d="M437.995 230.138C437.995 230.138 439.279 227.978 439.951 229.61C440.623 231.242 445.123 236.618 442.423 237.482C439.723 238.346 437.047 231.818 437.047 231.818L437.995 230.138Z" fill="white" stroke="#263238" stroke-linecap="round" stroke-linejoin="round"/>
<path d="M434.229 230.497C434.229 230.497 435.513 228.337 436.185 229.969C436.857 231.601 441.369 236.977 438.657 237.841C435.945 238.705 433.281 232.177 433.281 232.177L434.229 230.497Z" fill="white" stroke="#263238" stroke-linecap="round" stroke-linejoin="round"/>
<path d="M430.441 230.962C430.441 230.962 431.989 228.562 432.757 230.35C433.525 232.138 438.757 238.078 435.589 239.074C432.421 240.07 429.289 232.834 429.289 232.834L430.441 230.962Z" fill="white" stroke="#263238" stroke-linecap="round" stroke-linejoin="round"/>
<path d="M427.255 232.195L421.867 239.323L429.403 238.123L427.255 232.195Z" fill="white" stroke="#263238" stroke-linecap="round" stroke-linejoin="round"/>
<path d="M427.261 232.196C427.261 232.196 428.797 229.796 429.577 231.584C430.357 233.372 435.577 239.3 432.409 240.296C429.241 241.292 426.109 234.068 426.109 234.068L427.261 232.196Z" fill="white" stroke="#263238" stroke-linecap="round" stroke-linejoin="round"/>
<path d="M208.643 296.288L216.323 295.088L208.643 293.888C207.967 293.785 207.341 293.469 206.858 292.986C206.374 292.502 206.058 291.876 205.955 291.2L204.755 283.508L203.555 291.2C203.454 291.874 203.139 292.499 202.658 292.982C202.177 293.466 201.554 293.783 200.879 293.888L193.188 295.088L200.879 296.288C201.551 296.398 202.172 296.717 202.652 297.199C203.132 297.682 203.448 298.303 203.555 298.976L204.755 306.668L205.955 298.976C206.063 298.302 206.381 297.679 206.864 297.196C207.347 296.713 207.969 296.396 208.643 296.288Z" fill="white"/>
<path d="M151.273 348.389L158.965 347.189L151.273 345.989C150.599 345.88 149.977 345.561 149.495 345.079C149.013 344.597 148.694 343.975 148.585 343.301L147.385 335.609L146.185 343.301C146.08 343.977 145.764 344.602 145.28 345.085C144.797 345.568 144.172 345.885 143.497 345.989L135.805 347.189L143.497 348.389C144.172 348.494 144.797 348.81 145.28 349.294C145.764 349.777 146.08 350.402 146.185 351.077L147.385 358.769L148.585 351.077C148.694 350.404 149.013 349.782 149.495 349.3C149.977 348.817 150.599 348.499 151.273 348.389Z" fill="#008080" fill-opacity="0.2"/>
<path opacity="0.5" d="M151.273 348.389L158.965 347.189L151.273 345.989C150.599 345.88 149.977 345.561 149.495 345.079C149.013 344.597 148.694 343.975 148.585 343.301L147.385 335.609L146.185 343.301C146.08 343.977 145.764 344.602 145.28 345.085C144.797 345.568 144.172 345.885 143.497 345.989L135.805 347.189L143.497 348.389C144.172 348.494 144.797 348.81 145.28 349.294C145.764 349.777 146.08 350.402 146.185 351.077L147.385 358.769L148.585 351.077C148.694 350.404 149.013 349.782 149.495 349.3C149.977 348.817 150.599 348.499 151.273 348.389Z" fill="white"/>
<path d="M342.788 380.471L350.48 379.271L342.788 378.071C342.114 377.968 341.491 377.653 341.008 377.172C340.525 376.691 340.207 376.068 340.1 375.395L338.9 367.703L337.7 375.395C337.594 376.068 337.276 376.691 336.793 377.172C336.31 377.653 335.686 377.968 335.012 378.071L327.32 379.271L335.012 380.471C335.686 380.575 336.31 380.89 336.793 381.371C337.276 381.852 337.594 382.474 337.7 383.147L338.9 390.839L340.1 383.147C340.207 382.474 340.525 381.852 341.008 381.371C341.491 380.89 342.114 380.575 342.788 380.471Z" fill="#008080" fill-opacity="0.2"/>
<path opacity="0.5" d="M342.788 380.471L350.48 379.271L342.788 378.071C342.114 377.968 341.491 377.653 341.008 377.172C340.525 376.691 340.207 376.068 340.1 375.395L338.9 367.703L337.7 375.395C337.594 376.068 337.276 376.691 336.793 377.172C336.31 377.653 335.686 377.968 335.012 378.071L327.32 379.271L335.012 380.471C335.686 380.575 336.31 380.89 336.793 381.371C337.276 381.852 337.594 382.474 337.7 383.147L338.9 390.839L340.1 383.147C340.207 382.474 340.525 381.852 341.008 381.371C341.491 380.89 342.114 380.575 342.788 380.471Z" fill="white"/>
<path d="M141.431 307.476L146.519 306.672L141.431 305.868C140.985 305.799 140.572 305.59 140.253 305.27C139.933 304.951 139.724 304.538 139.655 304.092L138.863 299.016L138.059 304.092C137.991 304.538 137.781 304.951 137.462 305.27C137.143 305.59 136.73 305.799 136.283 305.868L131.195 306.672L136.283 307.476C136.73 307.544 137.143 307.754 137.462 308.073C137.781 308.392 137.991 308.805 138.059 309.252L138.863 314.328L139.655 309.252C139.724 308.805 139.933 308.392 140.253 308.073C140.572 307.754 140.985 307.544 141.431 307.476Z" fill="#008080" fill-opacity="0.2"/>
<path opacity="0.5" d="M141.431 307.476L146.519 306.672L141.431 305.868C140.985 305.799 140.572 305.59 140.253 305.27C139.933 304.951 139.724 304.538 139.655 304.092L138.863 299.016L138.059 304.092C137.991 304.538 137.781 304.951 137.462 305.27C137.143 305.59 136.73 305.799 136.283 305.868L131.195 306.672L136.283 307.476C136.73 307.544 137.143 307.754 137.462 308.073C137.781 308.392 137.991 308.805 138.059 309.252L138.863 314.328L139.655 309.252C139.724 308.805 139.933 308.392 140.253 308.073C140.572 307.754 140.985 307.544 141.431 307.476Z" fill="white"/>
<path d="M471.502 318.702L476.59 317.91L471.502 317.106C471.056 317.036 470.644 316.826 470.325 316.507C470.006 316.188 469.796 315.776 469.726 315.33L468.922 310.242L468.13 315.33C468.059 315.776 467.849 316.188 467.53 316.507C467.211 316.826 466.799 317.036 466.354 317.106L461.266 317.91L466.354 318.702C466.799 318.773 467.211 318.982 467.53 319.302C467.849 319.621 468.059 320.033 468.13 320.478L468.922 325.566L469.726 320.478C469.796 320.033 470.006 319.621 470.325 319.302C470.644 318.982 471.056 318.773 471.502 318.702Z" fill="#008080" fill-opacity="0.2"/>
<path opacity="0.5" d="M471.502 318.702L476.59 317.91L471.502 317.106C471.056 317.036 470.644 316.826 470.325 316.507C470.006 316.188 469.796 315.776 469.726 315.33L468.922 310.242L468.13 315.33C468.059 315.776 467.849 316.188 467.53 316.507C467.211 316.826 466.799 317.036 466.354 317.106L461.266 317.91L466.354 318.702C466.799 318.773 467.211 318.982 467.53 319.302C467.849 319.621 468.059 320.033 468.13 320.478L468.922 325.566L469.726 320.478C469.796 320.033 470.006 319.621 470.325 319.302C470.644 318.982 471.056 318.773 471.502 318.702Z" fill="white"/>
<path d="M238.981 276.417L243.962 275.637L238.981 274.857C238.545 274.789 238.141 274.583 237.828 274.271C237.515 273.958 237.31 273.554 237.241 273.117L236.449 268.125L235.67 273.117C235.599 273.553 235.393 273.956 235.081 274.269C234.769 274.581 234.366 274.787 233.93 274.857L228.938 275.637L233.93 276.417C234.366 276.487 234.769 276.693 235.081 277.005C235.393 277.318 235.599 277.721 235.67 278.157L236.402 283.197L237.194 278.205C237.255 277.752 237.463 277.333 237.786 277.01C238.109 276.687 238.529 276.478 238.981 276.417Z" fill="white"/>
<path d="M403.97 325.687L408.961 324.895L403.97 324.115C403.533 324.045 403.13 323.839 402.818 323.526C402.506 323.214 402.3 322.811 402.23 322.375L401.45 317.383L400.67 322.375C400.599 322.811 400.393 323.214 400.081 323.526C399.769 323.839 399.366 324.045 398.93 324.115L393.938 324.895L398.93 325.687C399.366 325.755 399.77 325.961 400.083 326.273C400.396 326.586 400.601 326.99 400.67 327.427L401.45 332.407L402.23 327.427C402.298 326.99 402.503 326.586 402.816 326.273C403.129 325.961 403.533 325.755 403.97 325.687Z" fill="white"/>
</svg>
