<svg width="145" height="16" viewBox="0 0 145 16" fill="none" xmlns="http://www.w3.org/2000/svg">
<g id="Social-icons">
<g id="Group 262">
<rect id="Rectangle" width="16" height="16" rx="2" fill="#D3D4DC"/>
<path id="Path" d="M4 7V12" stroke="#282C3E" stroke-width="1.5" stroke-linecap="round" stroke-linejoin="round"/>
<path id="Path_2" d="M4 3.99891V4.00891" stroke="#282C3E" stroke-width="1.5" stroke-linecap="round" stroke-linejoin="round"/>
<path id="Path_3" d="M8 12V7" stroke="#282C3E" stroke-width="1.5" stroke-linecap="round" stroke-linejoin="round"/>
<path id="Path_4" d="M12 12V9C12 7.89543 11.1046 7 10 7C8.89543 7 8 7.89543 8 9" stroke="#282C3E" stroke-width="1.5" stroke-linecap="round" stroke-linejoin="round"/>
</g>
<path id="Logo" d="M59.6885 1.89399C58.9647 2.21572 58.1857 2.43273 57.3684 2.52985C58.2029 2.03027 58.8428 1.23895 59.1445 0.294949C58.364 0.758156 57.4999 1.09427 56.5795 1.27572C55.8429 0.490783 54.793 0 53.6312 0C51.4007 0 49.5922 1.80846 49.5922 4.03937C49.5922 4.3555 49.6278 4.66364 49.697 4.95978C46.3398 4.79113 43.3631 3.18329 41.3708 0.739371C41.0231 1.33566 40.8241 2.02947 40.8241 2.77044C40.8241 4.17165 41.5371 5.4082 42.621 6.13239C41.9591 6.11121 41.3361 5.92936 40.7913 5.62682C40.7909 5.6436 40.7909 5.66079 40.7909 5.67797C40.7909 7.63471 42.1833 9.26692 44.0314 9.63861C43.6925 9.73053 43.3356 9.78009 42.9671 9.78009C42.7065 9.78009 42.4535 9.75491 42.2069 9.70735C42.7213 11.312 44.2128 12.4802 45.9801 12.5126C44.5977 13.596 42.8564 14.2419 40.9636 14.2419C40.6379 14.2419 40.3161 14.2227 40 14.1851C41.7881 15.3318 43.9111 16 46.1919 16C53.622 16 57.6846 9.84523 57.6846 4.50737C57.6846 4.33232 57.681 4.15767 57.6734 3.98421C58.4623 3.4159 59.1473 2.7041 59.6885 1.89399Z" fill="#D3D4DC"/>
<g id="Group 263">
<rect id="Rectangle_2" x="83.6875" width="20.5714" height="16" rx="4" fill="#D3D4DC"/>
<path id="Path_5" fill-rule="evenodd" clip-rule="evenodd" d="M91.6875 4.57227L97.4018 8.00084L91.6875 11.4294V4.57227Z" fill="#282C3E"/>
</g>
<path id="Union" fill-rule="evenodd" clip-rule="evenodd" d="M143.808 2.75685C144.045 3.38554 144.171 4.05067 144.18 4.72248C144.229 5.56743 144.229 5.84378 144.231 7.98255L144.231 8.01242C144.231 10.1794 144.22 10.4499 144.182 11.3033C144.168 11.9676 144.043 12.6222 143.81 13.2432C143.604 13.7733 143.29 14.2548 142.888 14.6569C142.486 15.059 142.005 15.373 141.474 15.5787C140.854 15.8116 140.198 15.9373 139.535 15.9503C138.688 16 138.411 16 136.245 16C134.078 16 133.808 15.9885 132.954 15.9503C132.29 15.9285 131.634 15.7935 131.016 15.5512C130.485 15.3459 130.003 15.0322 129.601 14.6302C129.199 14.2283 128.885 13.7468 128.679 13.2165C128.446 12.5947 128.321 11.9401 128.307 11.2766C128.258 10.4287 128.258 10.1519 128.258 7.98581C128.258 5.81972 128.269 5.54917 128.307 4.69498C128.32 4.03247 128.446 3.37699 128.679 2.75685C128.884 2.22646 129.198 1.74478 129.6 1.34262C130.003 0.940454 130.484 0.626668 131.015 0.421333C131.635 0.188463 132.29 0.0624939 132.953 0.048786C133.8 0 134.078 0 136.244 0C138.41 0 138.68 0.0106443 139.534 0.048786C140.196 0.0623939 140.852 0.188364 141.473 0.421333C142.003 0.626811 142.484 0.940648 142.887 1.34279C143.289 1.74494 143.603 2.22655 143.808 2.75685ZM132.138 7.98137C132.138 10.2468 133.973 12.0821 136.238 12.0821C137.326 12.0821 138.369 11.65 139.138 10.881C139.907 10.112 140.339 9.06894 140.339 7.98137C140.339 6.89381 139.907 5.85078 139.138 5.08176C138.369 4.31273 137.326 3.8807 136.238 3.8807C133.973 3.8807 132.138 5.71593 132.138 7.98137ZM140.136 4.61267C140.252 4.66068 140.377 4.68534 140.502 4.68522C141.03 4.68522 141.458 4.25768 141.458 3.72902C141.458 3.6035 141.433 3.47922 141.385 3.36326C141.337 3.24731 141.266 3.14194 141.178 3.05319C141.089 2.96444 140.983 2.89404 140.867 2.84601C140.752 2.79798 140.627 2.77326 140.502 2.77326C140.376 2.77326 140.252 2.79798 140.136 2.84601C140.02 2.89404 139.915 2.96444 139.826 3.05319C139.737 3.14194 139.667 3.24731 139.619 3.36326C139.571 3.47922 139.546 3.6035 139.546 3.72902C139.546 3.85462 139.571 3.97901 139.619 4.09508C139.667 4.21114 139.737 4.3166 139.826 4.40542C139.915 4.49423 140.02 4.56466 140.136 4.61267ZM138.902 7.98207C138.902 9.4532 137.709 10.6458 136.238 10.6458C134.767 10.6458 133.574 9.4532 133.574 7.98207C133.574 6.51094 134.767 5.31836 136.238 5.31836C137.709 5.31836 138.902 6.51094 138.902 7.98207Z" fill="#D3D4DC"/>
</g>
</svg>
